<?xml version="1.0" encoding="UTF-8"?>
<svg width="40px" height="40px" viewBox="0 0 40 40" version="1.1" xmlns="http://www.w3.org/2000/svg" xmlns:xlink="http://www.w3.org/1999/xlink">
    <title>102</title>
    <g id="Page-1" stroke="none" stroke-width="1" fill="none" fill-rule="evenodd">
        <g id="icons-night" transform="translate(-115.000000, -6.000000)" fill-rule="nonzero">
            <g id="102" transform="translate(116.000000, 16.000000)">
                <g id="Group" fill="#BEE4F8">
                    <path d="M6.48311688,12.9662338 C2.9025413,12.9662338 0,10.0636925 0,6.48311688 C0,2.9025413 2.9025413,0 6.48311688,0 C10.0636925,0 12.9662338,2.9025413 12.9662338,6.48311688 C12.9662338,10.0636925 10.0636925,12.9662338 6.48311688,12.9662338 Z" id="Path"></path>
                </g>
                <path d="M23.8379221,7.28103896 C26.2704873,7.28103896 28.4026348,8.84536519 29.2088353,11.1385932 L29.2088353,11.1385932 L29.6209621,12.31104 L30.8491636,12.1209351 C31.1775086,12.0700675 31.4580779,12.0393475 31.6176623,12.0393475 C33.9550753,12.0393475 35.8067532,13.9209475 35.8067532,16.2929704 C35.8067532,18.6376644 33.8825642,20.5464935 31.5179221,20.5464935 L31.5179221,20.5464935 L16.2576623,20.5464935 C14.3904249,20.5464935 12.8664935,19.0464 12.8664935,17.2197569 C12.8664935,15.4022899 14.382346,13.9228426 16.2576623,13.9228426 L16.2576623,13.9228426 L18.0391231,13.9228426 L18.1480395,12.5446317 C18.3818306,9.58683429 20.8521974,7.28103896 23.8379221,7.28103896 Z" id="Combined-Shape" fill="#FFFFFF"></path>
            </g>
        </g>
    </g>
</svg>