<?xml version="1.0" encoding="UTF-8"?>
<svg width="40px" height="40px" viewBox="0 0 40 40" version="1.1" xmlns="http://www.w3.org/2000/svg" xmlns:xlink="http://www.w3.org/1999/xlink">
    <title>121</title>
    <g id="Page-1" stroke="none" stroke-width="1" fill="none" fill-rule="evenodd">
        <g id="icons-night" transform="translate(-385.000000, -6.000000)" fill-rule="nonzero">
            <g id="121" transform="translate(387.000000, 11.000000)">
                <path d="M6.48311688,-1.42108547e-14 C8.93746523,-1.42108547e-14 11.0732337,1.36378252 12.1739756,3.37490093 C10.3450064,4.91579088 9.12160498,7.15142258 8.90969766,9.67480519 L8.90969766,9.67480519 L8.37848104,9.67480519 C6.33728496,9.67480519 4.52756557,10.6631654 3.40140183,12.1872963 C1.3755217,11.0915727 1.56319402e-13,8.94800587 1.56319402e-13,6.48311688 C1.56319402e-13,2.9025413 2.9025413,-1.42108547e-14 6.48311688,-1.42108547e-14 Z" id="Combined-Shape" fill="#BEE4F8"></path>
                <path d="M18.1398608,2.69298701 C21.4578203,2.69298701 24.3765195,4.79212052 25.464586,7.86920727 L25.464586,7.86920727 L25.8790068,9.04095584 L27.1068094,8.84845714 C27.4088229,8.80108052 27.7161226,8.77714286 28.027013,8.77714286 C31.2770494,8.77714286 33.9116883,11.4117818 33.9116883,14.6618182 C33.9116883,17.9118545 31.2770494,20.5464935 28.027013,20.5464935 L28.027013,20.5464935 L8.37848104,20.5464935 C5.78892468,20.5464935 3.69038961,18.4481579 3.69038961,15.8587013 C3.69038961,13.2694442 5.78882494,11.1709091 8.37848104,11.1709091 L8.37848104,11.1709091 L10.2854151,11.1709091 L10.4006151,9.79997922 C10.7367397,5.79720312 14.0960914,2.69298701 18.139761,2.69298701 Z" id="Combined-Shape" fill="#FFFFFF"></path>
                <path d="M27.7796571,25.9549091 C27.9491604,25.4737031 27.6996058,24.9457404 27.2201796,24.7712669 C26.7407534,24.5967933 26.2102366,24.8408713 26.0308114,25.3184665 L24.8426057,28.5828655 C24.6731025,29.0640714 24.922657,29.5920342 25.4020833,29.7665077 C25.8815095,29.9409812 26.4120263,29.6969032 26.5914514,29.2193081 L27.7795574,25.9549091 L27.7796571,25.9549091 Z M25.3608561,32.6003034 C25.5287492,32.1195831 25.2791004,31.5931911 24.8006176,31.4190237 C24.3221349,31.2448563 23.792522,31.4875976 23.6121101,31.963761 L23.1877153,33.1297247 C23.0693592,33.4432503 23.1287229,33.7961994 23.3431313,34.0537562 C23.5575398,34.3113131 23.8938733,34.4336929 24.223663,34.3741504 C24.5534526,34.3146079 24.8257558,34.0823407 24.936561,33.7660675 L25.3608561,32.6003034 L25.3608561,32.6003034 Z M19.7256312,33.7660675 C19.6157093,34.0835052 19.343233,34.3170581 19.0127188,34.37714 C18.6822045,34.437222 18.3449645,34.3145053 18.130357,34.0560616 C17.9157495,33.7976179 17.8570923,33.4435705 17.9768852,33.1297247 L19.1650909,29.865226 C19.3455028,29.3890625 19.8751156,29.1463212 20.3535984,29.3204886 C20.8320812,29.494656 21.08173,30.0210481 20.9138369,30.5017683 L19.7257309,33.7661673 L19.7256312,33.7660675 Z M22.1443325,27.120773 C21.9634817,27.596253 21.4343302,27.8383884 20.9562927,27.6644103 C20.4782551,27.4904323 20.2285173,26.9648261 20.3955865,26.4843304 L20.8199813,25.3183668 C20.9305584,25.0017568 21.2029402,24.7691353 21.532954,24.7094687 C21.8629677,24.6498021 22.1995591,24.7723212 22.4139981,25.0301682 C22.6284372,25.2880152 22.6875494,25.6413003 22.5687273,25.9549091 L22.1444322,27.1208727 L22.1443325,27.120773 Z M17.3578971,25.9549091 C17.5249663,25.4744133 17.2752285,24.9488072 16.797191,24.7748291 C16.3191534,24.6008511 15.790002,24.8429865 15.6091512,25.3184665 L14.4210452,28.5828655 C14.253976,29.0633612 14.5037138,29.5889673 14.9817514,29.7629454 C15.4597889,29.9369235 15.9889404,29.6947881 16.1697912,29.2193081 L17.3578971,25.9549091 L17.3578971,25.9549091 Z M14.9391958,32.6003034 C15.107089,32.1195831 14.8574402,31.5931911 14.3789574,31.4190237 C13.9004746,31.2448563 13.3708617,31.4875976 13.1904499,31.963761 L12.7661548,33.1297247 C12.646362,33.4435705 12.7050191,33.7976179 12.9196266,34.0560616 C13.1342341,34.3145053 13.4714741,34.437222 13.8019884,34.37714 C14.1325026,34.3170581 14.4049789,34.0835052 14.5149008,33.7660675 L14.9391958,32.6003034 L14.9391958,32.6003034 Z M9.30407065,33.7660675 C9.12282153,34.2409229 8.59409341,34.4825069 8.11646237,34.308704 C7.63883132,34.1349011 7.3890105,33.6100146 7.55532468,33.1297247 L8.74343065,29.865226 C8.92384252,29.3890625 9.45345538,29.1463212 9.93193816,29.3204886 C10.4104209,29.494656 10.6600698,30.0210481 10.4921766,30.5017683 L9.30407065,33.7661673 L9.30407065,33.7660675 Z M11.7227719,27.120773 C11.5419211,27.596253 11.0127697,27.8383884 10.5347322,27.6644103 C10.0566946,27.4904323 9.80695677,26.9648261 9.97402597,26.4843304 L10.398321,25.3183668 C10.5088981,25.0017568 10.78128,24.7691353 11.1112937,24.7094687 C11.4413075,24.6498021 11.7778988,24.7723212 11.9923379,25.0301682 C12.2067769,25.2880152 12.2658891,25.6413003 12.147067,25.9549091 L11.7227719,27.1208727 L11.7227719,27.120773 Z" id="Shape" fill="#FFFFFF"></path>
            </g>
        </g>
    </g>
</svg>