<?xml version="1.0" encoding="UTF-8"?>
<svg width="40px" height="40px" viewBox="0 0 40 40" version="1.1" xmlns="http://www.w3.org/2000/svg" xmlns:xlink="http://www.w3.org/1999/xlink">
    <title>124</title>
    <g id="Page-1" stroke="none" stroke-width="1" fill="none" fill-rule="evenodd">
        <g id="icons-night" transform="translate(-476.000000, -6.000000)" fill-rule="nonzero">
            <g id="124" transform="translate(476.398961, 13.396364)">
                <path d="M6.48311688,0 C7.60342217,0 8.65735029,0.28414858 9.57676402,0.78430852 C7.75027743,2.32525347 6.52822983,4.55970479 6.31645091,7.08155844 L6.31645091,7.08155844 L5.78523429,7.08155844 C3.73949522,7.08155844 1.92626436,8.07432304 0.80064591,9.60423403 C0.289966462,8.67881302 0,7.61483307 0,6.48311688 C0,2.9025413 2.9025413,0 6.48311688,0 Z" id="Combined-Shape" fill="#BEE4F8"></path>
                <path d="M15.5465143,0.0997402597 C18.4072755,0.0997402597 20.9711487,1.66012198 22.3208755,4.06232774 C19.9580164,5.07104558 18.2538212,7.31658046 18.0291491,9.98120727 L18.0291491,9.98120727 L17.6207127,9.98120727 C14.9943522,9.98120727 12.8664935,12.1006878 12.8664935,14.715279 C12.8664935,15.9680941 13.3550176,17.1070477 14.1526853,17.9537024 L5.78523429,17.9532468 C3.19567792,17.9532468 1.09714286,15.8549112 1.09714286,13.2654545 C1.09714286,10.7481212 3.0806176,8.69462626 5.57060114,8.5824856 L5.78523429,8.57766234 L7.69216831,8.57766234 L7.80736831,7.20673247 C8.14349299,3.20395636 11.5028447,0.0997402597 15.5465143,0.0997402597 Z" id="Combined-Shape" fill="#FFFFFF"></path>
                <path d="M25.1249704,4.98701299 C27.5295086,4.98701299 29.6433039,6.50087065 30.4305538,8.71769766 L30.4305538,8.71769766 L30.845573,9.88645403 L32.0710816,9.69525195 C32.2858223,9.66173922 32.504453,9.64478338 32.7258764,9.64478338 C35.0347636,9.64478338 36.9038961,11.5060364 36.9038961,13.7990649 C36.9038961,16.091894 35.0347636,17.9532468 32.7258764,17.9532468 L32.7258764,17.9532468 L17.6207127,17.9532468 C15.8197029,17.9532468 14.3625974,16.5025247 14.3625974,14.715279 C14.3625974,12.928133 15.8194036,11.4773112 17.6207127,11.4773112 L17.6207127,11.4773112 L19.4042681,11.4773112 L19.5199668,10.10688 C19.762934,7.22488519 22.1949008,4.98701299 25.1249704,4.98701299 Z" id="Combined-Shape" fill="#FFFFFF"></path>
                <path d="M27.5801766,23.3616623 C27.7496798,22.8804564 27.5001253,22.3524936 27.0206991,22.1780201 C26.5412728,22.0035466 26.010756,22.2476246 25.8313309,22.7252197 L24.6431252,25.9896187 C24.473622,26.4708247 24.7231765,26.9987874 25.2026027,27.1732609 C25.682029,27.3477344 26.2125458,27.1036565 26.3919709,26.6260613 L27.5800769,23.3616623 L27.5801766,23.3616623 Z M25.1613756,30.0070566 C25.3292687,29.5263364 25.0796199,28.9999443 24.6011371,28.8257769 C24.1226543,28.6516095 23.5930415,28.8943509 23.4126296,29.3705143 L22.9882348,30.5364779 C22.8698787,30.8500036 22.9292424,31.2029526 23.1436508,31.4605095 C23.3580593,31.7180663 23.6943928,31.8404461 24.0241825,31.7809037 C24.3539721,31.7213612 24.6262752,31.4890939 24.7370805,31.1728208 L25.1613756,30.0070566 L25.1613756,30.0070566 Z M19.5261506,31.1728208 C19.4162287,31.4902585 19.1437525,31.7238113 18.8132383,31.7838933 C18.482724,31.8439752 18.1454839,31.7212586 17.9308765,31.4628149 C17.716269,31.2043712 17.6576118,30.8503237 17.7774047,30.5364779 L18.9656104,27.2719792 C19.1460223,26.7958158 19.6756351,26.5530744 20.1541179,26.7272418 C20.6326007,26.9014092 20.8822495,27.4278013 20.7143564,27.9085216 L19.5262504,31.1729205 L19.5261506,31.1728208 Z M21.9448519,24.5275262 C21.7640011,25.0030063 21.2348497,25.2451417 20.7568122,25.0711636 C20.2787746,24.8971855 20.0290368,24.3715794 20.196106,23.8910836 L20.6205008,22.72512 C20.7310779,22.40851 21.0034597,22.1758885 21.3334735,22.1162219 C21.6634872,22.0565554 22.0000786,22.1790744 22.2145176,22.4369214 C22.4289566,22.6947684 22.4880689,23.0480535 22.3692468,23.3616623 L21.9449517,24.527626 L21.9448519,24.5275262 Z M17.1584166,23.3616623 C17.3254858,22.8811666 17.075748,22.3555605 16.5977104,22.1815824 C16.1196729,22.0076043 15.5905215,22.2497397 15.4096706,22.7252197 L14.2215647,25.9896187 C14.0544955,26.4701144 14.3042333,26.9957206 14.7822709,27.1696986 C15.2603084,27.3436767 15.7894598,27.1015413 15.9703106,26.6260613 L17.1584166,23.3616623 L17.1584166,23.3616623 Z M14.7397153,30.0070566 C14.9076085,29.5263364 14.6579596,28.9999443 14.1794769,28.8257769 C13.7009941,28.6516095 13.1713812,28.8943509 12.9909694,29.3705143 L12.5666743,30.5364779 C12.4468814,30.8503237 12.5055386,31.2043712 12.7201461,31.4628149 C12.9347535,31.7212586 13.2719936,31.8439752 13.6025079,31.7838933 C13.9330221,31.7238113 14.2054984,31.4902585 14.3154203,31.1728208 L14.7397153,30.0070566 L14.7397153,30.0070566 Z M9.10459013,31.1728208 C8.92334101,31.6476761 8.3946129,31.8892601 7.91698185,31.7154573 C7.4393508,31.5416544 7.18952998,31.0167679 7.35584416,30.5364779 L8.54395013,27.2719792 C8.724362,26.7958158 9.25397486,26.5530744 9.73245764,26.7272418 C10.2109404,26.9014092 10.4605892,27.4278013 10.2926961,27.9085216 L9.10459013,31.1729205 L9.10459013,31.1728208 Z M11.5232914,24.5275262 C11.3424406,25.0030063 10.8132892,25.2451417 10.3352516,25.0711636 C9.85721408,24.8971855 9.60747625,24.3715794 9.77454545,23.8910836 L10.1988405,22.72512 C10.3094176,22.40851 10.5817995,22.1758885 10.9118132,22.1162219 C11.241827,22.0565554 11.5784183,22.1790744 11.7928573,22.4369214 C12.0072964,22.6947684 12.0664086,23.0480535 11.9475865,23.3616623 L11.5232914,24.527626 L11.5232914,24.5275262 Z" id="Shape" fill="#FFFFFF"></path>
            </g>
        </g>
    </g>
</svg>