<?xml version="1.0" encoding="UTF-8"?>
<svg width="40px" height="40px" viewBox="0 0 40 40" version="1.1" xmlns="http://www.w3.org/2000/svg" xmlns:xlink="http://www.w3.org/1999/xlink">
    <title>132</title>
    <g id="Page-1" stroke="none" stroke-width="1" fill="none" fill-rule="evenodd">
        <g id="icons-night" transform="translate(-655.000000, -6.000000)" fill-rule="nonzero">
            <g id="132" transform="translate(657.000000, 11.000000)">
                <path d="M6.48311688,-1.42108547e-14 C8.93746523,-1.42108547e-14 11.0732337,1.36378252 12.1739756,3.37490093 C10.3450064,4.91579088 9.12160498,7.15142258 8.90969766,9.67480519 L8.90969766,9.67480519 L8.37848104,9.67480519 C6.33728496,9.67480519 4.52756557,10.6631654 3.40140183,12.1872963 C1.3755217,11.0915727 1.56319402e-13,8.94800587 1.56319402e-13,6.48311688 C1.56319402e-13,2.9025413 2.9025413,-1.42108547e-14 6.48311688,-1.42108547e-14 Z" id="Combined-Shape" fill="#BEE4F8"></path>
                <path d="M18.1398608,2.69298701 C21.4578203,2.69298701 24.3765195,4.79212052 25.464586,7.86920727 L25.464586,7.86920727 L25.8790068,9.04095584 L27.1068094,8.84845714 C27.4088229,8.80108052 27.7161226,8.77714286 28.027013,8.77714286 C31.2770494,8.77714286 33.9116883,11.4117818 33.9116883,14.6618182 C33.9116883,17.9118545 31.2770494,20.5464935 28.027013,20.5464935 L28.027013,20.5464935 L8.37848104,20.5464935 C5.78892468,20.5464935 3.69038961,18.4481579 3.69038961,15.8587013 C3.69038961,13.2694442 5.78882494,11.1709091 8.37848104,11.1709091 L8.37848104,11.1709091 L10.2854151,11.1709091 L10.4006151,9.79997922 C10.7367397,5.79720312 14.0960914,2.69298701 18.139761,2.69298701 Z" id="Combined-Shape" fill="#FFFFFF"></path>
                <path d="M17.2550677,30.9208769 C17.2550677,32.4624623 16.004721,33.7122078 14.4623377,33.7122078 C12.9199543,33.7122078 11.6696104,32.4624623 11.6696104,30.9208769 C11.6696104,30.4937891 11.7655605,30.0890431 11.9372135,29.7270857 L13.5011408,25.7480478 C14.0315595,24.3985621 14.891121,24.3975647 15.421839,25.7480478 L16.9784852,29.7083345 C17.1610954,30.0864313 17.2556563,30.500992 17.2550677,30.9208769 L17.2550677,30.9208769 Z M25.9324703,30.9208769 C25.9324703,32.4624623 24.6821236,33.7122078 23.1397403,33.7122078 C21.5973569,33.7122078 20.347013,32.4624623 20.347013,30.9208769 C20.347013,30.4937891 20.4429631,30.0890431 20.6146161,29.7270857 L22.1785434,25.7480478 C22.7089621,24.3985621 23.5685236,24.3975647 24.0992416,25.7480478 L25.6558878,29.7083345 C25.838498,30.0864313 25.9330589,30.500992 25.9324703,30.9208769 L25.9324703,30.9208769 Z" id="Shape" fill="#FFFFFF"></path>
            </g>
        </g>
    </g>
</svg>