<?xml version="1.0" encoding="UTF-8"?>
<svg width="40px" height="40px" viewBox="0 0 40 40" version="1.1" xmlns="http://www.w3.org/2000/svg" xmlns:xlink="http://www.w3.org/1999/xlink">
    <title>133</title>
    <g id="Page-1" stroke="none" stroke-width="1" fill="none" fill-rule="evenodd">
        <g id="icons-night" transform="translate(-746.000000, -6.000000)" fill-rule="nonzero">
            <g id="133" transform="translate(748.000000, 11.000000)">
                <path d="M6.48311688,-1.42108547e-14 C8.93746523,-1.42108547e-14 11.0732337,1.36378252 12.1739756,3.37490093 C10.3450064,4.91579088 9.12160498,7.15142258 8.90969766,9.67480519 L8.90969766,9.67480519 L8.37848104,9.67480519 C6.33728496,9.67480519 4.52756557,10.6631654 3.40140183,12.1872963 C1.3755217,11.0915727 1.56319402e-13,8.94800587 1.56319402e-13,6.48311688 C1.56319402e-13,2.9025413 2.9025413,-1.42108547e-14 6.48311688,-1.42108547e-14 Z" id="Combined-Shape" fill="#BEE4F8"></path>
                <path d="M18.1398608,2.69298701 C21.4578203,2.69298701 24.3765195,4.79212052 25.464586,7.86920727 L25.464586,7.86920727 L25.8790068,9.04095584 L27.1068094,8.84845714 C27.4088229,8.80108052 27.7161226,8.77714286 28.027013,8.77714286 C31.2770494,8.77714286 33.9116883,11.4117818 33.9116883,14.6618182 C33.9116883,17.9118545 31.2770494,20.5464935 28.027013,20.5464935 L28.027013,20.5464935 L8.37848104,20.5464935 C5.78892468,20.5464935 3.69038961,18.4481579 3.69038961,15.8587013 C3.69038961,13.2694442 5.78882494,11.1709091 8.37848104,11.1709091 L8.37848104,11.1709091 L10.2854151,11.1709091 L10.4006151,9.79997922 C10.7367397,5.79720312 14.0960914,2.69298701 18.139761,2.69298701 Z" id="Combined-Shape" fill="#FFFFFF"></path>
                <path d="M12.9662365,30.9208769 C12.9662365,32.4624623 11.7158899,33.7122078 10.1735065,33.7122078 C8.63112312,33.7122078 7.38077922,32.4624623 7.38077922,30.9208769 C7.38077922,30.4937891 7.47672935,30.0890431 7.64838234,29.7270857 L9.21230961,25.7480478 C9.74272831,24.3985621 10.6022899,24.3975647 11.1330078,25.7480478 L12.689654,29.7083345 C12.8722642,30.0864313 12.9668251,30.500992 12.9662365,30.9208769 L12.9662365,30.9208769 Z M21.5438989,30.9208769 C21.5438989,32.4624623 20.2935522,33.7122078 18.7511688,33.7122078 C17.2087855,33.7122078 15.9584416,32.4624623 15.9584416,30.9208769 C15.9584416,30.4937891 16.0543917,30.0890431 16.2260447,29.7270857 L17.7899719,25.7480478 C18.3203906,24.3985621 19.1799522,24.3975647 19.7106701,25.7480478 L21.2673164,29.7083345 C21.4499266,30.0864313 21.5444875,30.500992 21.5438989,30.9208769 L21.5438989,30.9208769 Z M30.1215612,30.9208769 C30.1215612,32.4624623 28.8712145,33.7122078 27.3288312,33.7122078 C25.7864478,33.7122078 24.5361039,32.4624623 24.5361039,30.9208769 C24.5361039,30.4937891 24.632054,30.0890431 24.803707,29.7270857 L26.3676343,25.7480478 C26.898053,24.3985621 27.7576145,24.3975647 28.2883325,25.7480478 L29.8449787,29.7083345 C30.0275889,30.0864313 30.1221498,30.500992 30.1215612,30.9208769 L30.1215612,30.9208769 Z" id="Shape" fill="#FFFFFF"></path>
            </g>
        </g>
    </g>
</svg>