<?xml version="1.0" encoding="UTF-8"?>
<svg width="40px" height="40px" viewBox="0 0 40 40" version="1.1" xmlns="http://www.w3.org/2000/svg" xmlns:xlink="http://www.w3.org/1999/xlink">
    <title>141</title>
    <g id="Page-1" stroke="none" stroke-width="1" fill="none" fill-rule="evenodd">
        <g id="icons-night" transform="translate(-1105.000000, -6.000000)" fill-rule="nonzero">
            <g id="141" transform="translate(1107.000000, 11.000000)">
                <path d="M6.48311688,-1.42108547e-14 C8.93746523,-1.42108547e-14 11.0732337,1.36378252 12.1739756,3.37490093 C10.3450064,4.91579088 9.12160498,7.15142258 8.90969766,9.67480519 L8.90969766,9.67480519 L8.37848104,9.67480519 C6.33728496,9.67480519 4.52756557,10.6631654 3.40140183,12.1872963 C1.3755217,11.0915727 1.56319402e-13,8.94800587 1.56319402e-13,6.48311688 C1.56319402e-13,2.9025413 2.9025413,-1.42108547e-14 6.48311688,-1.42108547e-14 Z" id="Combined-Shape" fill="#BEE4F8"></path>
                <path d="M18.1398608,2.69298701 C21.4578203,2.69298701 24.3765195,4.79212052 25.464586,7.86920727 L25.464586,7.86920727 L25.8790068,9.04095584 L27.1068094,8.84845714 C27.4088229,8.80108052 27.7161226,8.77714286 28.027013,8.77714286 C31.2770494,8.77714286 33.9116883,11.4117818 33.9116883,14.6618182 C33.9116883,17.9118545 31.2770494,20.5464935 28.027013,20.5464935 L28.027013,20.5464935 L8.37848104,20.5464935 C5.78892468,20.5464935 3.69038961,18.4481579 3.69038961,15.8587013 C3.69038961,13.2694442 5.78882494,11.1709091 8.37848104,11.1709091 L8.37848104,11.1709091 L10.2854151,11.1709091 L10.4006151,9.79997922 C10.7367397,5.79720312 14.0960914,2.69298701 18.139761,2.69298701 Z" id="Combined-Shape" fill="#FFFFFF"></path>
                <path d="M16.0581846,30.9208769 C16.0581846,32.4624623 14.8078379,33.7122078 13.2654545,33.7122078 C11.7230712,33.7122078 10.4727273,32.4624623 10.4727273,30.9208769 C10.4727273,30.4937891 10.5686774,30.0890431 10.7403304,29.7270857 L12.3042577,25.7480478 C12.8346764,24.3985621 13.6942379,24.3975647 14.2249558,25.7480478 L15.7816021,29.7083345 C15.9642123,30.0864313 16.0587732,30.500992 16.0581846,30.9208769 L16.0581846,30.9208769 Z" id="Path" fill="#FFFFFF"></path>
                <path d="M23.8379221,27.8275325 L25.8319294,26.6389278 C26.2137351,26.416507 26.7020634,26.5485631 26.9224894,26.93376 C27.1429153,27.3188571 27.0121558,27.8114743 26.6302504,28.0338951 L24.6358442,29.2238961 L26.6302504,30.4139969 C27.0121558,30.6364177 27.1429153,31.1289351 26.9224894,31.5141319 C26.7020634,31.8992291 26.2137351,32.0312852 25.8319294,31.8088644 L23.8379221,30.6202597 L23.8379221,32.9230629 C23.8379221,33.3589278 23.4806525,33.7122078 23.04,33.7122078 C22.5993475,33.7122078 22.2420779,33.3589278 22.2420779,32.9230629 L22.2420779,30.6202597 L20.1483304,31.8088644 C19.7665247,32.0312852 19.2781964,31.8992291 19.0577704,31.5140322 C18.8373444,31.1289351 18.9681039,30.6363179 19.3500094,30.4138971 L21.3444156,29.2238961 L19.3500094,28.0337953 C18.9681039,27.8113745 18.8373444,27.3188571 19.0577704,26.9336603 C19.2781964,26.5485631 19.7665247,26.416507 20.1483304,26.6389278 L22.2420779,27.8275325 L22.2420779,25.5247294 C22.2420779,25.0888644 22.5993475,24.7355844 23.04,24.7355844 C23.4806525,24.7355844 23.8379221,25.0888644 23.8379221,25.5247294 L23.8379221,27.8275325 Z" id="Path" fill="#FFFFFF"></path>
            </g>
        </g>
    </g>
</svg>