<?xml version="1.0" encoding="UTF-8"?>
<svg width="40px" height="40px" viewBox="0 0 40 40" version="1.1" xmlns="http://www.w3.org/2000/svg" xmlns:xlink="http://www.w3.org/1999/xlink">
    <title>142</title>
    <g id="Page-1" stroke="none" stroke-width="1" fill="none" fill-rule="evenodd">
        <g id="icons-night" transform="translate(-1194.000000, -6.000000)" fill-rule="nonzero">
            <g id="142" transform="translate(1196.000000, 11.000000)">
                <path d="M6.48311688,-1.42108547e-14 C8.93746523,-1.42108547e-14 11.0732337,1.36378252 12.1739756,3.37490093 C10.3450064,4.91579088 9.12160498,7.15142258 8.90969766,9.67480519 L8.90969766,9.67480519 L8.37848104,9.67480519 C6.33728496,9.67480519 4.52756557,10.6631654 3.40140183,12.1872963 C1.3755217,11.0915727 1.56319402e-13,8.94800587 1.56319402e-13,6.48311688 C1.56319402e-13,2.9025413 2.9025413,-1.42108547e-14 6.48311688,-1.42108547e-14 Z" id="Combined-Shape" fill="#BEE4F8"></path>
                <path d="M18.1398608,2.69298701 C21.4578203,2.69298701 24.3765195,4.79212052 25.464586,7.86920727 L25.464586,7.86920727 L25.8790068,9.04095584 L27.1068094,8.84845714 C27.4088229,8.80108052 27.7161226,8.77714286 28.027013,8.77714286 C31.2770494,8.77714286 33.9116883,11.4117818 33.9116883,14.6618182 C33.9116883,17.9118545 31.2770494,20.5464935 28.027013,20.5464935 L28.027013,20.5464935 L8.37848104,20.5464935 C5.78892468,20.5464935 3.69038961,18.4481579 3.69038961,15.8587013 C3.69038961,13.2694442 5.78882494,11.1709091 8.37848104,11.1709091 L8.37848104,11.1709091 L10.2854151,11.1709091 L10.4006151,9.79997922 C10.7367397,5.79720312 14.0960914,2.69298701 18.139761,2.69298701 Z" id="Combined-Shape" fill="#FFFFFF"></path>
                <g id="Group" transform="translate(3.989610, 24.536104)" fill="#FFFFFF">
                    <path d="M11.3703924,6.18529247 C11.3703924,7.72687792 10.1200457,8.97662338 8.57766234,8.97662338 C7.03527896,8.97662338 5.78493506,7.72687792 5.78493506,6.18529247 C5.78493506,5.75820468 5.88088519,5.3534587 6.05253818,4.9915013 L7.61646545,1.01246338 C8.14688416,-0.337022338 9.00644571,-0.33801974 9.53716364,1.01246338 L11.0938099,4.97275013 C11.2764201,5.35084691 11.370981,5.76540758 11.3703924,6.18529247 L11.3703924,6.18529247 Z M3.79013099,4.12356156 C3.79013099,5.15128519 2.94163948,5.98441558 1.89506494,5.98441558 C0.84849039,5.98441558 0,5.15128519 0,4.12356156 C0,3.83880312 0.0651303896,3.56900571 0.181527273,3.32763429 L1.24286338,0.674942338 C1.60272623,-0.224714805 2.18600727,-0.225313247 2.54616935,0.674942338 L3.6024187,3.31516675 C3.72621146,3.5666508 3.79044084,3.84326033 3.79013099,4.12356156 Z" id="Shape"></path>
                    <path d="M27.1958774,2.06133195 L28.5252156,1.26889558 C28.7797527,1.12068156 29.1053049,1.20865247 29.2523221,1.4653839 C29.3992395,1.72221506 29.3119668,2.05056 29.0574296,2.19887377 L27.7277922,2.99220779 L29.0573299,3.78554182 C29.3119668,3.93385558 29.3992395,4.26220052 29.2522223,4.51903169 C29.1053049,4.77576312 28.7797527,4.86373403 28.5251158,4.71552 L27.1958774,3.92308364 L27.1958774,5.45828571 C27.1958774,5.74882909 26.9576977,5.98441558 26.6638629,5.98441558 C26.3701278,5.98441558 26.1319481,5.74882909 26.1319481,5.45828571 L26.1319481,3.92308364 L24.7360831,4.71552 C24.481546,4.86373403 24.1559938,4.77576312 24.0089766,4.51903169 C23.8620592,4.26220052 23.9493319,3.93385558 24.2038691,3.78554182 L25.5335065,2.99220779 L24.2039688,2.19887377 C23.9493319,2.05056 23.8620592,1.72221506 24.0090764,1.4653839 C24.1559938,1.20865247 24.481546,1.12068156 24.7361829,1.26889558 L26.1319481,2.06133195 L26.1319481,0.52612987 C26.1319481,0.235586494 26.3701278,0 26.6638629,0 C26.9576977,0 27.1958774,0.235586494 27.1958774,0.52612987 L27.1958774,2.06133195 L27.1958774,2.06133195 Z M18.7511688,3.09194805 L20.7451761,1.90334338 C21.1269818,1.6809226 21.6153101,1.8129787 21.8357361,2.19817558 C22.0561621,2.58327273 21.9254026,3.07588987 21.5434971,3.29831065 L19.5490909,4.48831169 L21.5434971,5.67841247 C21.9254026,5.90083325 22.0561621,6.39335065 21.8357361,6.77854753 C21.6153101,7.16364468 21.1269818,7.29570078 20.7451761,7.07328 L18.7511688,5.88467532 L18.7511688,8.18747844 C18.7511688,8.62334338 18.3938992,8.97662338 17.9532468,8.97662338 C17.5125943,8.97662338 17.1553247,8.62334338 17.1553247,8.18747844 L17.1553247,5.88467532 L15.0615771,7.07328 C14.6797714,7.29570078 14.1914431,7.16364468 13.9710171,6.77844779 C13.7505912,6.39335065 13.8813506,5.90073351 14.2632561,5.67831273 L16.2576623,4.48831169 L14.2632561,3.29821091 C13.8813506,3.07579013 13.7505912,2.58327273 13.9710171,2.19807584 C14.1914431,1.8129787 14.6797714,1.6809226 15.0615771,1.90334338 L17.1553247,3.09194805 L17.1553247,0.789144935 C17.1553247,0.35328 17.5125943,0 17.9532468,0 C18.3938992,0 18.7511688,0.35328 18.7511688,0.789144935 L18.7511688,3.09194805 Z" id="Shape"></path>
                </g>
            </g>
        </g>
    </g>
</svg>