<?xml version="1.0" encoding="UTF-8"?>
<svg width="40px" height="40px" viewBox="0 0 40 40" version="1.1" xmlns="http://www.w3.org/2000/svg" xmlns:xlink="http://www.w3.org/1999/xlink">
    <title>143</title>
    <g id="Page-1" stroke="none" stroke-width="1" fill="none" fill-rule="evenodd">
        <g id="icons-night" transform="translate(-1285.000000, -6.000000)" fill-rule="nonzero">
            <g id="143" transform="translate(1287.000000, 11.000000)">
                <path d="M6.48311688,-1.42108547e-14 C8.93746523,-1.42108547e-14 11.0732337,1.36378252 12.1739756,3.37490093 C10.3450064,4.91579088 9.12160498,7.15142258 8.90969766,9.67480519 L8.90969766,9.67480519 L8.37848104,9.67480519 C6.33728496,9.67480519 4.52756557,10.6631654 3.40140183,12.1872963 C1.3755217,11.0915727 1.56319402e-13,8.94800587 1.56319402e-13,6.48311688 C1.56319402e-13,2.9025413 2.9025413,-1.42108547e-14 6.48311688,-1.42108547e-14 Z" id="Combined-Shape" fill="#BEE4F8"></path>
                <path d="M18.1398608,2.69298701 C21.4578203,2.69298701 24.3765195,4.79212052 25.464586,7.86920727 L25.464586,7.86920727 L25.8790068,9.04095584 L27.1068094,8.84845714 C27.4088229,8.80108052 27.7161226,8.77714286 28.027013,8.77714286 C31.2770494,8.77714286 33.9116883,11.4117818 33.9116883,14.6618182 C33.9116883,17.8003449 31.4491013,20.3793288 28.2763636,20.5365195 C28.2298679,20.5365195 28.1843629,20.5407615 28.1402146,20.5488796 L28.1402146,20.5488796 L27.0311106,20.5506462 C27.0508883,20.1465749 26.9592348,19.7323056 26.7436558,19.3559269 C26.4425358,18.8302023 25.95778,18.4784551 25.4189228,18.3328726 L25.4189228,18.3328726 L25.23646,18.2918331 C24.9295165,18.2364294 24.6098466,18.2464098 24.2994781,18.3278755 L24.2994781,18.3278755 L24.283,18.332 L24.267917,18.2603409 C24.1668075,17.8909383 23.9716176,17.5609006 23.7104648,17.2976866 C23.3144768,16.8985732 22.767132,16.6527273 22.1630836,16.6527273 C21.559095,16.6527273 21.0117153,16.8985779 20.6157016,17.2977755 L20.6157016,17.2977755 L20.4907751,17.4348179 C20.2921569,17.6720783 20.142587,17.9525615 20.0583403,18.2603781 L20.0583403,18.2603781 L20.039,18.344 L19.9851971,18.3278706 C19.6127637,18.2301108 19.2269562,18.2352966 18.8658022,18.3328693 C18.3271094,18.4784074 17.8424084,18.8300111 17.5411897,19.3556297 C17.325528,19.7322669 17.2338668,20.1464324 17.2535511,20.5503009 L17.2535511,20.5503009 L17.1242857,20.5498831 L16.315341,18.5018393 L16.2255057,18.2897902 C16.0405905,17.8824629 15.8259628,17.5749016 15.6132225,17.3516162 C15.1179456,16.8317896 14.5714227,16.6527397 14.0627029,16.6527397 C13.5539116,16.6527397 13.0073731,16.8318809 12.5121662,17.3516043 C12.2638912,17.6121709 12.0131036,17.9874474 11.8100141,18.501844 L11.8100141,18.501844 L11.0002857,20.5498831 L9.10428571,20.5498831 L9.07636364,20.5464935 L8.37848104,20.5464935 C5.78892468,20.5464935 3.69038961,18.4481579 3.69038961,15.8587013 C3.69038961,13.2694442 5.78882494,11.1709091 8.37848104,11.1709091 L8.37848104,11.1709091 L10.2854151,11.1709091 L10.4006151,9.79997922 C10.7367397,5.79720312 14.0960914,2.69298701 18.1398608,2.69298701 Z" id="Combined-Shape" fill="#FFFFFF"></path>
                <g id="Group" transform="translate(6.882078, 18.152727)" fill="#FFFFFF">
                    <path d="M21.2747969,9.92265974 L20.5198629,10.3584249 C20.340104,10.4633139 20.1179578,10.4639807 19.9375725,10.3601728 C19.7571872,10.256365 19.6461504,10.0639586 19.6465227,9.85583649 C19.6468949,9.6477144 19.7586191,9.45570641 19.9393745,9.35254442 L20.6814421,8.92416 L19.9393745,8.49577558 C19.7567679,8.39354997 19.6432918,8.2009755 19.6423407,7.99170445 C19.6414014,7.78243339 19.7531332,7.58884171 19.934809,7.48497072 C20.1164847,7.38109972 20.3399977,7.38301912 20.5198629,7.48999481 L21.2748966,7.92566026 L21.2748966,7.06380468 C21.272154,6.85454918 21.3822192,6.66000476 21.5629965,6.55457728 C21.7437738,6.44914979 21.9672953,6.44914979 22.1480726,6.55457728 C22.3288499,6.66000476 22.4389151,6.85454918 22.4361725,7.06380468 L22.4361725,7.9113974 L23.1662712,7.48999481 C23.3460799,7.38396686 23.5689622,7.3826067 23.7500516,7.48643223 C23.931141,7.59025777 24.0425699,7.78329135 24.0419126,7.99203206 C24.0412495,8.20077277 23.9286018,8.39309763 23.7468592,8.49577558 L23.0047917,8.92416 L23.7468592,9.35254442 C23.9276147,9.45570641 24.0393389,9.6477144 24.0397111,9.85583649 C24.0400833,10.0639586 23.9290466,10.256365 23.7486613,10.3601728 C23.568276,10.4639807 23.3461298,10.4633139 23.1663709,10.3584249 L22.4361725,9.9369226 L22.4361725,10.7897018 C22.4361725,11.1104068 22.1761897,11.3703896 21.8554847,11.3703896 C21.5347797,11.3703896 21.2747969,11.1104068 21.2747969,10.7897018 L21.2747969,9.92265974 L21.2747969,9.92265974 Z M14.5986826,5.04735584 L12.8927252,6.03977143 C12.5662753,6.22967688 12.1489621,6.11687065 11.9605527,5.78792727 C11.7721434,5.4589839 11.8840519,5.03837922 12.2105018,4.84847377 L13.9162597,3.89735065 L12.2105018,2.8881787 C11.8840519,2.69827325 11.7721434,2.27776831 11.9605527,1.94872519 C12.1490618,1.61978182 12.5662753,1.50697558 12.8927252,1.69688104 L14.5986826,2.68929662 L14.5986826,0.687808831 C14.5986826,0.307898182 14.904187,5.66957736e-15 15.2810057,5.66957736e-15 C15.6579242,5.66957736e-15 15.9634286,0.307898182 15.9634286,0.687808831 L15.9634286,2.66515948 L17.6277943,1.69688104 C17.9542442,1.50697558 18.3715574,1.61978182 18.5599668,1.94872519 C18.7483761,2.27766857 18.6364675,2.69827325 18.3100177,2.88827844 L16.6457517,3.89735065 L18.3100177,4.84847377 C18.6364675,5.03837922 18.7483761,5.45888416 18.5599668,5.78802701 C18.3714577,6.11687065 17.9542442,6.22967688 17.6277943,6.03977143 L15.9634286,5.07149299 L15.9634286,6.99219117 C15.9634286,7.37210182 15.6579242,7.68 15.2810057,7.68 C14.904187,7.68 14.5986826,7.37210182 14.5986826,6.99219117 L14.5986826,5.0472561 L14.5986826,5.04735584 Z M14.6570306,14.1635158 L13.1015813,15.0657662 C12.9586518,15.1485961 12.7885929,15.1710108 12.6290827,15.1280441 C12.4695726,15.0850775 12.3337811,14.9802771 12.2517943,14.8368623 C12.0799418,14.5377413 12.1819761,14.1553371 12.479601,13.9827865 L14.0348509,13.1180384 L12.479601,12.2007273 C12.1819761,12.0280769 12.0799418,11.6456727 12.2516945,11.3466514 C12.3336648,11.2031926 12.469467,11.0983514 12.6290027,11.0553642 C12.7885385,11.012377 12.9586308,11.0347943 13.1015813,11.1176478 L14.6570306,12.0198982 L14.6570306,10.2004364 C14.6570306,9.85513558 14.9356052,9.57516468 15.2792104,9.57516468 C15.6228156,9.57516468 15.9013901,9.85513558 15.9013901,10.2004364 L15.9013901,11.9980551 L17.4189382,11.1177475 C17.5618798,11.0349259 17.7319478,11.0125263 17.8914595,11.0555121 C18.0509711,11.0984979 18.1867551,11.2033195 18.2687252,11.3467512 C18.4405777,11.6457725 18.3385434,12.0281766 18.0409184,12.200827 L16.5234701,13.1181382 L18.0409184,13.9828862 C18.3385434,14.1554369 18.4405777,14.537841 18.2688249,14.8369621 C18.1868379,14.980404 18.0510283,15.085224 17.891494,15.1281921 C17.7319597,15.1711602 17.5618766,15.1487277 17.4189382,15.065866 L15.9013901,14.1856582 L15.9013901,15.9317112 C15.9013901,16.2770119 15.6228156,16.5569829 15.2792104,16.5569829 C14.9356052,16.5569829 14.6570306,16.2770119 14.6570306,15.9317112 L14.6570306,14.1636156 L14.6570306,14.1635158 Z" id="Shape"></path>
                    <path d="M3.03369974,9.25649455 C3.13809825,9.47526392 3.1920868,9.71466772 3.1916905,9.95707013 C3.1916905,10.8477506 2.47724883,11.5698701 1.59584416,11.5698701 C0.714439481,11.5698701 0,10.8477506 0,9.95707013 C0,9.71031273 0.0548571429,9.47652156 0.152901818,9.26736623 L1.04657455,6.96835325 C1.34978494,6.18868364 1.84080623,6.18808519 2.14411636,6.96835325 L3.03369974,9.25649455 L3.03369974,9.25649455 Z M9.42794805,4.42028883 C9.5909139,4.75618042 9.67532966,5.12474477 9.67480762,5.49808208 C9.67480762,6.86831377 8.55841247,7.97922078 7.1812987,7.97922078 C5.80418494,7.97922078 4.68779221,6.86831377 4.68779221,5.49808208 C4.68779221,5.11837091 4.77356883,4.75860779 4.92667013,4.43684571 L6.32313351,0.899956364 C6.79670026,-0.29952 7.56410182,-0.300417662 8.03806753,0.899956364 L9.42794805,4.42028883 L9.42794805,4.42028883 Z M9.15835013,13.4427927 C9.30170581,13.73647 9.37601091,14.0590388 9.37558624,14.3858369 C9.37558624,15.5849143 8.39314286,16.5568831 7.1812987,16.5568831 C5.96945455,16.5568831 4.98701299,15.5849143 4.98701299,14.3858369 C4.98701299,14.0537018 5.06241662,13.7388218 5.19726545,13.4572551 L6.42606545,10.3625143 C6.84288,9.31304727 7.5182213,9.31224935 7.93513558,10.3625143 L9.15835013,13.4427927 L9.15835013,13.4427927 Z" id="Shape"></path>
                </g>
            </g>
        </g>
    </g>
</svg>