<?xml version="1.0" encoding="UTF-8"?>
<svg width="40px" height="40px" viewBox="0 0 40 40" version="1.1" xmlns="http://www.w3.org/2000/svg" xmlns:xlink="http://www.w3.org/1999/xlink">
    <title>144</title>
    <g id="Page-1" stroke="none" stroke-width="1" fill="none" fill-rule="evenodd">
        <g id="icons-night" transform="translate(-1376.000000, -6.000000)" fill-rule="nonzero">
            <g id="144" transform="translate(1377.398961, 13.396364)">
                <path d="M6.48311688,0 C7.60342217,0 8.65735029,0.28414858 9.57676402,0.78430852 C7.75027743,2.32525347 6.52822983,4.55970479 6.31645091,7.08155844 L6.31645091,7.08155844 L5.78523429,7.08155844 C3.73949522,7.08155844 1.92626436,8.07432304 0.80064591,9.60423403 C0.289966462,8.67881302 0,7.61483307 0,6.48311688 C0,2.9025413 2.9025413,0 6.48311688,0 Z" id="Combined-Shape" fill="#BEE4F8"></path>
                <path d="M15.5465143,0.0997402597 C18.4072755,0.0997402597 20.9711487,1.66012198 22.3208755,4.06232774 C19.9580164,5.07104558 18.2538212,7.31658046 18.0291491,9.98120727 L18.0291491,9.98120727 L17.6207127,9.98120727 C14.9943522,9.98120727 12.8664935,12.1006878 12.8664935,14.715279 C12.8664935,15.9680941 13.3550176,17.1070477 14.1526853,17.9537024 L5.78523429,17.9532468 C3.19567792,17.9532468 1.09714286,15.8549112 1.09714286,13.2654545 C1.09714286,10.7481212 3.0806176,8.69462626 5.57060114,8.5824856 L5.78523429,8.57766234 L7.69216831,8.57766234 L7.80736831,7.20673247 C8.14349299,3.20395636 11.5028447,0.0997402597 15.5465143,0.0997402597 Z" id="Combined-Shape" fill="#FFFFFF"></path>
                <path d="M25.1249704,4.98701299 C27.5295086,4.98701299 29.6433039,6.50087065 30.4305538,8.71769766 L30.4305538,8.71769766 L30.845573,9.88645403 L32.0710816,9.69525195 C32.2858223,9.66173922 32.504453,9.64478338 32.7258764,9.64478338 C35.0347636,9.64478338 36.9038961,11.5060364 36.9038961,13.7990649 C36.9038961,16.091894 35.0347636,17.9532468 32.7258764,17.9532468 L32.7258764,17.9532468 L17.6207127,17.9532468 C15.8197029,17.9532468 14.3625974,16.5025247 14.3625974,14.715279 C14.3625974,12.928133 15.8194036,11.4773112 17.6207127,11.4773112 L17.6207127,11.4773112 L19.4042681,11.4773112 L19.5199668,10.10688 C19.762934,7.22488519 22.1949008,4.98701299 25.1249704,4.98701299 Z" id="Combined-Shape" fill="#FFFFFF"></path>
                <path d="M15.8587041,28.3276301 C15.8587041,29.8692156 14.6083574,31.118961 13.065974,31.118961 C11.5235906,31.118961 10.2732468,29.8692156 10.2732468,28.3276301 C10.2732468,27.9005423 10.3691969,27.4957964 10.5408499,27.133839 L12.1047771,23.154801 C12.6351958,21.8053153 13.4947574,21.8043179 14.0254753,23.154801 L15.5821216,27.1150878 C15.7647318,27.4931846 15.8592927,27.9077452 15.8587041,28.3276301 L15.8587041,28.3276301 Z" id="Path" fill="#FFFFFF"></path>
                <path d="M23.6384416,25.2342857 L25.6324488,24.045681 C26.0142545,23.8232603 26.5025829,23.9553164 26.7230088,24.3405132 C26.9434348,24.7256104 26.8126753,25.2182275 26.4307699,25.4406483 L24.4363636,26.6306494 L26.4307699,27.8207501 C26.8126753,28.0431709 26.9434348,28.5356883 26.7230088,28.9208852 C26.5025829,29.3059823 26.0142545,29.4380384 25.6324488,29.2156177 L23.6384416,28.027013 L23.6384416,30.3298161 C23.6384416,30.765681 23.2811719,31.118961 22.8405195,31.118961 C22.399867,31.118961 22.0425974,30.765681 22.0425974,30.3298161 L22.0425974,28.027013 L19.9488499,29.2156177 C19.5670442,29.4380384 19.0787158,29.3059823 18.8582899,28.9207855 C18.6378639,28.5356883 18.7686234,28.0430712 19.1505288,27.8206504 L21.1449351,26.6306494 L19.1505288,25.4405486 C18.7686234,25.2181278 18.6378639,24.7256104 18.8582899,24.3404135 C19.0787158,23.9553164 19.5670442,23.8232603 19.9488499,24.045681 L22.0425974,25.2342857 L22.0425974,22.9314826 C22.0425974,22.4956177 22.399867,22.1423377 22.8405195,22.1423377 C23.2811719,22.1423377 23.6384416,22.4956177 23.6384416,22.9314826 L23.6384416,25.2342857 Z" id="Path" fill="#FFFFFF"></path>
            </g>
        </g>
    </g>
</svg>