<?xml version="1.0" encoding="UTF-8"?>
<svg width="40px" height="40px" viewBox="0 0 40 40" version="1.1" xmlns="http://www.w3.org/2000/svg" xmlns:xlink="http://www.w3.org/1999/xlink">
    <title>145</title>
    <g id="Page-1" stroke="none" stroke-width="1" fill="none" fill-rule="evenodd">
        <g id="icons-night" transform="translate(-1465.000000, -6.000000)" fill-rule="nonzero">
            <g id="145" transform="translate(1465.398961, 13.396364)">
                <path d="M6.48311688,0 C7.60342217,0 8.65735029,0.28414858 9.57676402,0.78430852 C7.75027743,2.32525347 6.52822983,4.55970479 6.31645091,7.08155844 L6.31645091,7.08155844 L5.78523429,7.08155844 C3.73949522,7.08155844 1.92626436,8.07432304 0.80064591,9.60423403 C0.289966462,8.67881302 0,7.61483307 0,6.48311688 C0,2.9025413 2.9025413,0 6.48311688,0 Z" id="Combined-Shape" fill="#BEE4F8"></path>
                <path d="M15.5465143,0.0997402597 C18.4072755,0.0997402597 20.9711487,1.66012198 22.3208755,4.06232774 C19.9580164,5.07104558 18.2538212,7.31658046 18.0291491,9.98120727 L18.0291491,9.98120727 L17.6207127,9.98120727 C14.9943522,9.98120727 12.8664935,12.1006878 12.8664935,14.715279 C12.8664935,15.9680941 13.3550176,17.1070477 14.1526853,17.9537024 L5.78523429,17.9532468 C3.19567792,17.9532468 1.09714286,15.8549112 1.09714286,13.2654545 C1.09714286,10.7481212 3.0806176,8.69462626 5.57060114,8.5824856 L5.78523429,8.57766234 L7.69216831,8.57766234 L7.80736831,7.20673247 C8.14349299,3.20395636 11.5028447,0.0997402597 15.5465143,0.0997402597 Z" id="Combined-Shape" fill="#FFFFFF"></path>
                <path d="M25.1249704,4.98701299 C27.5295086,4.98701299 29.6433039,6.50087065 30.4305538,8.71769766 L30.4305538,8.71769766 L30.845573,9.88645403 L32.0710816,9.69525195 C32.2858223,9.66173922 32.504453,9.64478338 32.7258764,9.64478338 C35.0347636,9.64478338 36.9038961,11.5060364 36.9038961,13.7990649 C36.9038961,16.091894 35.0347636,17.9532468 32.7258764,17.9532468 L32.7258764,17.9532468 L17.6207127,17.9532468 C15.8197029,17.9532468 14.3625974,16.5025247 14.3625974,14.715279 C14.3625974,12.928133 15.8194036,11.4773112 17.6207127,11.4773112 L17.6207127,11.4773112 L19.4042681,11.4773112 L19.5199668,10.10688 C19.762934,7.22488519 22.1949008,4.98701299 25.1249704,4.98701299 Z" id="Combined-Shape" fill="#FFFFFF"></path>
                <path d="M15.1605222,28.1281496 C15.1605222,29.6697351 13.9101756,30.9194805 12.3677922,30.9194805 C10.8254088,30.9194805 9.57506494,29.6697351 9.57506494,28.1281496 C9.57506494,27.7010618 9.67101506,27.2963158 9.84266805,26.9343584 L11.4065953,22.9553205 C11.937014,21.6058348 12.7965756,21.6048374 13.3272935,22.9553205 L14.8839397,26.9156073 C15.06655,27.2937041 15.1611108,27.7082647 15.1605222,28.1281496 L15.1605222,28.1281496 Z M7.58026086,26.0664187 C7.58026086,27.0941423 6.73176935,27.9272727 5.68519481,27.9272727 C4.63862026,27.9272727 3.79012987,27.0941423 3.79012987,26.0664187 C3.79012987,25.7816603 3.85526026,25.5118629 3.97165714,25.2704914 L5.03299325,22.6177995 C5.3928561,21.7181423 5.97613714,21.7175439 6.33629922,22.6177995 L7.39254857,25.2580239 C7.51634133,25.5095079 7.58057071,25.7861175 7.58026086,26.0664187 Z" id="Shape" fill="#FFFFFF"></path>
                <path d="M30.9860073,24.0041891 L32.3153455,23.2117527 C32.5698826,23.0635387 32.8954348,23.1515096 33.0424519,23.408241 C33.1893694,23.6650722 33.1020966,23.9934171 32.8475595,24.1417309 L31.5179221,24.9350649 L32.8474597,25.728399 C33.1020966,25.8767127 33.1893694,26.2050577 33.0423522,26.4618888 C32.8954348,26.7186203 32.5698826,26.8065912 32.3152457,26.6583771 L30.9860073,25.8659408 L30.9860073,27.4011429 C30.9860073,27.6916862 30.7478275,27.9272727 30.4539927,27.9272727 C30.1602577,27.9272727 29.9220779,27.6916862 29.9220779,27.4011429 L29.9220779,25.8659408 L28.526213,26.6583771 C28.2716758,26.8065912 27.9461236,26.7186203 27.7991065,26.4618888 C27.6521891,26.2050577 27.7394618,25.8767127 27.993999,25.728399 L29.3236364,24.9350649 L27.9940987,24.1417309 C27.7394618,23.9934171 27.6521891,23.6650722 27.7992062,23.408241 C27.9461236,23.1515096 28.2716758,23.0635387 28.5263127,23.2117527 L29.9220779,24.0041891 L29.9220779,22.468987 C29.9220779,22.1784436 30.1602577,21.9428571 30.4539927,21.9428571 C30.7478275,21.9428571 30.9860073,22.1784436 30.9860073,22.468987 L30.9860073,24.0041891 L30.9860073,24.0041891 Z M22.5412987,25.0348052 L24.535306,23.8462005 C24.9171117,23.6237797 25.40544,23.7558358 25.625866,24.1410327 C25.8462919,24.5261299 25.7155325,25.018747 25.333627,25.2411678 L23.3392208,26.4311688 L25.333627,27.6212696 C25.7155325,27.8436904 25.8462919,28.3362078 25.625866,28.7214047 C25.40544,29.1065018 24.9171117,29.2385579 24.535306,29.0161371 L22.5412987,27.8275325 L22.5412987,30.1303356 C22.5412987,30.5662005 22.1840291,30.9194805 21.7433766,30.9194805 C21.3027242,30.9194805 20.9454545,30.5662005 20.9454545,30.1303356 L20.9454545,27.8275325 L18.851707,29.0161371 C18.4699013,29.2385579 17.981573,29.1065018 17.761147,28.7213049 C17.540721,28.3362078 17.6714805,27.8435906 18.053386,27.6211699 L20.0477922,26.4311688 L18.053386,25.2410681 C17.6714805,25.0186473 17.540721,24.5261299 17.761147,24.140933 C17.981573,23.7558358 18.4699013,23.6237797 18.851707,23.8462005 L20.9454545,25.0348052 L20.9454545,22.7320021 C20.9454545,22.2961371 21.3027242,21.9428571 21.7433766,21.9428571 C22.1840291,21.9428571 22.5412987,22.2961371 22.5412987,22.7320021 L22.5412987,25.0348052 Z" id="Shape" fill="#FFFFFF"></path>
            </g>
        </g>
    </g>
</svg>