<?xml version="1.0" encoding="UTF-8"?>
<svg width="40px" height="40px" viewBox="0 0 40 40" version="1.1" xmlns="http://www.w3.org/2000/svg" xmlns:xlink="http://www.w3.org/1999/xlink">
    <title>146</title>
    <g id="Page-1" stroke="none" stroke-width="1" fill="none" fill-rule="evenodd">
        <g id="icons-night" transform="translate(-1556.000000, -6.000000)" fill-rule="nonzero">
            <g id="146" transform="translate(1557.398961, 13.396364)">
                <path d="M6.48311688,0 C7.60342217,0 8.65735029,0.28414858 9.57676402,0.78430852 C7.75027743,2.32525347 6.52822983,4.55970479 6.31645091,7.08155844 L6.31645091,7.08155844 L5.78523429,7.08155844 C3.73949522,7.08155844 1.92626436,8.07432304 0.80064591,9.60423403 C0.289966462,8.67881302 0,7.61483307 0,6.48311688 C0,2.9025413 2.9025413,0 6.48311688,0 Z" id="Combined-Shape" fill="#BEE4F8"></path>
                <path d="M15.546614,0.0997402597 C18.3791952,0.0997402597 20.9207859,1.62963876 22.2795344,3.99281186 C19.9486656,4.86686189 18.2760333,6.83084016 18.052987,9.47532468 C15.85152,9.47532468 13.7641558,11.2706494 13.2654545,13.065974 L13.2654545,13.065974 L13.2797413,13.069349 C13.2703689,13.1166422 13.2654545,13.1655394 13.2654545,13.2155844 C13.2654545,13.6287221 13.6003688,13.9636364 14.0135065,13.9636364 C14.3928911,13.9636364 14.7063118,13.6812112 14.7548595,13.3153123 C15.1828306,12.1107921 16.6917097,10.9714286 18.052987,10.9714286 L18.052987,10.9714286 L19.4282057,10.9714286 L19.5438047,9.6009974 C19.7747034,6.86272831 22.0541673,4.98701299 25.1345455,4.98701299 C27.5364904,4.98701299 29.6424062,6.4982774 30.4305538,8.71769766 L30.4305538,8.71769766 L30.845573,9.88645403 L32.0710816,9.69525195 C32.2858223,9.66173922 32.504453,9.64478338 32.7258764,9.64478338 C35.0347636,9.64478338 36.9038961,11.5060364 36.9038961,13.7990649 C36.9038961,16.091894 35.0347636,17.9532468 32.7258764,17.9532468 L32.7258764,17.9532468 L26.8342515,17.9532698 C26.8348237,17.5824837 26.7413166,17.2066089 26.5441753,16.8624204 C26.2430553,16.3366958 25.7582995,15.9849486 25.2194423,15.8393661 L25.2194423,15.8393661 L25.0369795,15.7983266 C24.7300359,15.7429229 24.4103661,15.7529033 24.0999976,15.834369 L24.0999976,15.834369 L24.084039,15.8386364 L24.0684365,15.7668344 C23.9673269,15.3974318 23.7721371,15.0673941 23.5109843,14.8041801 C23.1149962,14.4050668 22.5676515,14.1592208 21.9636031,14.1592208 C21.3596144,14.1592208 20.8122347,14.4050714 20.416221,14.804269 L20.416221,14.804269 L20.2912946,14.9413114 C20.0926764,15.1785718 19.9431065,15.459055 19.8588598,15.7668716 L19.8588598,15.7668716 L19.839039,15.8506364 L19.7857166,15.8343641 C19.4132832,15.7366044 19.0274757,15.7417901 18.6663217,15.8393628 C18.1276289,15.9849009 17.6429279,16.3365046 17.3417092,16.8621233 C17.1444111,17.2066897 17.0508953,17.5826655 17.051472,17.9534315 L17.051472,17.9534315 L16.883039,17.9526364 L16.1158605,16.0083328 L16.0260252,15.7962837 C15.84111,15.3889564 15.6264823,15.0813951 15.4137419,14.8581097 C14.9184651,14.3382832 14.3719421,14.1592332 13.8632224,14.1592332 C13.354431,14.1592332 12.8078926,14.3383744 12.3126857,14.8580979 C12.0644107,15.1186644 11.8136231,15.4939409 11.6105335,16.0083375 L11.6105335,16.0083375 L10.842039,17.9526364 L5.78523429,17.9532468 C3.19567792,17.9532468 1.09714286,15.8549112 1.09714286,13.2654545 C1.09714286,10.6761974 3.19557818,8.57766234 5.78523429,8.57766234 L5.78523429,8.57766234 L7.69216831,8.57766234 L7.80736831,7.20673247 C8.14349299,3.20395636 11.5028447,0.0997402597 15.546614,0.0997402597 Z" id="Combined-Shape" fill="#FFFFFF"></path>
                <path d="M27.9573943,25.4821403 L27.2024603,25.9179055 C27.0227014,26.0227944 26.8005552,26.0234612 26.6201699,25.9196533 C26.4397846,25.8158455 26.3287479,25.6234391 26.3291201,25.415317 C26.3294923,25.2071949 26.4412165,25.0151869 26.6219719,24.9120249 L27.3640395,24.4836405 L26.6219719,24.0552561 C26.4393653,23.9530305 26.3258892,23.760456 26.3249381,23.551185 C26.3239988,23.3419139 26.4357306,23.1483222 26.6174064,23.0444512 C26.7990821,22.9405802 27.0225951,22.9424996 27.2024603,23.0494753 L27.957494,23.4851408 L27.957494,22.6232852 C27.9547514,22.4140297 28.0648166,22.2194853 28.2455939,22.1140578 C28.4263712,22.0086303 28.6498927,22.0086303 28.83067,22.1140578 C29.0114473,22.2194853 29.1215125,22.4140297 29.1187699,22.6232852 L29.1187699,23.4708779 L29.8488686,23.0494753 C30.0286773,22.9434474 30.2515596,22.9420872 30.432649,23.0459128 C30.6137384,23.1497383 30.7251673,23.3427719 30.72451,23.5515126 C30.7238469,23.7602533 30.6111992,23.9525782 30.4294566,24.0552561 L29.6873891,24.4836405 L30.4294566,24.9120249 C30.6102121,25.0151869 30.7219363,25.2071949 30.7223085,25.415317 C30.7226807,25.6234391 30.611644,25.8158455 30.4312587,25.9196533 C30.2508734,26.0234612 30.0287272,26.0227944 29.8489683,25.9179055 L29.1187699,25.4964031 L29.1187699,26.3491823 C29.1187699,26.6698873 28.8587871,26.9298701 28.5380821,26.9298701 C28.2173771,26.9298701 27.9573943,26.6698873 27.9573943,26.3491823 L27.9573943,25.4821403 L27.9573943,25.4821403 Z M21.28128,20.7065766 L19.5753226,21.6989922 C19.2488727,21.8888977 18.8315595,21.7760914 18.6431501,21.4471481 C18.4547408,21.1182047 18.5666494,20.6976 18.8930992,20.5076945 L20.5988571,19.5565714 L18.8930992,18.5473995 C18.5666494,18.357494 18.4547408,17.9369891 18.6431501,17.607946 C18.8316592,17.2790026 19.2488727,17.1661964 19.5753226,17.3561018 L21.28128,18.3485174 L21.28128,16.3470296 C21.28128,15.967119 21.5867844,15.6592208 21.9636031,15.6592208 C22.3405216,15.6592208 22.646026,15.967119 22.646026,16.3470296 L22.646026,18.3243803 L24.3103917,17.3561018 C24.6368416,17.1661964 25.0541548,17.2790026 25.2425642,17.607946 C25.4309735,17.9368894 25.3190649,18.357494 24.9926151,18.5474992 L23.3283491,19.5565714 L24.9926151,20.5076945 C25.3190649,20.6976 25.4309735,21.1181049 25.2425642,21.4472478 C25.0540551,21.7760914 24.6368416,21.8888977 24.3103917,21.6989922 L22.646026,20.7307138 L22.646026,22.6514119 C22.646026,23.0313226 22.3405216,23.3392208 21.9636031,23.3392208 C21.5867844,23.3392208 21.28128,23.0313226 21.28128,22.6514119 L21.28128,20.7064769 L21.28128,20.7065766 Z M21.3396281,29.7229964 L19.7841787,30.6252468 C19.6412492,30.7080766 19.4711903,30.7304913 19.3116801,30.6875247 C19.15217,30.644558 19.0163785,30.5397576 18.9343917,30.3963429 C18.7625392,30.0972218 18.8645735,29.7148177 19.1621984,29.542267 L20.7174483,28.677519 L19.1621984,27.7602078 C18.8645735,27.5875574 18.7625392,27.2051532 18.9342919,26.9061319 C19.0162622,26.7626731 19.1520644,26.6578319 19.3116001,26.6148447 C19.4711359,26.5718575 19.6412282,26.5942748 19.7841787,26.6771283 L21.3396281,27.5793787 L21.3396281,25.7599169 C21.3396281,25.4146161 21.6182026,25.1346452 21.9618078,25.1346452 C22.305413,25.1346452 22.5839875,25.4146161 22.5839875,25.7599169 L22.5839875,27.5575356 L24.1015356,26.6772281 C24.2444772,26.5944064 24.4145453,26.5720069 24.5740569,26.6149926 C24.7335685,26.6579784 24.8693525,26.7628 24.9513226,26.9062317 C25.1231751,27.205253 25.0211408,27.5876571 24.7235158,27.7603075 L23.2060675,28.6776187 L24.7235158,29.5423668 C25.0211408,29.7149174 25.1231751,30.0973216 24.9514223,30.3964426 C24.8694353,30.5398845 24.7336257,30.6447045 24.5740914,30.6876726 C24.4145571,30.7306407 24.244474,30.7082082 24.1015356,30.6253465 L22.5839875,29.7451387 L22.5839875,31.4911917 C22.5839875,31.8364925 22.305413,32.1164634 21.9618078,32.1164634 C21.6182026,32.1164634 21.3396281,31.8364925 21.3396281,31.4911917 L21.3396281,29.7230961 L21.3396281,29.7229964 Z" id="Shape" fill="#FFFFFF"></path>
                <path d="M9.71629714,24.8159751 C9.82069565,25.0347444 9.87468421,25.2741482 9.8742879,25.5165506 C9.8742879,26.4072312 9.15984623,27.1293506 8.27844156,27.1293506 C7.39703688,27.1293506 6.6825974,26.4072312 6.6825974,25.5165506 C6.6825974,25.2697932 6.73745455,25.0360021 6.83549922,24.8268468 L7.72917195,22.5278338 C8.03238234,21.7481642 8.52340364,21.7475657 8.82671377,22.5278338 L9.71629714,24.8159751 L9.71629714,24.8159751 Z M16.1105455,20.0795096 C16.2735113,20.4154012 16.3579271,20.7839655 16.357405,21.1573029 C16.357405,22.5275345 15.2410099,23.6384416 13.8638961,23.6384416 C12.4867823,23.6384416 11.3703896,22.5275345 11.3703896,21.1573029 C11.3703896,20.7775917 11.4561662,20.4178286 11.6092675,20.0960665 L13.0057309,16.5591771 C13.4792977,15.3597008 14.2466992,15.3588031 14.7206649,16.5591771 L16.1105455,20.0795096 L16.1105455,20.0795096 Z M15.8409475,29.0022732 C15.9843032,29.2959505 16.0586083,29.6185193 16.0581836,29.9453174 C16.0581836,31.1443948 15.0757403,32.1163636 13.8638961,32.1163636 C12.6520519,32.1163636 11.6696104,31.1443948 11.6696104,29.9453174 C11.6696104,29.6131823 11.745014,29.2983023 11.8798629,29.0167356 L13.1086629,25.9219948 C13.5254774,24.8725278 14.2008187,24.8717299 14.617733,25.9219948 L15.8409475,29.0022732 L15.8409475,29.0022732 Z" id="Shape" fill="#FFFFFF"></path>
            </g>
        </g>
    </g>
</svg>