<?xml version="1.0" encoding="UTF-8"?>
<svg width="40px" height="40px" viewBox="0 0 40 40" version="1.1" xmlns="http://www.w3.org/2000/svg" xmlns:xlink="http://www.w3.org/1999/xlink">
    <title>152</title>
    <g id="Page-1" stroke="none" stroke-width="1" fill="none" fill-rule="evenodd">
        <g id="icons-night" transform="translate(-1735.000000, -6.000000)" fill-rule="nonzero">
            <g id="152" transform="translate(1737.000000, 11.000000)">
                <path d="M6.48311688,-1.42108547e-14 C8.93746523,-1.42108547e-14 11.0732337,1.36378252 12.1739756,3.37490093 C10.3450064,4.91579088 9.12160498,7.15142258 8.90969766,9.67480519 L8.90969766,9.67480519 L8.37848104,9.67480519 C6.33728496,9.67480519 4.52756557,10.6631654 3.40140183,12.1872963 C1.3755217,11.0915727 1.56319402e-13,8.94800587 1.56319402e-13,6.48311688 C1.56319402e-13,2.9025413 2.9025413,-1.42108547e-14 6.48311688,-1.42108547e-14 Z" id="Combined-Shape" fill="#BEE4F8"></path>
                <path d="M18.1398608,2.69298701 C21.4578203,2.69298701 24.3765195,4.79212052 25.464586,7.86920727 L25.464586,7.86920727 L25.8790068,9.04095584 L27.1068094,8.84845714 C27.4088229,8.80108052 27.7161226,8.77714286 28.027013,8.77714286 C31.2770494,8.77714286 33.9116883,11.4117818 33.9116883,14.6618182 C33.9116883,17.9118545 31.2770494,20.5464935 28.027013,20.5464935 L28.027013,20.5464935 L8.37848104,20.5464935 C5.78892468,20.5464935 3.69038961,18.4481579 3.69038961,15.8587013 C3.69038961,13.2694442 5.78882494,11.1709091 8.37848104,11.1709091 L8.37848104,11.1709091 L10.2854151,11.1709091 L10.4006151,9.79997922 C10.7367397,5.79720312 14.0960914,2.69298701 18.139761,2.69298701 Z" id="Combined-Shape" fill="#FFFFFF"></path>
                <path d="M13.6644156,28.2264935 L16.132987,26.8307283 C16.4902625,26.6294576 16.9429789,26.7533404 17.1479968,27.1084788 C17.3530148,27.4636172 17.2339013,27.9176118 16.8809392,28.1263543 L14.4620384,29.5232166 L16.8809392,30.920079 C17.2326279,31.1293706 17.3508464,31.5824273 17.1462564,31.9368717 C16.9416664,32.2913161 16.4902241,32.415557 16.1330868,32.2157049 L13.6644156,30.8197403 L13.6644156,33.6623377 C13.6644156,34.0754753 13.3295013,34.4103896 12.9163636,34.4103896 C12.503226,34.4103896 12.1683117,34.0754753 12.1683117,33.6623377 L12.1683117,30.8197403 L9.79948052,32.2157049 C9.44220506,32.4169756 8.98948863,32.2930928 8.7844707,31.9379544 C8.57945277,31.582816 8.69856627,31.1288215 9.05152831,30.920079 L11.4704291,29.5232166 L9.05152831,28.1263543 C8.69983964,27.9170626 8.58162114,27.464006 8.78621115,27.1095615 C8.99080116,26.7551171 9.44224347,26.6308762 9.79938078,26.8307283 L12.1683117,28.2264935 L12.1683117,25.4836364 C12.1683117,25.0704987 12.503226,24.7355844 12.9163636,24.7355844 C13.3295013,24.7355844 13.6644156,25.0704987 13.6644156,25.4836364 L13.6644156,28.2264935 Z M25.334026,28.2264935 L27.8025974,26.8307283 C28.1598729,26.6294576 28.6125893,26.7533404 28.8176072,27.1084788 C29.0226252,27.4636172 28.9035117,27.9176118 28.5505496,28.1263543 L26.1316488,29.5232166 L28.5505496,30.920079 C28.9022383,31.1293706 29.0204568,31.5824273 28.8158668,31.9368717 C28.6112768,32.2913161 28.1598345,32.415557 27.8026971,32.2157049 L25.334026,30.8197403 L25.334026,33.6623377 C25.334026,34.0754753 24.9991117,34.4103896 24.585974,34.4103896 C24.1728363,34.4103896 23.8379221,34.0754753 23.8379221,33.6623377 L23.8379221,30.8197403 L21.4690909,32.2157049 C21.1118154,32.4169756 20.659099,32.2930928 20.4540811,31.9379544 C20.2490632,31.582816 20.3681767,31.1288215 20.7211387,30.920079 L23.1400395,29.5232166 L20.7211387,28.1263543 C20.36945,27.9170626 20.2512315,27.464006 20.4558215,27.1095615 C20.6604116,26.7551171 21.1118539,26.6308762 21.4689912,26.8307283 L23.8379221,28.2264935 L23.8379221,25.4836364 C23.8379221,25.0704987 24.1728363,24.7355844 24.585974,24.7355844 C24.9991117,24.7355844 25.334026,25.0704987 25.334026,25.4836364 L25.334026,28.2264935 Z" id="Shape" fill="#FFFFFF"></path>
            </g>
        </g>
    </g>
</svg>