<?xml version="1.0" encoding="UTF-8"?>
<svg width="40px" height="40px" viewBox="0 0 40 40" version="1.1" xmlns="http://www.w3.org/2000/svg" xmlns:xlink="http://www.w3.org/1999/xlink">
    <title>153</title>
    <g id="Page-1" stroke="none" stroke-width="1" fill="none" fill-rule="evenodd">
        <g id="icons-night" transform="translate(-1825.000000, -6.000000)" fill-rule="nonzero">
            <g id="153" transform="translate(1827.000000, 11.000000)">
                <path d="M6.48311688,-1.42108547e-14 C8.93746523,-1.42108547e-14 11.0732337,1.36378252 12.1739756,3.37490093 C10.3450064,4.91579088 9.12160498,7.15142258 8.90969766,9.67480519 L8.90969766,9.67480519 L8.37848104,9.67480519 C6.33728496,9.67480519 4.52756557,10.6631654 3.40140183,12.1872963 C1.3755217,11.0915727 1.56319402e-13,8.94800587 1.56319402e-13,6.48311688 C1.56319402e-13,2.9025413 2.9025413,-1.42108547e-14 6.48311688,-1.42108547e-14 Z" id="Combined-Shape" fill="#BEE4F8"></path>
                <path d="M18.1398608,2.69298701 C21.4578203,2.69298701 24.3765195,4.79212052 25.464586,7.86920727 L25.464586,7.86920727 L25.8790068,9.04095584 L27.1068094,8.84845714 C27.4088229,8.80108052 27.7161226,8.77714286 28.027013,8.77714286 C31.2770494,8.77714286 33.9116883,11.4117818 33.9116883,14.6618182 C33.9116883,17.9118545 31.2770494,20.5464935 28.027013,20.5464935 L28.027013,20.5464935 L8.37848104,20.5464935 C5.78892468,20.5464935 3.69038961,18.4481579 3.69038961,15.8587013 C3.69038961,13.2694442 5.78882494,11.1709091 8.37848104,11.1709091 L8.37848104,11.1709091 L10.2854151,11.1709091 L10.4006151,9.79997922 C10.7367397,5.79720312 14.0960914,2.69298701 18.139761,2.69298701 Z" id="Combined-Shape" fill="#FFFFFF"></path>
                <path d="M8.6774026,28.2264935 L11.145974,26.8307283 C11.5032495,26.6294576 11.9559659,26.7533404 12.1609838,27.1084788 C12.3660018,27.4636172 12.2468883,27.9176118 11.8939262,28.1263543 L9.47502545,29.5232166 L11.8939262,30.920079 C12.2456149,31.1293706 12.3638334,31.5824273 12.1592434,31.9368717 C11.9546534,32.2913161 11.5032111,32.415557 11.1460738,32.2157049 L8.6774026,30.8197403 L8.6774026,33.6623377 C8.6774026,34.0754753 8.34248833,34.4103896 7.92935065,34.4103896 C7.51621297,34.4103896 7.1812987,34.0754753 7.1812987,33.6623377 L7.1812987,30.8197403 L4.81246753,32.2157049 C4.45519207,32.4169756 4.00247564,32.2930928 3.79745771,31.9379544 C3.59243978,31.582816 3.71155328,31.1288215 4.06451532,30.920079 L6.4834161,29.5232166 L4.06451532,28.1263543 C3.71282665,27.9170626 3.59460815,27.464006 3.79919817,27.1095615 C4.00378818,26.7551171 4.45523048,26.6308762 4.81236779,26.8307283 L7.1812987,28.2264935 L7.1812987,25.4836364 C7.1812987,25.0704987 7.51621297,24.7355844 7.92935065,24.7355844 C8.34248833,24.7355844 8.6774026,25.0704987 8.6774026,25.4836364 L8.6774026,28.2264935 Z M19.4493506,28.2264935 L21.9179221,26.8307283 C22.2751975,26.6294576 22.727914,26.7533404 22.9329319,27.1084788 C23.1379498,27.4636172 23.0188363,27.9176118 22.6658743,28.1263543 L20.2469735,29.5232166 L22.6658743,30.920079 C23.017563,31.1293706 23.1357815,31.5824273 22.9311914,31.9368717 C22.7266014,32.2913161 22.2751591,32.415557 21.9180218,32.2157049 L19.4493506,30.8197403 L19.4493506,33.6623377 C19.4493506,34.0754753 19.1144364,34.4103896 18.7012987,34.4103896 C18.288161,34.4103896 17.9532468,34.0754753 17.9532468,33.6623377 L17.9532468,30.8197403 L15.5844156,32.2157049 C15.2271401,32.4169756 14.7744237,32.2930928 14.5694058,31.9379544 C14.3643878,31.582816 14.4835013,31.1288215 14.8364634,30.920079 L17.2553642,29.5232166 L14.8364634,28.1263543 C14.4847747,27.9170626 14.3665562,27.464006 14.5711462,27.1095615 C14.7757362,26.7551171 15.2271785,26.6308762 15.5843158,26.8307283 L17.9532468,28.2264935 L17.9532468,25.4836364 C17.9532468,25.0704987 18.288161,24.7355844 18.7012987,24.7355844 C19.1144364,24.7355844 19.4493506,25.0704987 19.4493506,25.4836364 L19.4493506,28.2264935 Z M30.2212987,28.2264935 L32.6898701,26.8307283 C33.0471456,26.6294576 33.499862,26.7533404 33.70488,27.1084788 C33.9098979,27.4636172 33.7907844,27.9176118 33.4378223,28.1263543 L31.0189216,29.5232166 L33.4378223,30.920079 C33.789511,31.1293706 33.9077295,31.5824273 33.7031395,31.9368717 C33.4985495,32.2913161 33.0471072,32.415557 32.6899699,32.2157049 L30.2212987,30.8197403 L30.2212987,33.6623377 C30.2212987,34.0754753 29.8863844,34.4103896 29.4732468,34.4103896 C29.0601091,34.4103896 28.7251948,34.0754753 28.7251948,33.6623377 L28.7251948,30.8197403 L26.3563636,32.2157049 C25.9990882,32.4169756 25.5463717,32.2930928 25.3413538,31.9379544 C25.1363359,31.582816 25.2554494,31.1288215 25.6084114,30.920079 L28.0273122,29.5232166 L25.6084114,28.1263543 C25.2567228,27.9170626 25.1385043,27.464006 25.3430943,27.1095615 C25.5476843,26.7551171 25.9991266,26.6308762 26.3562639,26.8307283 L28.7251948,28.2264935 L28.7251948,25.4836364 C28.7251948,25.0704987 29.0601091,24.7355844 29.4732468,24.7355844 C29.8863844,24.7355844 30.2212987,25.0704987 30.2212987,25.4836364 L30.2212987,28.2264935 Z" id="Shape" fill="#FFFFFF"></path>
            </g>
        </g>
    </g>
</svg>