<?xml version="1.0" encoding="UTF-8"?>
<svg width="40px" height="40px" viewBox="0 0 40 40" version="1.1" xmlns="http://www.w3.org/2000/svg" xmlns:xlink="http://www.w3.org/1999/xlink">
    <title>154</title>
    <g id="Page-1" stroke="none" stroke-width="1" fill="none" fill-rule="evenodd">
        <g id="icons-night" transform="translate(-1916.000000, -6.000000)" fill-rule="nonzero">
            <g id="154" transform="translate(1916.398961, 13.396364)">
                <path d="M6.48311688,0 C7.60342217,0 8.65735029,0.28414858 9.57676402,0.78430852 C7.75027743,2.32525347 6.52822983,4.55970479 6.31645091,7.08155844 L6.31645091,7.08155844 L5.78523429,7.08155844 C3.73949522,7.08155844 1.92626436,8.07432304 0.80064591,9.60423403 C0.289966462,8.67881302 0,7.61483307 0,6.48311688 C0,2.9025413 2.9025413,0 6.48311688,0 Z" id="Combined-Shape" fill="#BEE4F8"></path>
                <path d="M15.5465143,0.0997402597 C18.4072755,0.0997402597 20.9711487,1.66012198 22.3208755,4.06232774 C19.9580164,5.07104558 18.2538212,7.31658046 18.0291491,9.98120727 L18.0291491,9.98120727 L17.6207127,9.98120727 C14.9943522,9.98120727 12.8664935,12.1006878 12.8664935,14.715279 C12.8664935,15.9680941 13.3550176,17.1070477 14.1526853,17.9537024 L5.78523429,17.9532468 C3.19567792,17.9532468 1.09714286,15.8549112 1.09714286,13.2654545 C1.09714286,10.7481212 3.0806176,8.69462626 5.57060114,8.5824856 L5.78523429,8.57766234 L7.69216831,8.57766234 L7.80736831,7.20673247 C8.14349299,3.20395636 11.5028447,0.0997402597 15.5465143,0.0997402597 Z" id="Combined-Shape" fill="#FFFFFF"></path>
                <path d="M25.1249704,4.98701299 C27.5295086,4.98701299 29.6433039,6.50087065 30.4305538,8.71769766 L30.4305538,8.71769766 L30.845573,9.88645403 L32.0710816,9.69525195 C32.2858223,9.66173922 32.504453,9.64478338 32.7258764,9.64478338 C35.0347636,9.64478338 36.9038961,11.5060364 36.9038961,13.7990649 C36.9038961,16.091894 35.0347636,17.9532468 32.7258764,17.9532468 L32.7258764,17.9532468 L17.6207127,17.9532468 C15.8197029,17.9532468 14.3625974,16.5025247 14.3625974,14.715279 C14.3625974,12.928133 15.8194036,11.4773112 17.6207127,11.4773112 L17.6207127,11.4773112 L19.4042681,11.4773112 L19.5199668,10.10688 C19.762934,7.22488519 22.1949008,4.98701299 25.1249704,4.98701299 Z" id="Combined-Shape" fill="#FFFFFF"></path>
                <path d="M19.2498701,25.6332468 L21.7184416,24.2374816 C22.075717,24.0362109 22.5284335,24.1600936 22.7334514,24.515232 C22.9384693,24.8703705 22.8193558,25.324365 22.4663938,25.5331075 L20.047493,26.9299699 L22.4663938,28.3268322 C22.8180824,28.5361239 22.9363009,28.9891805 22.7317109,29.3436249 C22.5271209,29.6980694 22.0756786,29.8223103 21.7185413,29.6224582 L19.2498701,28.2264935 L19.2498701,31.0690909 C19.2498701,31.4822286 18.9149559,31.8171429 18.5018182,31.8171429 C18.0886805,31.8171429 17.7537662,31.4822286 17.7537662,31.0690909 L17.7537662,28.2264935 L15.3849351,29.6224582 C15.0276596,29.8237288 14.5749432,29.6998461 14.3699252,29.3447077 C14.1649073,28.9895693 14.2840208,28.5355747 14.6369829,28.3268322 L17.0558836,26.9299699 L14.6369829,25.5331075 C14.2852942,25.3238159 14.1670757,24.8707592 14.3716657,24.5163148 C14.5762557,24.1618704 15.027698,24.0376295 15.3848353,24.2374816 L17.7537662,25.6332468 L17.7537662,22.8903896 C17.7537662,22.4772519 18.0886805,22.1423377 18.5018182,22.1423377 C18.9149559,22.1423377 19.2498701,22.4772519 19.2498701,22.8903896 L19.2498701,25.6332468 Z" id="Path" fill="#FFFFFF"></path>
            </g>
        </g>
    </g>
</svg>