<?xml version="1.0" encoding="UTF-8"?>
<svg width="40px" height="40px" viewBox="0 0 40 40" version="1.1" xmlns="http://www.w3.org/2000/svg" xmlns:xlink="http://www.w3.org/1999/xlink">
    <title>155</title>
    <g id="Page-1" stroke="none" stroke-width="1" fill="none" fill-rule="evenodd">
        <g id="icons-night" transform="translate(-2006.000000, -6.000000)" fill-rule="nonzero">
            <g id="155" transform="translate(2006.398961, 13.396364)">
                <path d="M6.48311688,0 C7.60342217,0 8.65735029,0.28414858 9.57676402,0.78430852 C7.75027743,2.32525347 6.52822983,4.55970479 6.31645091,7.08155844 L6.31645091,7.08155844 L5.78523429,7.08155844 C3.73949522,7.08155844 1.92626436,8.07432304 0.80064591,9.60423403 C0.289966462,8.67881302 0,7.61483307 0,6.48311688 C0,2.9025413 2.9025413,0 6.48311688,0 Z" id="Combined-Shape" fill="#BEE4F8"></path>
                <path d="M15.5465143,0.0997402597 C18.4072755,0.0997402597 20.9711487,1.66012198 22.3208755,4.06232774 C19.9580164,5.07104558 18.2538212,7.31658046 18.0291491,9.98120727 L18.0291491,9.98120727 L17.6207127,9.98120727 C14.9943522,9.98120727 12.8664935,12.1006878 12.8664935,14.715279 C12.8664935,15.9680941 13.3550176,17.1070477 14.1526853,17.9537024 L5.78523429,17.9532468 C3.19567792,17.9532468 1.09714286,15.8549112 1.09714286,13.2654545 C1.09714286,10.7481212 3.0806176,8.69462626 5.57060114,8.5824856 L5.78523429,8.57766234 L7.69216831,8.57766234 L7.80736831,7.20673247 C8.14349299,3.20395636 11.5028447,0.0997402597 15.5465143,0.0997402597 Z" id="Combined-Shape" fill="#FFFFFF"></path>
                <path d="M25.1249704,4.98701299 C27.5295086,4.98701299 29.6433039,6.50087065 30.4305538,8.71769766 L30.4305538,8.71769766 L30.845573,9.88645403 L32.0710816,9.69525195 C32.2858223,9.66173922 32.504453,9.64478338 32.7258764,9.64478338 C35.0347636,9.64478338 36.9038961,11.5060364 36.9038961,13.7990649 C36.9038961,16.091894 35.0347636,17.9532468 32.7258764,17.9532468 L32.7258764,17.9532468 L17.6207127,17.9532468 C15.8197029,17.9532468 14.3625974,16.5025247 14.3625974,14.715279 C14.3625974,12.928133 15.8194036,11.4773112 17.6207127,11.4773112 L17.6207127,11.4773112 L19.4042681,11.4773112 L19.5199668,10.10688 C19.762934,7.22488519 22.1949008,4.98701299 25.1249704,4.98701299 Z" id="Combined-Shape" fill="#FFFFFF"></path>
                <path d="M13.4649351,25.6332468 L15.9335065,24.2374816 C16.290782,24.0362109 16.7434984,24.1600936 16.9485163,24.515232 C17.1535342,24.8703705 17.0344207,25.324365 16.6814587,25.5331075 L14.2625579,26.9299699 L16.6814587,28.3268322 C17.0331474,28.5361239 17.1513659,28.9891805 16.9467759,29.3436249 C16.7421858,29.6980694 16.2907435,29.8223103 15.9336062,29.6224582 L13.4649351,28.2264935 L13.4649351,31.0690909 C13.4649351,31.4822286 13.1300208,31.8171429 12.7168831,31.8171429 C12.3037454,31.8171429 11.9688312,31.4822286 11.9688312,31.0690909 L11.9688312,28.2264935 L9.6,29.6224582 C9.24272454,29.8237288 8.79000811,29.6998461 8.58499018,29.3447077 C8.37997225,28.9895693 8.49908575,28.5355747 8.85204779,28.3268322 L11.2709486,26.9299699 L8.85204779,25.5331075 C8.50035912,25.3238159 8.38214062,24.8707592 8.58673063,24.5163148 C8.79132064,24.1618704 9.24276295,24.0376295 9.59990026,24.2374816 L11.9688312,25.6332468 L11.9688312,22.8903896 C11.9688312,22.4772519 12.3037454,22.1423377 12.7168831,22.1423377 C13.1300208,22.1423377 13.4649351,22.4772519 13.4649351,22.8903896 L13.4649351,25.6332468 Z M25.1345455,25.6332468 L27.6031169,24.2374816 C27.9603923,24.0362109 28.4131088,24.1600936 28.6181267,24.515232 C28.8231446,24.8703705 28.7040311,25.324365 28.3510691,25.5331075 L25.9321683,26.9299699 L28.3510691,28.3268322 C28.7027578,28.5361239 28.8209763,28.9891805 28.6163863,29.3436249 C28.4117962,29.6980694 27.9603539,29.8223103 27.6032166,29.6224582 L25.1345455,28.2264935 L25.1345455,31.0690909 C25.1345455,31.4822286 24.7996312,31.8171429 24.3864935,31.8171429 C23.9733558,31.8171429 23.6384416,31.4822286 23.6384416,31.0690909 L23.6384416,28.2264935 L21.2696104,29.6224582 C20.9123349,29.8237288 20.4596185,29.6998461 20.2546006,29.3447077 C20.0495826,28.9895693 20.1686961,28.5355747 20.5216582,28.3268322 L22.940559,26.9299699 L20.5216582,25.5331075 C20.1699695,25.3238159 20.051751,24.8707592 20.256341,24.5163148 C20.460931,24.1618704 20.9123733,24.0376295 21.2695106,24.2374816 L23.6384416,25.6332468 L23.6384416,22.8903896 C23.6384416,22.4772519 23.9733558,22.1423377 24.3864935,22.1423377 C24.7996312,22.1423377 25.1345455,22.4772519 25.1345455,22.8903896 L25.1345455,25.6332468 Z" id="Shape" fill="#FFFFFF"></path>
            </g>
        </g>
    </g>
</svg>