<?xml version="1.0" encoding="UTF-8"?>
<svg width="40px" height="40px" viewBox="0 0 40 40" version="1.1" xmlns="http://www.w3.org/2000/svg" xmlns:xlink="http://www.w3.org/1999/xlink">
    <title>161</title>
    <g id="Page-1" stroke="none" stroke-width="1" fill="none" fill-rule="evenodd">
        <g id="icons-night" transform="translate(-2184.000000, -6.000000)" fill-rule="nonzero">
            <g id="161" transform="translate(2186.000000, 11.000000)">
                <polygon id="Path" fill="#FFFFFF" points="18.7511688 29.5231169 20.65152 30.6202597 20.65152 32.8145455 18.7511688 33.9116883 16.8508177 32.8145455 16.8508177 30.6202597"></polygon>
                <path d="M19.7982857,22.0418831 L19.7984416,27.1293506 C19.7984416,27.6802009 19.3518892,28.1267532 18.801039,28.1267532 C18.2501887,28.1267532 17.8036364,27.6802009 17.8036364,27.1293506 L17.8032857,22.0418831 L19.7982857,22.0418831 Z M13.6142857,22.0418831 L13.6145455,25.1345455 C13.6145455,25.6853957 13.1679931,26.1319481 12.6171429,26.1319481 C12.0662926,26.1319481 11.6197403,25.6853957 11.6197403,25.1345455 L11.6192857,22.0418831 L13.6142857,22.0418831 Z M25.9822857,22.0418831 L25.9823377,25.1345455 C25.9823377,25.6853957 25.5357853,26.1319481 24.9849351,26.1319481 C24.4340848,26.1319481 23.9875325,25.6853957 23.9875325,25.1345455 L23.9872857,22.0418831 L25.9822857,22.0418831 Z" id="Combined-Shape" fill="#FFFFFF"></path>
                <polygon id="Path" fill="#FFFFFF" points="12.5672727 27.5283117 14.4676239 28.6254545 14.4676239 30.8197403 12.5672727 31.9168831 10.6669216 30.8197403 10.6669216 28.6254545"></polygon>
                <polygon id="Path" fill="#FFFFFF" points="24.9350649 27.5283117 26.8354161 28.6254545 26.8354161 30.8197403 24.9350649 31.9168831 23.0347138 30.8197403 23.0347138 28.6254545"></polygon>
                <path d="M6.48311688,-1.42108547e-14 C8.93746523,-1.42108547e-14 11.0732337,1.36378252 12.1739756,3.37490093 C10.3450064,4.91579088 9.12160498,7.15142258 8.90969766,9.67480519 L8.90969766,9.67480519 L8.37848104,9.67480519 C6.33728496,9.67480519 4.52756557,10.6631654 3.40140183,12.1872963 C1.3755217,11.0915727 1.56319402e-13,8.94800587 1.56319402e-13,6.48311688 C1.56319402e-13,2.9025413 2.9025413,-1.42108547e-14 6.48311688,-1.42108547e-14 Z" id="Combined-Shape" fill="#BEE4F8"></path>
                <path d="M18.1398608,2.69298701 C21.4578203,2.69298701 24.3765195,4.79212052 25.464586,7.86920727 L25.464586,7.86920727 L25.8790068,9.04095584 L27.1068094,8.84845714 C27.4088229,8.80108052 27.7161226,8.77714286 28.027013,8.77714286 C31.2770494,8.77714286 33.9116883,11.4117818 33.9116883,14.6618182 C33.9116883,17.9118545 31.2770494,20.5464935 28.027013,20.5464935 L28.027013,20.5464935 L8.37848104,20.5464935 C5.78892468,20.5464935 3.69038961,18.4481579 3.69038961,15.8587013 C3.69038961,13.2694442 5.78882494,11.1709091 8.37848104,11.1709091 L8.37848104,11.1709091 L10.2854151,11.1709091 L10.4006151,9.79997922 C10.7367397,5.79720312 14.0960914,2.69298701 18.139761,2.69298701 Z" id="Combined-Shape" fill="#FFFFFF"></path>
            </g>
        </g>
    </g>
</svg>