<?xml version="1.0" encoding="UTF-8"?>
<svg width="40px" height="40px" viewBox="0 0 40 40" version="1.1" xmlns="http://www.w3.org/2000/svg" xmlns:xlink="http://www.w3.org/1999/xlink">
    <title>177</title>
    <g id="Page-1" stroke="none" stroke-width="1" fill="none" fill-rule="evenodd">
        <g id="icons-night" transform="translate(-2454.000000, -6.000000)" fill-rule="nonzero">
            <g id="177" transform="translate(2455.496104, 13.496104)">
                <path d="M24.0278275,4.88727273 C26.3522144,4.88727273 28.4049183,6.30188861 29.2503025,8.39864797 L29.3334109,8.6179574 L29.582,9.317 L20.1864908,9.31714286 L17.782,17.853 L16.5235699,17.8535065 C14.72256,17.8535065 13.2654545,16.4027844 13.2654545,14.6155387 C13.2654545,12.8900185 14.6235236,11.4780275 16.3385918,11.3827006 L16.5236696,11.3775709 L18.3071252,11.3775709 L18.4228239,10.0071397 C18.6657912,7.12514494 21.0977579,4.88727273 24.0278275,4.88727273 Z M14.4493714,-1.44328993e-14 C17.3012486,-1.44328993e-14 19.867599,1.5503339 21.2236687,3.9622107 C18.9423492,4.93650895 17.2749921,7.06344593 16.9604922,9.60734445 L16.9320062,9.88146701 L16.5235699,9.88146701 C13.8972094,9.88146701 11.7693506,12.0009475 11.7693506,14.6155387 C11.7693506,15.7848328 12.1949094,16.8549409 12.900184,17.6807867 L13.0555425,17.8539621 L4.68809143,17.8535065 C2.09853506,17.8535065 -3.42614825e-13,15.7551709 -3.42614825e-13,13.1657143 C-3.42614825e-13,10.648381 1.98347475,8.594886 4.47345829,8.48274534 L4.68809143,8.47792208 L6.59502545,8.47792208 L6.71012571,7.10699221 C7.04625039,3.1042161 10.4056021,-1.44328993e-14 14.4493714,-1.44328993e-14 Z M31.6287335,9.54504312 C33.9376208,9.54504312 35.8067532,11.4062961 35.8067532,13.6993247 C35.8067532,15.9226741 34.0491852,17.740301 31.8373811,17.8484186 L31.6287335,17.8535065 L30.823,17.853 L32.3561338,15.303985 L27.1342313,15.303985 L29.681,9.596 L29.7484301,9.78671377 L30.9739387,9.59551169 C31.1886795,9.56199896 31.4073101,9.54504312 31.6287335,9.54504312 Z" id="Combined-Shape" fill="#FFFFFF"></path>
                <polygon id="Path" fill="#FED100" points="21.3224812 10.8171429 18.6514286 20.303985 23.2566917 20.303985 20.6777444 31.8171429 29.7040602 16.803985 24.8224812 16.803985 27.4935338 10.8171429"></polygon>
            </g>
        </g>
    </g>
</svg>