<?xml version="1.0" encoding="UTF-8"?>
<svg width="40px" height="40px" viewBox="0 0 40 40" version="1.1" xmlns="http://www.w3.org/2000/svg" xmlns:xlink="http://www.w3.org/1999/xlink">
    <title>2</title>
    <g id="Page-1" stroke="none" stroke-width="1" fill="none" fill-rule="evenodd">
        <g id="icons-day" transform="translate(-116.000000, -6.000000)" fill-rule="nonzero">
            <g id="icons" transform="translate(25.000000, 6.000000)">
                <g id="2" transform="translate(91.000000, 6.000000)">
                    <path d="M10.6959238,15.3941333 C8.10121265,15.3941333 5.99771429,13.290635 5.99771429,10.6959238 C5.99771429,8.10121265 8.10121265,5.99771429 10.6959238,5.99771429 C13.290635,5.99771429 15.3941333,8.10121265 15.3941333,10.6959238 C15.3941333,13.290635 13.290635,15.3941333 10.6959238,15.3941333 Z" id="Path" fill="#FED100"></path>
                    <path d="M10.6959238,14.1945905 C12.6281874,14.1945905 14.1945905,12.6281874 14.1945905,10.6959238 C14.1945905,8.76366019 12.6281874,7.19725714 10.6959238,7.19725714 C8.76366019,7.19725714 7.19725714,8.76366019 7.19725714,10.6959238 C7.19725714,12.6281874 8.76366019,14.1945905 10.6959238,14.1945905 Z M10.6959238,15.3941333 C8.10121265,15.3941333 5.99771429,13.290635 5.99771429,10.6959238 C5.99771429,8.10121265 8.10121265,5.99771429 10.6959238,5.99771429 C13.290635,5.99771429 15.3941333,8.10121265 15.3941333,10.6959238 C15.3941333,13.290635 13.290635,15.3941333 10.6959238,15.3941333 Z" id="Shape" fill="#FED100"></path>
                    <g id="Group" transform="translate(0.000000, 9.896229)" fill="#FED100">
                        <rect id="Rectangle" x="0" y="0" width="4.49828571" height="1.59939048" rx="0.799695238"></rect>
                        <path d="M17.6932571,0 L19.5921524,0 C20.0338119,-3.62381652e-16 20.3918476,0.358035754 20.3918476,0.799695238 C20.3918476,1.24135472 20.0338119,1.59939048 19.5921524,1.59939048 L17.6932571,1.59939048 C17.2515977,1.59939048 16.8935619,1.24135472 16.8935619,0.799695238 C16.8935619,0.358035754 17.2515977,1.92153834e-16 17.6932571,0 Z" id="Rectangle"></path>
                    </g>
                    <g id="Group" transform="translate(10.413213, 10.978651) rotate(-45.000000) translate(-10.413213, -10.978651) translate(-0.682558, 7.929813)" fill="#FED100">
                        <path d="M1.45845393,3.50828241 L3.50828241,1.45845393 C3.82058283,1.14615351 4.32692184,1.14615351 4.63922226,1.45845393 C4.95152268,1.77075435 4.95152268,2.27709336 4.63922226,2.58939378 L2.58939378,4.63922226 C2.27709336,4.95152268 1.77075435,4.95152268 1.45845393,4.63922226 C1.14615351,4.32692184 1.14615351,3.82058283 1.45845393,3.50828241 Z" id="Rectangle" transform="translate(3.048838, 3.048838) rotate(45.000000) translate(-3.048838, -3.048838) "></path>
                        <rect id="Rectangle" x="17.6932571" y="2.24914286" width="4.49828571" height="1.59939048" rx="0.799695238"></rect>
                    </g>
                    <path d="M18.4054478,18.0571204 L18.3984802,18.0718394 C18.3623463,18.1391177 18.3158884,18.2023141 18.2591065,18.259096 C17.9748816,18.5433209 17.5299376,18.5688725 17.2168157,18.3357506 C17.6372757,18.1528636 18.1024873,18.0522203 18.5921524,18.0522203 Z M16.209278,15.0783277 L17.7552453,16.6228904 C17.1586742,16.7239102 16.5978059,16.9310418 16.0943968,17.2242155 L15.0783382,16.2092675 C14.7660377,15.8969671 14.7660377,15.3906281 15.0783382,15.0783277 C15.3906386,14.7660272 15.8969776,14.7660272 16.209278,15.0783277 Z M4.26372583,3.13277548 L6.31355431,5.18260397 C6.62585473,5.49490438 6.62585473,6.0012434 6.31355431,6.31354382 C6.00125389,6.62584423 5.49491487,6.62584423 5.18261446,6.31354382 L3.13278598,4.26371534 C2.82048556,3.95141492 2.82048556,3.4450759 3.13278598,3.13277548 C3.44508639,2.82047507 3.95142541,2.82047507 4.26372583,3.13277548 Z" id="Combined-Shape" fill="#FED100"></path>
                    <g id="Group" transform="translate(9.896229, 0.000000)" fill="#FED100">
                        <rect id="Rectangle" x="0" y="0" width="1.59939048" height="4.49828571" rx="0.799695238"></rect>
                        <rect id="Rectangle" x="0" y="16.9935238" width="1.59939048" height="4.49828571" rx="0.799695238"></rect>
                    </g>
                    <path d="M26.1892571,11.3956571 C28.627228,11.3956571 30.7641137,12.9634597 31.5721058,15.2617838 L31.5721058,15.2617838 L31.9851483,16.436836 L33.2160792,16.2463086 C33.5451538,16.195328 33.8263467,16.1645397 33.9862857,16.1645397 C36.328893,16.1645397 38.1846857,18.0503211 38.1846857,20.4276151 C38.1846857,22.7775195 36.2562206,24.6905905 33.8863238,24.6905905 L33.8863238,24.6905905 L18.5921524,24.6905905 C16.7207656,24.6905905 15.1934476,23.1871634 15.1934476,21.3564611 C15.1934476,19.5349553 16.7126686,18.0522203 18.5921524,18.0522203 L18.5921524,18.0522203 L20.377572,18.0522203 L20.4867304,16.6709467 C20.7210411,13.7065765 23.1968975,11.3956571 26.1892571,11.3956571 Z" id="Combined-Shape" fill="#FFFFFF"></path>
                </g>
            </g>
        </g>
    </g>
</svg>