<?xml version="1.0" encoding="UTF-8"?>
<svg width="40px" height="40px" viewBox="0 0 40 40" version="1.1" xmlns="http://www.w3.org/2000/svg" xmlns:xlink="http://www.w3.org/1999/xlink">
    <title>21</title>
    <g id="Page-1" stroke="none" stroke-width="1" fill="none" fill-rule="evenodd">
        <g id="icons-day" transform="translate(-835.000000, -6.000000)" fill-rule="nonzero">
            <g id="icons" transform="translate(25.000000, 6.000000)">
                <g id="21" transform="translate(810.000000, 1.000000)">
                    <path d="M10.6959238,5.99771429 C12.6869566,5.99771429 14.3887559,7.23628542 15.0728545,8.98496028 C14.0421273,10.3448074 13.3788369,11.9969036 13.2278589,13.7947429 L13.2278589,13.7947429 L12.6954618,13.7947429 C11.2865018,13.7947429 9.98758693,14.2646144 8.94673993,15.0561676 C7.21832165,14.3639682 5.99771429,12.6724652 5.99771429,10.6959238 C5.99771429,8.10121265 8.10121265,5.99771429 10.6959238,5.99771429 Z" id="Combined-Shape" fill="#FED100"></path>
                    <rect id="Rectangle" fill="#FED100" x="0" y="9.89622857" width="4.49828571" height="1.59939048" rx="0.799695238"></rect>
                    <rect id="Rectangle" fill="#FED100" transform="translate(4.723172, 16.668692) rotate(-45.000000) translate(-4.723172, -16.668692) " x="2.47402916" y="15.8689972" width="4.49828571" height="1.59939048" rx="0.799695238"></rect>
                    <rect id="Rectangle" fill="#FED100" transform="translate(16.668724, 4.723140) rotate(-45.000000) translate(-16.668724, -4.723140) " x="14.4195813" y="3.92344506" width="4.49828571" height="1.59939048" rx="0.799695238"></rect>
                    <rect id="Rectangle" fill="#FED100" transform="translate(4.723170, 4.723160) rotate(45.000000) translate(-4.723170, -4.723160) " x="2.47402729" y="3.92346441" width="4.49828571" height="1.59939048" rx="0.799695238"></rect>
                    <rect id="Rectangle" fill="#FED100" x="9.89622857" y="0" width="1.59939048" height="4.49828571" rx="0.799695238"></rect>
                    <path d="M22.4785335,6.79740952 C25.8038662,6.79740952 28.7290514,8.90120777 29.8195358,11.9851325 L29.8195358,11.9851325 L30.2348776,13.159485 L31.4654086,12.9665585 C31.7680933,12.9190766 32.0760759,12.8950857 32.3876571,12.8950857 C35.6449158,12.8950857 38.2854095,15.5355794 38.2854095,18.7928381 C38.2854095,22.0500968 35.6449158,24.6905905 32.3876571,24.6905905 L32.3876571,24.6905905 L12.6954618,24.6905905 C10.1001509,24.6905905 7.99695238,22.5875919 7.99695238,19.992381 C7.99695238,17.3973699 10.1000509,15.2941714 12.6954618,15.2941714 L12.6954618,15.2941714 L14.6066334,15.2941714 L14.7220894,13.920195 C15.0589611,9.90852389 18.425778,6.79740952 22.4784335,6.79740952 Z" id="Combined-Shape" fill="#FFFFFF"></path>
                    <path d="M32.1397516,30.1110248 C32.3096315,29.6287495 32.0595224,29.0996135 31.5790308,28.9247522 C31.0985392,28.749891 30.5668434,28.9945114 30.3870196,29.4731678 L29.1961734,32.744821 C29.0262935,33.2270963 29.2764026,33.7562323 29.7568942,33.9310936 C30.2373859,34.1059548 30.7690816,33.8613344 30.9489054,33.3826779 L32.1396517,30.1110248 L32.1397516,30.1110248 Z M29.7155755,36.7711866 C29.8838417,36.2893981 29.6336381,35.7618362 29.154092,35.5872818 C28.6745459,35.4127274 28.1437562,35.6560081 27.9629434,36.1332297 L27.5376055,37.3017844 C27.4189863,37.6160068 27.4784819,37.9697401 27.6933669,38.2278693 C27.9082518,38.4859985 28.2453327,38.6086503 28.5758553,38.5489755 C28.9063778,38.4893007 29.179286,38.2565173 29.2903375,37.9395413 L29.7155755,36.7711866 L29.7155755,36.7711866 Z M24.0678278,37.9395413 C23.9576616,38.2576844 23.6845799,38.4917563 23.3533312,38.5519718 C23.0220824,38.6121872 22.6840929,38.4891979 22.4690086,38.2301798 C22.2539242,37.9711618 22.1951367,37.6163276 22.3151957,37.3017844 L23.5060419,34.0300312 C23.6868547,33.5528097 24.2176445,33.3095289 24.6971905,33.4840833 C25.1767366,33.6586378 25.4269402,34.1861996 25.258674,34.6679881 L24.0679278,37.9396413 L24.0678278,37.9395413 Z M26.491904,31.2794795 C26.3106513,31.7560161 25.780324,31.9986896 25.3012241,31.8243249 C24.8221243,31.6499602 24.5718315,31.1231861 24.7392719,30.6416226 L25.1646098,29.4730679 C25.2754326,29.1557543 25.5484198,28.9226159 25.8791669,28.8628167 C26.209914,28.8030176 26.5472533,28.9258089 26.7621689,29.1842289 C26.9770845,29.4426488 27.0363281,29.7967191 26.9172419,30.1110248 L26.492004,31.2795794 L26.491904,31.2794795 Z M21.6948322,30.1110248 C21.8622726,29.6294613 21.6119798,29.1026871 21.13288,28.9283224 C20.6537801,28.7539577 20.1234528,28.9966312 19.9422001,29.4731678 L18.7514539,32.744821 C18.5840134,33.2263845 18.8343062,33.7531587 19.3134061,33.9275234 C19.7925059,34.1018881 20.3228332,33.8592146 20.5040859,33.3826779 L21.6948322,30.1110248 L21.6948322,30.1110248 Z M19.270756,36.7711866 C19.4390222,36.2893981 19.1888186,35.7618362 18.7092725,35.5872818 C18.2297264,35.4127274 17.6989367,35.6560081 17.5181239,36.1332297 L17.0928859,37.3017844 C16.9728269,37.6163276 17.0316144,37.9711618 17.2466988,38.2301798 C17.4617832,38.4891979 17.7997726,38.6121872 18.1310214,38.5519718 C18.4622701,38.4917563 18.7353518,38.2576844 18.845518,37.9395413 L19.270756,36.7711866 L19.270756,36.7711866 Z M13.6231083,37.9395413 C13.4414564,38.4154519 12.9115533,38.6575728 12.4328609,38.4833837 C11.9541684,38.3091945 11.7037924,37.7831417 11.8704762,37.3017844 L13.0612224,34.0300312 C13.2420352,33.5528097 13.772825,33.3095289 14.252371,33.4840833 C14.7319171,33.6586378 14.9821207,34.1861996 14.8138545,34.6679881 L13.6231083,37.9396413 L13.6231083,37.9395413 Z M16.0471845,31.2794795 C15.8659318,31.7560161 15.3356044,31.9986896 14.8565046,31.8243249 C14.3774047,31.6499602 14.1271119,31.1231861 14.2945524,30.6416226 L14.7197903,29.4730679 C14.8306131,29.1557543 15.1036003,28.9226159 15.4343474,28.8628167 C15.7650945,28.8030176 16.1024338,28.9258089 16.3173494,29.1842289 C16.532265,29.4426488 16.5915086,29.7967191 16.4724224,30.1110248 L16.0471845,31.2795794 L16.0471845,31.2794795 Z" id="Shape" fill="#FFFFFF"></path>
                </g>
            </g>
        </g>
    </g>
</svg>