<?xml version="1.0" encoding="UTF-8"?>
<svg width="40px" height="40px" viewBox="0 0 40 40" version="1.1" xmlns="http://www.w3.org/2000/svg" xmlns:xlink="http://www.w3.org/1999/xlink">
    <title>24</title>
    <g id="Page-1" stroke="none" stroke-width="1" fill="none" fill-rule="evenodd">
        <g id="icons-day" transform="translate(-925.000000, -6.000000)" fill-rule="nonzero">
            <g id="icons" transform="translate(25.000000, 6.000000)">
                <g id="24" transform="translate(900.000000, 3.400000)">
                    <path d="M10.6959238,5.99771429 C11.200451,5.99771429 11.6864061,6.0772447 12.141936,6.22445253 L12.265442,6.2677088 C11.1840637,7.64977044 10.4857536,9.34604499 10.3303351,11.1967619 L10.3303351,11.1967619 L9.79793798,11.1967619 C8.48995285,11.1967619 7.27680507,11.6016988 6.27691884,12.2930147 C6.09614724,11.7955199 5.99771429,11.257215 5.99771429,10.6959238 C5.99771429,8.10121265 8.10121265,5.99771429 10.6959238,5.99771429 Z" id="Combined-Shape" fill="#FED100"></path>
                    <rect id="Rectangle" fill="#FED100" x="0" y="9.89622857" width="4.49828571" height="1.59939048" rx="0.799695238"></rect>
                    <rect id="Rectangle" fill="#FED100" transform="translate(4.723126, 4.723160) rotate(45.000000) translate(-4.723126, -4.723160) " x="2.473983" y="3.92346459" width="4.49828571" height="1.59939048" rx="0.799695238"></rect>
                    <rect id="Rectangle" fill="#FED100" x="9.89622857" y="0" width="1.59939048" height="4.49828571" rx="0.799695238"></rect>
                    <path d="M19.5810097,4.19942857 C22.2141974,4.19942857 24.5964777,5.51858873 26.0155606,7.59897917 C22.3513965,7.68210385 19.3703199,10.5126144 19.0676901,14.1018258 L19.0676901,14.1018258 L18.6583461,14.1018258 C16.0261492,14.1018258 13.8935619,16.2260163 13.8935619,18.8464177 C13.8935619,20.1025155 14.3835606,21.2444081 15.1835645,22.0930484 L9.79793798,22.0926095 C7.20262705,22.0926095 5.09942857,19.989611 5.09942857,17.3944 C5.09942857,14.8714726 7.08731104,12.8134143 9.58282788,12.7010245 L9.79793798,12.6961905 L11.7091096,12.6961905 L11.8245656,11.3222141 C12.1614373,7.31054293 15.5282542,4.19942857 19.5810097,4.19942857 Z" id="Combined-Shape" fill="#FFFFFF"></path>
                    <path d="M26.1792798,9.09653333 C28.5891614,9.09653333 30.7076541,10.6137551 31.4966534,12.8355084 L31.4966534,12.8355084 L31.9125949,14.006862 L33.1408268,13.815235 C33.3560448,13.7816478 33.5751613,13.7646543 33.7970767,13.7646543 C36.1110949,13.7646543 37.984381,15.6300434 37.984381,17.9281676 C37.984381,20.2260919 36.1110949,22.091581 33.7970767,22.091581 L33.7970767,22.091581 L18.6583461,22.091581 C16.8533339,22.091581 15.3929905,20.637635 15.3929905,18.8464177 C15.3929905,17.0553003 16.8530341,15.6012544 18.6583461,15.6012544 L18.6583461,15.6012544 L20.4458648,15.6012544 L20.5618206,14.2277778 C20.8053278,11.3393786 23.242699,9.09653333 26.1792798,9.09653333 Z" id="Combined-Shape" fill="#FFFFFF"></path>
                    <path d="M31.6399421,27.5120152 C31.809822,27.0297399 31.5597129,26.5006039 31.0792213,26.3257427 C30.5987296,26.1508815 30.0670339,26.3955018 29.8872101,26.8741583 L28.6963639,30.1458115 C28.526484,30.6280868 28.7765931,31.1572228 29.2570847,31.332084 C29.7375763,31.5069453 30.2692721,31.2623249 30.4490959,30.7836684 L31.6398421,27.5120152 L31.6399421,27.5120152 Z M29.2157659,34.1721771 C29.3840322,33.6903886 29.1338286,33.1628267 28.6542825,32.9882723 C28.1747364,32.8137178 27.6439467,33.0569986 27.4631339,33.5342202 L27.037796,34.7027749 C26.9191768,35.0169972 26.9786724,35.3707306 27.1935573,35.6288598 C27.4084423,35.886989 27.7455232,36.0096408 28.0760457,35.949966 C28.4065682,35.8902912 28.6794765,35.6575078 28.790528,35.3405318 L29.2157659,34.1721771 L29.2157659,34.1721771 Z M23.5680183,35.3405318 C23.4578521,35.6586749 23.1847704,35.8927468 22.8535216,35.9529623 C22.5222729,36.0131777 22.1842834,35.8901883 21.969199,35.6311703 C21.7541147,35.3721523 21.6953272,35.0173181 21.8153862,34.7027749 L23.0062324,31.4310217 C23.1870452,30.9538001 23.7178349,30.7105194 24.197381,30.8850738 C24.6769271,31.0596282 24.9271307,31.5871901 24.7588645,32.0689786 L23.5681182,35.3406318 L23.5680183,35.3405318 Z M25.9920945,28.6804699 C25.8108418,29.1570066 25.2805145,29.3996801 24.8014146,29.2253154 C24.3223147,29.0509507 24.0720219,28.5241765 24.2394624,28.042613 L24.6648003,26.8740584 C24.7756231,26.5567448 25.0486103,26.3236064 25.3793574,26.2638072 C25.7101045,26.2040081 26.0474438,26.3267993 26.2623594,26.5852193 C26.4772749,26.8436393 26.5365186,27.1977095 26.4174324,27.5120152 L25.9921944,28.6805699 L25.9920945,28.6804699 Z M21.1950226,27.5120152 C21.3146173,27.1975854 21.2556124,26.8431161 21.0406092,26.5843834 C20.825606,26.3256507 20.4879274,26.2027552 20.1569182,26.2627709 C19.8259089,26.3227866 19.5528716,26.5564117 19.4423906,26.8741583 L18.2516443,30.1458115 C18.0842039,30.627375 18.3344967,31.1541492 18.8135965,31.3285139 C19.2926964,31.5028785 19.8230237,31.2602051 20.0042764,30.7836684 L21.1950226,27.5120152 L21.1950226,27.5120152 Z M18.7709464,34.1721771 C18.9392127,33.6903886 18.6890091,33.1628267 18.209463,32.9882723 C17.7299169,32.8137178 17.1991271,33.0569986 17.0183144,33.5342202 L16.5930764,34.7027749 C16.4730174,35.0173181 16.5318049,35.3721523 16.7468893,35.6311703 C16.9619736,35.8901883 17.2999631,36.0131777 17.6312118,35.9529623 C17.9624606,35.8927468 18.2355423,35.6586749 18.3457085,35.3405318 L18.7709464,34.1721771 L18.7709464,34.1721771 Z M13.1232987,35.3405318 C12.9416468,35.8164424 12.4117438,36.0585633 11.9330513,35.8843741 C11.4543589,35.710185 11.2039829,35.1841321 11.3706667,34.7027749 L12.5614129,31.4310217 C12.7422257,30.9538001 13.2730154,30.7105194 13.7525615,30.8850738 C14.2321076,31.0596282 14.4823112,31.5871901 14.314045,32.0689786 L13.1232987,35.3406318 L13.1232987,35.3405318 Z M15.5473749,28.6804699 C15.3661222,29.1570066 14.8357949,29.3996801 14.3566951,29.2253154 C13.8775952,29.0509507 13.6273024,28.5241765 13.7947429,28.042613 L14.2199808,26.8740584 C14.3308036,26.5567448 14.6037908,26.3236064 14.9345379,26.2638072 C15.265285,26.2040081 15.6026243,26.3267993 15.8175399,26.5852193 C16.0324554,26.8436393 16.091699,27.1977095 15.9726129,27.5120152 L15.5473749,28.6805699 L15.5473749,28.6804699 Z" id="Shape" fill="#FFFFFF"></path>
                </g>
            </g>
        </g>
    </g>
</svg>