<?xml version="1.0" encoding="UTF-8"?>
<svg width="40px" height="40px" viewBox="0 0 40 40" version="1.1" xmlns="http://www.w3.org/2000/svg" xmlns:xlink="http://www.w3.org/1999/xlink">
    <title>27</title>
    <g id="Page-1" stroke="none" stroke-width="1" fill="none" fill-rule="evenodd">
        <g id="icons-day" transform="translate(-1016.000000, -6.000000)" fill="#FFFFFF" fill-rule="nonzero">
            <g id="icons" transform="translate(25.000000, 6.000000)">
                <g id="27" transform="translate(993.499429, 7.499429)">
                    <path d="M14.4814811,1.77635684e-15 C17.3485996,1.77635684e-15 19.9181703,1.56384923 21.2708965,3.97139323 C18.9023155,4.98297341 17.1947732,7.23324591 16.9696329,9.90342583 L16.9696329,9.90342583 L16.5602889,9.90342583 C13.928092,9.90342583 11.7955048,12.0276163 11.7955048,14.6480177 C11.7955048,15.9036168 12.2851145,17.0451014 13.0845548,17.8936376 L4.69850941,17.893181 C2.10319848,17.893181 6.39488462e-14,15.7901824 6.39488462e-14,13.1949714 C6.39488462e-14,10.672044 1.98788247,8.61398575 4.4833993,8.50159588 L4.69850941,8.4967619 L6.60968107,8.4967619 L6.72513707,7.12278552 C7.06200869,3.11111436 10.4288256,1.77635684e-15 14.4814811,1.77635684e-15 Z" id="Combined-Shape"></path>
                    <path d="M24.0812227,4.89813333 C26.4911043,4.89813333 28.609597,6.41535512 29.3985963,8.63710842 L29.3985963,8.63710842 L29.8145378,9.80846202 L31.0427697,9.61683505 C31.2579877,9.58324785 31.4771042,9.56625432 31.6990196,9.56625432 C34.0130377,9.56625432 35.8863238,11.4316434 35.8863238,13.7297676 C35.8863238,16.0276919 34.0130377,17.893181 31.6990196,17.893181 L31.6990196,17.893181 L16.5602889,17.893181 C14.7552768,17.893181 13.2949333,16.439235 13.2949333,14.6480177 C13.2949333,12.8569003 14.7549769,11.4028544 16.5602889,11.4028544 L16.5602889,11.4028544 L18.3478077,11.4028544 L18.4637635,10.0293778 C18.7072707,7.14097859 21.1446418,4.89813333 24.0812227,4.89813333 Z" id="Combined-Shape"></path>
                    <path d="M26.541885,23.3136152 C26.7117648,22.8313399 26.4616557,22.3022039 25.9811641,22.1273427 C25.5006725,21.9524815 24.9689768,22.1971018 24.7891529,22.6757583 L23.5983067,25.9474115 C23.4284268,26.4296868 23.678536,26.9588228 24.1590276,27.133684 C24.6395192,27.3085453 25.1712149,27.0639249 25.3510388,26.5852684 L26.541785,23.3136152 L26.541885,23.3136152 Z M24.1177088,29.9737771 C24.285975,29.4919886 24.0357714,28.9644267 23.5562254,28.7898723 C23.0766793,28.6153178 22.5458895,28.8585986 22.3650767,29.3358202 L21.9397388,30.5043749 C21.8211197,30.8185972 21.8806153,31.1723306 22.0955002,31.4304598 C22.3103851,31.688589 22.6474661,31.8112408 22.9779886,31.751566 C23.3085111,31.6918912 23.5814193,31.4591078 23.6924709,31.1421318 L24.1177088,29.9737771 L24.1177088,29.9737771 Z M18.4699611,31.1421318 C18.359795,31.4602749 18.0867132,31.6943468 17.7554645,31.7545623 C17.4242158,31.8147777 17.0862263,31.6917883 16.8711419,31.4327703 C16.6560575,31.1737523 16.59727,30.8189181 16.7173291,30.5043749 L17.9081752,27.2326217 C18.088988,26.7554001 18.6197778,26.5121194 19.0993239,26.6866738 C19.57887,26.8612282 19.8290735,27.3887901 19.6608073,27.8705786 L18.4700611,31.1422318 L18.4699611,31.1421318 Z M20.8940373,24.4820699 C20.7127846,24.9586066 20.1824573,25.2012801 19.7033575,25.0269154 C19.2242576,24.8525507 18.9739648,24.3257765 19.1414053,23.844213 L19.5667432,22.6756584 C19.677566,22.3583448 19.9505531,22.1252064 20.2813002,22.0654072 C20.6120474,22.0056081 20.9493867,22.1283993 21.1643022,22.3868193 C21.3792178,22.6452393 21.4384614,22.9993095 21.3193752,23.3136152 L20.8941373,24.4821699 L20.8940373,24.4820699 Z M16.0969655,23.3136152 C16.2165602,22.9991854 16.1575553,22.6447161 15.942552,22.3859834 C15.7275488,22.1272507 15.3898703,22.0043552 15.0588611,22.0643709 C14.7278518,22.1243866 14.4548145,22.3580117 14.3443334,22.6757583 L13.1535872,25.9474115 C12.9861467,26.428975 13.2364395,26.9557492 13.7155394,27.1301139 C14.1946393,27.3044785 14.7249666,27.0618051 14.9062193,26.5852684 L16.0969655,23.3136152 L16.0969655,23.3136152 Z M13.6728893,29.9737771 C13.8411555,29.4919886 13.5909519,28.9644267 13.1114059,28.7898723 C12.6318598,28.6153178 12.10107,28.8585986 11.9202572,29.3358202 L11.4950193,30.5043749 C11.3749602,30.8189181 11.4337477,31.1737523 11.6488321,31.4327703 C11.8639165,31.6917883 12.201906,31.8147777 12.5331547,31.7545623 C12.8644034,31.6943468 13.1374852,31.4602749 13.2476514,31.1421318 L13.6728893,29.9737771 L13.6728893,29.9737771 Z M8.0252416,31.1421318 C7.8435897,31.6180424 7.31368664,31.8601633 6.83499419,31.6859741 C6.35630174,31.511785 6.10592576,30.9857321 6.27260952,30.5043749 L7.46335573,27.2326217 C7.64416852,26.7554001 8.17495829,26.5121194 8.65450437,26.6866738 C9.13405045,26.8612282 9.38425404,27.3887901 9.21598781,27.8705786 L8.0252416,31.1422318 L8.0252416,31.1421318 Z M10.4493178,24.4820699 C10.2680651,24.9586066 9.73773777,25.2012801 9.25863791,25.0269154 C8.77953805,24.8525507 8.52924525,24.3257765 8.69668571,23.844213 L9.12192366,22.6756584 C9.23274647,22.3583448 9.50573362,22.1252064 9.83648073,22.0654072 C10.1672279,22.0056081 10.5045672,22.1283993 10.7194827,22.3868193 C10.9343983,22.6452393 10.9936419,22.9993095 10.8745557,23.3136152 L10.4493178,24.4821699 L10.4493178,24.4820699 Z" id="Shape"></path>
                </g>
            </g>
        </g>
    </g>
</svg>