<?xml version="1.0" encoding="UTF-8"?>
<svg width="40px" height="40px" viewBox="0 0 40 40" version="1.1" xmlns="http://www.w3.org/2000/svg" xmlns:xlink="http://www.w3.org/1999/xlink">
    <title>32</title>
    <g id="Page-1" stroke="none" stroke-width="1" fill="none" fill-rule="evenodd">
        <g id="icons-day" transform="translate(-1195.000000, -6.000000)" fill-rule="nonzero">
            <g id="icons" transform="translate(25.000000, 6.000000)">
                <g id="32" transform="translate(1170.000000, 1.000000)">
                    <path d="M10.6959238,5.99771429 C12.6869566,5.99771429 14.3887559,7.23628542 15.0728545,8.98496028 C14.0421273,10.3448074 13.3788369,11.9969036 13.2278589,13.7947429 L13.2278589,13.7947429 L12.6954618,13.7947429 C11.2865018,13.7947429 9.98758693,14.2646144 8.94673993,15.0561676 C7.21832165,14.3639682 5.99771429,12.6724652 5.99771429,10.6959238 C5.99771429,8.10121265 8.10121265,5.99771429 10.6959238,5.99771429 Z" id="Combined-Shape" fill="#FED100"></path>
                    <rect id="Rectangle" fill="#FED100" x="0" y="9.89622857" width="4.49828571" height="1.59939048" rx="0.799695238"></rect>
                    <rect id="Rectangle" fill="#FED100" transform="translate(4.723172, 16.668692) rotate(-45.000000) translate(-4.723172, -16.668692) " x="2.47402916" y="15.8689972" width="4.49828571" height="1.59939048" rx="0.799695238"></rect>
                    <rect id="Rectangle" fill="#FED100" transform="translate(16.668724, 4.723140) rotate(-45.000000) translate(-16.668724, -4.723140) " x="14.4195813" y="3.92344506" width="4.49828571" height="1.59939048" rx="0.799695238"></rect>
                    <rect id="Rectangle" fill="#FED100" transform="translate(4.723170, 4.723160) rotate(45.000000) translate(-4.723170, -4.723160) " x="2.47402729" y="3.92346441" width="4.49828571" height="1.59939048" rx="0.799695238"></rect>
                    <rect id="Rectangle" fill="#FED100" x="9.89622857" y="0" width="1.59939048" height="4.49828571" rx="0.799695238"></rect>
                    <path d="M22.4785335,6.79740952 C25.8038662,6.79740952 28.7290514,8.90120777 29.8195358,11.9851325 L29.8195358,11.9851325 L30.2348776,13.159485 L31.4654086,12.9665585 C31.7680933,12.9190766 32.0760759,12.8950857 32.3876571,12.8950857 C35.6449158,12.8950857 38.2854095,15.5355794 38.2854095,18.7928381 C38.2854095,22.0500968 35.6449158,24.6905905 32.3876571,24.6905905 L32.3876571,24.6905905 L12.6954618,24.6905905 C10.1001509,24.6905905 7.99695238,22.5875919 7.99695238,19.992381 C7.99695238,17.3973699 10.1000509,15.2941714 12.6954618,15.2941714 L12.6954618,15.2941714 L14.6066334,15.2941714 L14.7220894,13.920195 C15.0589611,9.90852389 18.425778,6.79740952 22.4784335,6.79740952 Z" id="Combined-Shape" fill="#FFFFFF"></path>
                    <path d="M21.5917742,35.088028 C21.5917742,36.6330392 20.338649,37.8855619 18.7928381,37.8855619 C17.2470272,37.8855619 15.9939048,36.6330392 15.9939048,35.088028 C15.9939048,34.6599912 16.0900681,34.2543458 16.2621026,33.891584 L17.8295052,29.9037038 C18.3611026,28.5512192 19.2225743,28.5502196 19.7544716,29.9037038 L21.3145771,33.8727912 C21.4975931,34.2517282 21.5923641,34.6672101 21.5917742,35.088028 L21.5917742,35.088028 Z M30.2884599,35.088028 C30.2884599,36.6330392 29.0353347,37.8855619 27.4895238,37.8855619 C25.9437129,37.8855619 24.6905905,36.6330392 24.6905905,35.088028 C24.6905905,34.6599912 24.7867538,34.2543458 24.9587883,33.891584 L26.5261909,29.9037038 C27.0577883,28.5512192 27.91926,28.5502196 28.4511573,29.9037038 L30.0112628,33.8727912 C30.1942788,34.2517282 30.2890498,34.6672101 30.2884599,35.088028 L30.2884599,35.088028 Z" id="Shape" fill="#FFFFFF"></path>
                </g>
            </g>
        </g>
    </g>
</svg>