<?xml version="1.0" encoding="UTF-8"?>
<svg width="40px" height="40px" viewBox="0 0 40 40" version="1.1" xmlns="http://www.w3.org/2000/svg" xmlns:xlink="http://www.w3.org/1999/xlink">
    <title>33</title>
    <g id="Page-1" stroke="none" stroke-width="1" fill="none" fill-rule="evenodd">
        <g id="icons-day" transform="translate(-1285.000000, -6.000000)" fill-rule="nonzero">
            <g id="icons" transform="translate(25.000000, 6.000000)">
                <g id="33" transform="translate(1260.000000, 1.000000)">
                    <path d="M10.6959238,5.99771429 C12.6869566,5.99771429 14.3887559,7.23628542 15.0728545,8.98496028 C14.0421273,10.3448074 13.3788369,11.9969036 13.2278589,13.7947429 L13.2278589,13.7947429 L12.6954618,13.7947429 C11.2865018,13.7947429 9.98758693,14.2646144 8.94673993,15.0561676 C7.21832165,14.3639682 5.99771429,12.6724652 5.99771429,10.6959238 C5.99771429,8.10121265 8.10121265,5.99771429 10.6959238,5.99771429 Z" id="Combined-Shape" fill="#FED100"></path>
                    <rect id="Rectangle" fill="#FED100" x="0" y="9.89622857" width="4.49828571" height="1.59939048" rx="0.799695238"></rect>
                    <rect id="Rectangle" fill="#FED100" transform="translate(4.723172, 16.668692) rotate(-45.000000) translate(-4.723172, -16.668692) " x="2.47402916" y="15.8689972" width="4.49828571" height="1.59939048" rx="0.799695238"></rect>
                    <rect id="Rectangle" fill="#FED100" transform="translate(16.668724, 4.723140) rotate(-45.000000) translate(-16.668724, -4.723140) " x="14.4195813" y="3.92344506" width="4.49828571" height="1.59939048" rx="0.799695238"></rect>
                    <rect id="Rectangle" fill="#FED100" transform="translate(4.723170, 4.723160) rotate(45.000000) translate(-4.723170, -4.723160) " x="2.47402729" y="3.92346441" width="4.49828571" height="1.59939048" rx="0.799695238"></rect>
                    <rect id="Rectangle" fill="#FED100" x="9.89622857" y="0" width="1.59939048" height="4.49828571" rx="0.799695238"></rect>
                    <path d="M22.4785335,6.79740952 C25.8038662,6.79740952 28.7290514,8.90120777 29.8195358,11.9851325 L29.8195358,11.9851325 L30.2348776,13.159485 L31.4654086,12.9665585 C31.7680933,12.9190766 32.0760759,12.8950857 32.3876571,12.8950857 C35.6449158,12.8950857 38.2854095,15.5355794 38.2854095,18.7928381 C38.2854095,22.0500968 35.6449158,24.6905905 32.3876571,24.6905905 L32.3876571,24.6905905 L12.6954618,24.6905905 C10.1001509,24.6905905 7.99695238,22.5875919 7.99695238,19.992381 C7.99695238,17.3973699 10.1000509,15.2941714 12.6954618,15.2941714 L12.6954618,15.2941714 L14.6066334,15.2941714 L14.7220894,13.920195 C15.0589611,9.90852389 18.425778,6.79740952 22.4784335,6.79740952 Z" id="Combined-Shape" fill="#FFFFFF"></path>
                    <path d="M17.2934123,35.088028 C17.2934123,36.6330392 16.0402871,37.8855619 14.4944762,37.8855619 C12.9486653,37.8855619 11.6955429,36.6330392 11.6955429,35.088028 C11.6955429,34.6599912 11.7917062,34.2543458 11.9637406,33.891584 L13.5311433,29.9037038 C14.0627407,28.5512192 14.9242124,28.5502196 15.4561097,29.9037038 L17.0162152,33.8727912 C17.1992312,34.2517282 17.2940022,34.6672101 17.2934123,35.088028 L17.2934123,35.088028 Z M25.8901361,35.088028 C25.8901361,36.6330392 24.6370109,37.8855619 23.0912,37.8855619 C21.5453891,37.8855619 20.2922667,36.6330392 20.2922667,35.088028 C20.2922667,34.6599912 20.38843,34.2543458 20.5604645,33.891584 L22.1278671,29.9037038 C22.6594645,28.5512192 23.5209362,28.5502196 24.0528335,29.9037038 L25.612939,33.8727912 C25.795955,34.2517282 25.890726,34.6672101 25.8901361,35.088028 L25.8901361,35.088028 Z M34.4868599,35.088028 C34.4868599,36.6330392 33.2337347,37.8855619 31.6879238,37.8855619 C30.1421129,37.8855619 28.8889905,36.6330392 28.8889905,35.088028 C28.8889905,34.6599912 28.9851538,34.2543458 29.1571883,33.891584 L30.7245909,29.9037038 C31.2561883,28.5512192 32.11766,28.5502196 32.6495573,29.9037038 L34.2096628,33.8727912 C34.3926788,34.2517282 34.4874498,34.6672101 34.4868599,35.088028 L34.4868599,35.088028 Z" id="Shape" fill="#FFFFFF"></path>
                </g>
            </g>
        </g>
    </g>
</svg>