<?xml version="1.0" encoding="UTF-8"?>
<svg width="40px" height="40px" viewBox="0 0 40 40" version="1.1" xmlns="http://www.w3.org/2000/svg" xmlns:xlink="http://www.w3.org/1999/xlink">
    <title>38</title>
    <g id="Page-1" stroke="none" stroke-width="1" fill="none" fill-rule="evenodd">
        <g id="icons-day" transform="translate(-1736.000000, -6.000000)" fill="#FFFFFF" fill-rule="nonzero">
            <g id="icons" transform="translate(25.000000, 6.000000)">
                <g id="38" transform="translate(1712.499429, 7.499429)">
                    <path d="M14.4814811,-1.77635684e-15 C17.3485996,-1.77635684e-15 19.9181703,1.56384923 21.2708965,3.97139323 C18.9023155,4.98297341 17.1947732,7.23324591 16.9696329,9.90342583 L16.9696329,9.90342583 L16.5602889,9.90342583 C13.928092,9.90342583 11.7955048,12.0276163 11.7955048,14.6480177 C11.7955048,15.9036168 12.2851145,17.0451014 13.0845548,17.8936376 L4.69850941,17.893181 C2.10319848,17.893181 -1.75504056e-12,15.7901824 -1.75504056e-12,13.1949714 C-1.75504056e-12,10.672044 1.98788247,8.61398575 4.4833993,8.50159588 L4.69850941,8.4967619 L6.60968107,8.4967619 L6.72513707,7.12278552 C7.06200869,3.11111436 10.4288256,-1.77635684e-15 14.4814811,-1.77635684e-15 Z" id="Combined-Shape"></path>
                    <path d="M24.0812227,4.89813333 C26.4911043,4.89813333 28.609597,6.41535512 29.3985963,8.63710842 L29.3985963,8.63710842 L29.8145378,9.80846202 L31.0427697,9.61683505 C31.2579877,9.58324785 31.4771042,9.56625432 31.6990196,9.56625432 C34.0130377,9.56625432 35.8863238,11.4316434 35.8863238,13.7297676 C35.8863238,16.0276919 34.0130377,17.893181 31.6990196,17.893181 L31.6990196,17.893181 L16.5602889,17.893181 C14.7552768,17.893181 13.2949333,16.439235 13.2949333,14.6480177 C13.2949333,12.8569003 14.7549769,11.4028544 16.5602889,11.4028544 L16.5602889,11.4028544 L18.3478077,11.4028544 L18.4637635,10.0293778 C18.7072707,7.14097859 21.1446418,4.89813333 24.0812227,4.89813333 Z" id="Combined-Shape"></path>
                    <path d="M15.9939075,28.2906185 C15.9939075,29.8356297 14.7407823,31.0881524 13.1949714,31.0881524 C11.6491605,31.0881524 10.3960381,29.8356297 10.3960381,28.2906185 C10.3960381,27.8625816 10.4922014,27.4569362 10.6642359,27.0941745 L12.2316386,23.1062942 C12.763236,21.7538097 13.6247077,21.7528101 14.156605,23.1062942 L15.7167104,27.0753816 C15.8997264,27.4543186 15.9944974,27.8698006 15.9939075,28.2906185 L15.9939075,28.2906185 Z M24.6905932,28.2906185 C24.6905932,29.8356297 23.437468,31.0881524 21.8916571,31.0881524 C20.3458462,31.0881524 19.0927238,29.8356297 19.0927238,28.2906185 C19.0927238,27.8625816 19.1888872,27.4569362 19.3609216,27.0941745 L20.9283243,23.1062942 C21.4599217,21.7538097 22.3213934,21.7528101 22.8532907,23.1062942 L24.4133961,27.0753816 C24.5964121,27.4543186 24.6911832,27.8698006 24.6905932,28.2906185 L24.6905932,28.2906185 Z" id="Shape"></path>
                </g>
            </g>
        </g>
    </g>
</svg>