<?xml version="1.0" encoding="UTF-8"?>
<svg width="40px" height="40px" viewBox="0 0 40 40" version="1.1" xmlns="http://www.w3.org/2000/svg" xmlns:xlink="http://www.w3.org/1999/xlink">
    <title>39</title>
    <g id="Page-1" stroke="none" stroke-width="1" fill="none" fill-rule="evenodd">
        <g id="icons-day" transform="translate(-1826.000000, -6.000000)" fill="#FFFFFF" fill-rule="nonzero">
            <g id="icons" transform="translate(25.000000, 6.000000)">
                <g id="39" transform="translate(1802.499429, 7.499429)">
                    <path d="M14.4814811,-1.77635684e-15 C17.3485996,-1.77635684e-15 19.9181703,1.56384923 21.2708965,3.97139323 C18.9023155,4.98297341 17.1947732,7.23324591 16.9696329,9.90342583 L16.9696329,9.90342583 L16.5602889,9.90342583 C13.928092,9.90342583 11.7955048,12.0276163 11.7955048,14.6480177 C11.7955048,15.9036168 12.2851145,17.0451014 13.0845548,17.8936376 L4.69850941,17.893181 C2.10319848,17.893181 -1.75504056e-12,15.7901824 -1.75504056e-12,13.1949714 C-1.75504056e-12,10.672044 1.98788247,8.61398575 4.4833993,8.50159588 L4.69850941,8.4967619 L6.60968107,8.4967619 L6.72513707,7.12278552 C7.06200869,3.11111436 10.4288256,-1.77635684e-15 14.4814811,-1.77635684e-15 Z" id="Combined-Shape"></path>
                    <path d="M24.0812227,4.89813333 C26.4911043,4.89813333 28.609597,6.41535512 29.3985963,8.63710842 L29.3985963,8.63710842 L29.8145378,9.80846202 L31.0427697,9.61683505 C31.2579877,9.58324785 31.4771042,9.56625432 31.6990196,9.56625432 C34.0130377,9.56625432 35.8863238,11.4316434 35.8863238,13.7297676 C35.8863238,16.0276919 34.0130377,17.893181 31.6990196,17.893181 L31.6990196,17.893181 L16.5602889,17.893181 C14.7552768,17.893181 13.2949333,16.439235 13.2949333,14.6480177 C13.2949333,12.8569003 14.7549769,11.4028544 16.5602889,11.4028544 L16.5602889,11.4028544 L18.3478077,11.4028544 L18.4637635,10.0293778 C18.7072707,7.14097859 21.1446418,4.89813333 24.0812227,4.89813333 Z" id="Combined-Shape"></path>
                    <path d="M11.6955456,28.2906185 C11.6955456,29.8356297 10.4424204,31.0881524 8.89660952,31.0881524 C7.35079863,31.0881524 6.09767619,29.8356297 6.09767619,28.2906185 C6.09767619,27.8625816 6.19383954,27.4569362 6.36587398,27.0941745 L7.93327665,23.1062942 C8.46487406,21.7538097 9.32634575,21.7528101 9.85824305,23.1062942 L11.4183485,27.0753816 C11.6013645,27.4543186 11.6961355,27.8698006 11.6955456,28.2906185 L11.6955456,28.2906185 Z M20.2922694,28.2906185 C20.2922694,29.8356297 19.0391442,31.0881524 17.4933333,31.0881524 C15.9475224,31.0881524 14.6944,29.8356297 14.6944,28.2906185 C14.6944,27.8625816 14.7905634,27.4569362 14.9625978,27.0941745 L16.5300005,23.1062942 C17.0615979,21.7538097 17.9230696,21.7528101 18.4549669,23.1062942 L20.0150723,27.0753816 C20.1980883,27.4543186 20.2928593,27.8698006 20.2922694,28.2906185 L20.2922694,28.2906185 Z M28.8889932,28.2906185 C28.8889932,29.8356297 27.635868,31.0881524 26.0900571,31.0881524 C24.5442462,31.0881524 23.2911238,29.8356297 23.2911238,28.2906185 C23.2911238,27.8625816 23.3872872,27.4569362 23.5593216,27.0941745 L25.1267243,23.1062942 C25.6583217,21.7538097 26.5197934,21.7528101 27.0516907,23.1062942 L28.6117961,27.0753816 C28.7948121,27.4543186 28.8895832,27.8698006 28.8889932,28.2906185 L28.8889932,28.2906185 Z" id="Shape"></path>
                </g>
            </g>
        </g>
    </g>
</svg>