<?xml version="1.0" encoding="UTF-8"?>
<svg width="40px" height="40px" viewBox="0 0 40 40" version="1.1" xmlns="http://www.w3.org/2000/svg" xmlns:xlink="http://www.w3.org/1999/xlink">
    <title>41</title>
    <g id="Page-1" stroke="none" stroke-width="1" fill="none" fill-rule="evenodd">
        <g id="icons-day" transform="translate(-1915.000000, -6.000000)" fill-rule="nonzero">
            <g id="icons" transform="translate(25.000000, 6.000000)">
                <g id="41" transform="translate(1890.000000, 1.000000)">
                    <path d="M10.6959238,5.99771429 C12.6869566,5.99771429 14.3887559,7.23628542 15.0728545,8.98496028 C14.0421273,10.3448074 13.3788369,11.9969036 13.2278589,13.7947429 L13.2278589,13.7947429 L12.6954618,13.7947429 C11.2865018,13.7947429 9.98758693,14.2646144 8.94673993,15.0561676 C7.21832165,14.3639682 5.99771429,12.6724652 5.99771429,10.6959238 C5.99771429,8.10121265 8.10121265,5.99771429 10.6959238,5.99771429 Z" id="Combined-Shape" fill="#FED100"></path>
                    <rect id="Rectangle" fill="#FED100" x="0" y="9.89622857" width="4.49828571" height="1.59939048" rx="0.799695238"></rect>
                    <rect id="Rectangle" fill="#FED100" transform="translate(4.723172, 16.668692) rotate(-45.000000) translate(-4.723172, -16.668692) " x="2.47402916" y="15.8689972" width="4.49828571" height="1.59939048" rx="0.799695238"></rect>
                    <rect id="Rectangle" fill="#FED100" transform="translate(16.668724, 4.723140) rotate(-45.000000) translate(-16.668724, -4.723140) " x="14.4195813" y="3.92344506" width="4.49828571" height="1.59939048" rx="0.799695238"></rect>
                    <rect id="Rectangle" fill="#FED100" transform="translate(4.723170, 4.723160) rotate(45.000000) translate(-4.723170, -4.723160) " x="2.47402729" y="3.92346441" width="4.49828571" height="1.59939048" rx="0.799695238"></rect>
                    <rect id="Rectangle" fill="#FED100" x="9.89622857" y="0" width="1.59939048" height="4.49828571" rx="0.799695238"></rect>
                    <path d="M22.4785335,6.79740952 C25.8038662,6.79740952 28.7290514,8.90120777 29.8195358,11.9851325 L29.8195358,11.9851325 L30.2348776,13.159485 L31.4654086,12.9665585 C31.7680933,12.9190766 32.0760759,12.8950857 32.3876571,12.8950857 C35.6449158,12.8950857 38.2854095,15.5355794 38.2854095,18.7928381 C38.2854095,22.0500968 35.6449158,24.6905905 32.3876571,24.6905905 L32.3876571,24.6905905 L12.6954618,24.6905905 C10.1001509,24.6905905 7.99695238,22.5875919 7.99695238,19.992381 C7.99695238,17.3973699 10.1000509,15.2941714 12.6954618,15.2941714 L12.6954618,15.2941714 L14.6066334,15.2941714 L14.7220894,13.920195 C15.0589611,9.90852389 18.425778,6.79740952 22.4784335,6.79740952 Z" id="Combined-Shape" fill="#FFFFFF"></path>
                    <g id="Group" transform="translate(14.794362, 28.888990)" fill="#FFFFFF">
                        <path d="M5.59786943,6.19903756 C5.59786943,7.74404876 4.34474423,8.99657143 2.79893333,8.99657143 C1.25312244,8.99657143 0,7.74404876 0,6.19903756 C0,5.77100069 0.0961633524,5.36535528 0.26819779,5.00259352 L1.83560046,1.0147133 C2.36719787,-0.337771276 3.22866956,-0.338770895 3.76056686,1.0147133 L5.3206723,4.98380069 C5.50368832,5.36273768 5.59845935,5.7782196 5.59786943,6.19903756 L5.59786943,6.19903756 Z" id="Path"></path>
                        <path d="M13.3948952,3.09881905 L15.3933336,1.90757303 C15.7759878,1.68465798 16.2654013,1.81700754 16.4863171,2.20306042 C16.7072329,2.58901333 16.5761829,3.08272518 16.1934287,3.30564023 L14.1945905,4.49828571 L16.1934287,5.69103116 C16.5761829,5.91394621 16.7072329,6.4075581 16.4863171,6.79361097 C16.2654013,7.17956389 15.7759878,7.31191345 15.3933336,7.0889984 L13.3948952,5.89775238 L13.3948952,8.20567284 C13.3948952,8.64250636 13.0368317,8.99657143 12.5952,8.99657143 C12.1535683,8.99657143 11.7955048,8.64250636 11.7955048,8.20567284 L11.7955048,5.89775238 L9.69710446,7.0889984 C9.31445029,7.31191345 8.8250368,7.17956389 8.60412099,6.79351101 C8.38320518,6.4075581 8.51425524,5.91384625 8.89700937,5.6909312 L10.8958476,4.49828571 L8.89700937,3.30554027 C8.51425524,3.08262522 8.38320518,2.58901333 8.60412099,2.20296046 C8.8250368,1.81700754 9.31445029,1.68465798 9.69710446,1.90757303 L11.7955048,3.09881905 L11.7955048,0.79089859 C11.7955048,0.354065067 12.1535683,0 12.5952,0 C13.0368317,0 13.3948952,0.354065067 13.3948952,0.79089859 L13.3948952,3.09881905 Z" id="Path"></path>
                    </g>
                </g>
            </g>
        </g>
    </g>
</svg>