<?xml version="1.0" encoding="UTF-8"?>
<svg width="40px" height="40px" viewBox="0 0 40 40" version="1.1" xmlns="http://www.w3.org/2000/svg" xmlns:xlink="http://www.w3.org/1999/xlink">
    <title>42</title>
    <g id="Page-1" stroke="none" stroke-width="1" fill="none" fill-rule="evenodd">
        <g id="icons-day" transform="translate(-2005.000000, -6.000000)" fill-rule="nonzero">
            <g id="icons" transform="translate(25.000000, 6.000000)">
                <g id="42" transform="translate(1980.000000, 1.000000)">
                    <path d="M10.6959238,5.99771429 C12.6869566,5.99771429 14.3887559,7.23628542 15.0728545,8.98496028 C14.0421273,10.3448074 13.3788369,11.9969036 13.2278589,13.7947429 L13.2278589,13.7947429 L12.6954618,13.7947429 C11.2865018,13.7947429 9.98758693,14.2646144 8.94673993,15.0561676 C7.21832165,14.3639682 5.99771429,12.6724652 5.99771429,10.6959238 C5.99771429,8.10121265 8.10121265,5.99771429 10.6959238,5.99771429 Z" id="Combined-Shape" fill="#FED100"></path>
                    <rect id="Rectangle" fill="#FED100" x="0" y="9.89622857" width="4.49828571" height="1.59939048" rx="0.799695238"></rect>
                    <rect id="Rectangle" fill="#FED100" transform="translate(4.723172, 16.668692) rotate(-45.000000) translate(-4.723172, -16.668692) " x="2.47402916" y="15.8689972" width="4.49828571" height="1.59939048" rx="0.799695238"></rect>
                    <rect id="Rectangle" fill="#FED100" transform="translate(16.668724, 4.723140) rotate(-45.000000) translate(-16.668724, -4.723140) " x="14.4195813" y="3.92344506" width="4.49828571" height="1.59939048" rx="0.799695238"></rect>
                    <rect id="Rectangle" fill="#FED100" transform="translate(4.723170, 4.723160) rotate(45.000000) translate(-4.723170, -4.723160) " x="2.47402729" y="3.92346441" width="4.49828571" height="1.59939048" rx="0.799695238"></rect>
                    <rect id="Rectangle" fill="#FED100" x="9.89622857" y="0" width="1.59939048" height="4.49828571" rx="0.799695238"></rect>
                    <path d="M22.4785335,6.79740952 C25.8038662,6.79740952 28.7290514,8.90120777 29.8195358,11.9851325 L29.8195358,11.9851325 L30.2348776,13.159485 L31.4654086,12.9665585 C31.7680933,12.9190766 32.0760759,12.8950857 32.3876571,12.8950857 C35.6449158,12.8950857 38.2854095,15.5355794 38.2854095,18.7928381 C38.2854095,22.0500968 35.6449158,24.6905905 32.3876571,24.6905905 L32.3876571,24.6905905 L12.6954618,24.6905905 C10.1001509,24.6905905 7.99695238,22.5875919 7.99695238,19.992381 C7.99695238,17.3973699 10.1000509,15.2941714 12.6954618,15.2941714 L12.6954618,15.2941714 L14.6066334,15.2941714 L14.7220894,13.920195 C15.0589611,9.90852389 18.425778,6.79740952 22.4784335,6.79740952 Z" id="Combined-Shape" fill="#FFFFFF"></path>
                    <g id="Group" transform="translate(8.296838, 28.689067)" fill="#FFFFFF">
                        <path d="M11.3956599,6.19903756 C11.3956599,7.74404876 10.1425347,8.99657143 8.59672381,8.99657143 C7.05091291,8.99657143 5.79779048,7.74404876 5.79779048,6.19903756 C5.79779048,5.77100069 5.89395383,5.36535528 6.06598827,5.00259352 L7.63339093,1.0147133 C8.16498834,-0.337771276 9.02646004,-0.338770895 9.55835733,1.0147133 L11.1184628,4.98380069 C11.3014788,5.36273768 11.3962498,5.7782196 11.3956599,6.19903756 L11.3956599,6.19903756 Z M3.79855351,4.13272503 C3.79855351,5.1627325 2.94817646,5.99771429 1.89927619,5.99771429 C0.850375924,5.99771429 0,5.1627325 0,4.13272503 C0,3.84733379 0.0652751238,3.57693684 0.181930667,3.33502903 L1.2456253,0.67644221 C1.60628785,-0.225214171 2.19086507,-0.225813943 2.5518275,0.67644221 L3.61042408,3.32253379 C3.73449193,3.57457669 3.79886404,3.85180091 3.79855351,4.13272503 Z" id="Shape"></path>
                        <path d="M27.2563127,2.06591269 L28.588605,1.27171535 C28.8437077,1.12317196 29.1699834,1.21133836 29.3173272,1.4686403 C29.4645711,1.72604221 29.3771045,2.0551168 29.1220017,2.20376015 L27.7894095,2.99885714 L29.1219017,3.79395413 C29.3771045,3.94259749 29.4645711,4.27167208 29.3172273,4.52907398 C29.1699834,4.78637592 28.8437077,4.87454232 28.588505,4.72599893 L27.2563127,3.9318016 L27.2563127,5.47041524 C27.2563127,5.76160427 27.0176037,5.99771429 26.7231159,5.99771429 C26.4287281,5.99771429 26.190019,5.76160427 26.190019,5.47041524 L26.190019,3.9318016 L24.7910522,4.72599893 C24.5359494,4.87454232 24.2096738,4.78637592 24.0623299,4.52907398 C23.915086,4.27167208 24.0025527,3.94259749 24.2576555,3.79395413 L25.5902476,2.99885714 L24.2577554,2.20376015 C24.0025527,2.0551168 23.915086,1.72604221 24.0624299,1.4686403 C24.2096738,1.21133836 24.5359494,1.12317196 24.7911522,1.27171535 L26.190019,2.06591269 L26.190019,0.527299048 C26.190019,0.236110019 26.4287281,0 26.7231159,0 C27.0176037,0 27.2563127,0.236110019 27.2563127,0.527299048 L27.2563127,2.06591269 L27.2563127,2.06591269 Z M18.7928381,3.09881905 L20.7912765,1.90757303 C21.1739307,1.68465798 21.6633442,1.81700754 21.88426,2.20306042 C22.1051758,2.58901333 21.9741257,3.08272518 21.5913716,3.30564023 L19.5925333,4.49828571 L21.5913716,5.69103116 C21.9741257,5.91394621 22.1051758,6.4075581 21.88426,6.79361097 C21.6633442,7.17956389 21.1739307,7.31191345 20.7912765,7.0889984 L18.7928381,5.89775238 L18.7928381,8.20567284 C18.7928381,8.64250636 18.4347746,8.99657143 17.9931429,8.99657143 C17.5515112,8.99657143 17.1934476,8.64250636 17.1934476,8.20567284 L17.1934476,5.89775238 L15.0950473,7.0889984 C14.7123931,7.31191345 14.2229797,7.17956389 14.0020638,6.79351101 C13.781148,6.4075581 13.9121981,5.91384625 14.2949522,5.6909312 L16.2937905,4.49828571 L14.2949522,3.30554027 C13.9121981,3.08262522 13.781148,2.58901333 14.0020638,2.20296046 C14.2229797,1.81700754 14.7123931,1.68465798 15.0950473,1.90757303 L17.1934476,3.09881905 L17.1934476,0.79089859 C17.1934476,0.354065067 17.5515112,0 17.9931429,0 C18.4347746,0 18.7928381,0.354065067 18.7928381,0.79089859 L18.7928381,3.09881905 Z" id="Shape"></path>
                    </g>
                </g>
            </g>
        </g>
    </g>
</svg>