<?xml version="1.0" encoding="UTF-8"?>
<svg width="40px" height="40px" viewBox="0 0 40 40" version="1.1" xmlns="http://www.w3.org/2000/svg" xmlns:xlink="http://www.w3.org/1999/xlink">
    <title>55</title>
    <g id="Page-1" stroke="none" stroke-width="1" fill="none" fill-rule="evenodd">
        <g id="icons-day" transform="translate(-3086.000000, -6.000000)" fill-rule="nonzero">
            <g id="icons" transform="translate(25.000000, 6.000000)">
                <g id="55" transform="translate(3061.000000, 3.400000)">
                    <path d="M10.6959238,5.99771429 C11.200451,5.99771429 11.6864061,6.0772447 12.141936,6.22445253 L12.265442,6.2677088 C11.1840637,7.64977044 10.4857536,9.34604499 10.3303351,11.1967619 L10.3303351,11.1967619 L9.79793798,11.1967619 C8.48995285,11.1967619 7.27680507,11.6016988 6.27691884,12.2930147 C6.09614724,11.7955199 5.99771429,11.257215 5.99771429,10.6959238 C5.99771429,8.10121265 8.10121265,5.99771429 10.6959238,5.99771429 Z" id="Combined-Shape" fill="#FED100"></path>
                    <rect id="Rectangle" fill="#FED100" x="0" y="9.89622857" width="4.49828571" height="1.59939048" rx="0.799695238"></rect>
                    <rect id="Rectangle" fill="#FED100" transform="translate(4.723126, 4.723160) rotate(45.000000) translate(-4.723126, -4.723160) " x="2.473983" y="3.92346459" width="4.49828571" height="1.59939048" rx="0.799695238"></rect>
                    <rect id="Rectangle" fill="#FED100" x="9.89622857" y="0" width="1.59939048" height="4.49828571" rx="0.799695238"></rect>
                    <path d="M19.5810097,4.19942857 C22.2141974,4.19942857 24.5964777,5.51858873 26.0155606,7.59897917 C22.3513965,7.68210385 19.3703199,10.5126144 19.0676901,14.1018258 L19.0676901,14.1018258 L18.6583461,14.1018258 C16.0261492,14.1018258 13.8935619,16.2260163 13.8935619,18.8464177 C13.8935619,20.1025155 14.3835606,21.2444081 15.1835645,22.0930484 L9.79793798,22.0926095 C7.20262705,22.0926095 5.09942857,19.989611 5.09942857,17.3944 C5.09942857,14.8714726 7.08731104,12.8134143 9.58282788,12.7010245 L9.79793798,12.6961905 L11.7091096,12.6961905 L11.8245656,11.3222141 C12.1614373,7.31054293 15.5282542,4.19942857 19.5810097,4.19942857 Z" id="Combined-Shape" fill="#FFFFFF"></path>
                    <path d="M26.1792798,9.09653333 C28.5891614,9.09653333 30.7076541,10.6137551 31.4966534,12.8355084 L31.4966534,12.8355084 L31.9125949,14.006862 L33.1408268,13.815235 C33.3560448,13.7816478 33.5751613,13.7646543 33.7970767,13.7646543 C36.1110949,13.7646543 37.984381,15.6300434 37.984381,17.9281676 C37.984381,20.2260919 36.1110949,22.091581 33.7970767,22.091581 L33.7970767,22.091581 L18.6583461,22.091581 C16.8533339,22.091581 15.3929905,20.637635 15.3929905,18.8464177 C15.3929905,17.0553003 16.8530341,15.6012544 18.6583461,15.6012544 L18.6583461,15.6012544 L20.4458648,15.6012544 L20.5618206,14.2277778 C20.8053278,11.3393786 23.242699,9.09653333 26.1792798,9.09653333 Z" id="Combined-Shape" fill="#FFFFFF"></path>
                    <path d="M17.4933333,29.7886476 L19.9673905,28.3897807 C20.3254599,28.1880628 20.7791824,28.3122208 20.9846559,28.6681484 C21.1901294,29.024076 21.0707512,29.4790795 20.7170048,29.6882859 L18.2927287,31.0882523 L20.7170048,32.4882188 C21.069475,32.6979756 21.1879562,33.152039 20.9829116,33.5072711 C20.7778669,33.8625032 20.3254214,33.9870202 19.9674904,33.786724 L17.4933333,32.3876571 L17.4933333,35.2365714 C17.4933333,35.6506272 17.1576748,35.9862857 16.743619,35.9862857 C16.3295633,35.9862857 15.9939048,35.6506272 15.9939048,35.2365714 L15.9939048,32.3876571 L13.6198095,33.786724 C13.2617401,33.9884419 12.8080176,33.8642838 12.6025441,33.5083562 C12.3970706,33.1524286 12.5164488,32.6974252 12.8701952,32.4882188 L15.2944713,31.0882523 L12.8701952,29.6882859 C12.517725,29.4785291 12.3992438,29.0244657 12.6042884,28.6692336 C12.8093331,28.3140015 13.2617786,28.1894845 13.6197096,28.3897807 L15.9939048,29.7886476 L15.9939048,27.0396952 C15.9939048,26.6256395 16.3295633,26.289981 16.743619,26.289981 C17.1576748,26.289981 17.4933333,26.6256395 17.4933333,27.0396952 L17.4933333,29.7886476 Z M29.1888762,29.7886476 L31.6629333,28.3897807 C32.0210027,28.1880628 32.4747252,28.3122208 32.6801987,28.6681484 C32.8856723,29.024076 32.7662941,29.4790795 32.4125477,29.6882859 L29.9882715,31.0882523 L32.4125477,32.4882188 C32.7650179,32.6979756 32.8834991,33.152039 32.6784544,33.5072711 C32.4734098,33.8625032 32.0209642,33.9870202 31.6630333,33.786724 L29.1888762,32.3876571 L29.1888762,35.2365714 C29.1888762,35.6506272 28.8532177,35.9862857 28.4391619,35.9862857 C28.0251061,35.9862857 27.6894476,35.6506272 27.6894476,35.2365714 L27.6894476,32.3876571 L25.3153524,33.786724 C24.957283,33.9884419 24.5035605,33.8642838 24.298087,33.5083562 C24.0926135,33.1524286 24.2119917,32.6974252 24.5657381,32.4882188 L26.9900142,31.0882523 L24.5657381,29.6882859 C24.2132679,29.4785291 24.0947866,29.0244657 24.2998313,28.6692336 C24.504876,28.3140015 24.9573215,28.1894845 25.3152524,28.3897807 L27.6894476,29.7886476 L27.6894476,27.0396952 C27.6894476,26.6256395 28.0251061,26.289981 28.4391619,26.289981 C28.8532177,26.289981 29.1888762,26.6256395 29.1888762,27.0396952 L29.1888762,29.7886476 Z" id="Shape" fill="#FFFFFF"></path>
                </g>
            </g>
        </g>
    </g>
</svg>