<?xml version="1.0" encoding="UTF-8"?>
<svg width="40px" height="40px" viewBox="0 0 40 40" version="1.1" xmlns="http://www.w3.org/2000/svg" xmlns:xlink="http://www.w3.org/1999/xlink">
    <title>43</title>
    <g id="Page-1" stroke="none" stroke-width="1" fill="none" fill-rule="evenodd">
        <g id="icons-day" transform="translate(-2095.000000, -6.000000)" fill-rule="nonzero">
            <g id="icons" transform="translate(25.000000, 6.000000)">
                <g id="43" transform="translate(2070.000000, 1.000000)">
                    <path d="M10.6959238,5.99771429 C12.6869566,5.99771429 14.3887559,7.23628542 15.0728545,8.98496028 C14.0421273,10.3448074 13.3788369,11.9969036 13.2278589,13.7947429 L13.2278589,13.7947429 L12.6954618,13.7947429 C11.2865018,13.7947429 9.98758693,14.2646144 8.94673993,15.0561676 C7.21832165,14.3639682 5.99771429,12.6724652 5.99771429,10.6959238 C5.99771429,8.10121265 8.10121265,5.99771429 10.6959238,5.99771429 Z" id="Combined-Shape" fill="#FED100"></path>
                    <rect id="Rectangle" fill="#FED100" x="0" y="9.89622857" width="4.49828571" height="1.59939048" rx="0.799695238"></rect>
                    <rect id="Rectangle" fill="#FED100" transform="translate(4.723172, 16.668692) rotate(-45.000000) translate(-4.723172, -16.668692) " x="2.47402916" y="15.8689972" width="4.49828571" height="1.59939048" rx="0.799695238"></rect>
                    <rect id="Rectangle" fill="#FED100" transform="translate(16.668724, 4.723140) rotate(-45.000000) translate(-16.668724, -4.723140) " x="14.4195813" y="3.92344506" width="4.49828571" height="1.59939048" rx="0.799695238"></rect>
                    <rect id="Rectangle" fill="#FED100" transform="translate(4.723170, 4.723160) rotate(45.000000) translate(-4.723170, -4.723160) " x="2.47402729" y="3.92346441" width="4.49828571" height="1.59939048" rx="0.799695238"></rect>
                    <rect id="Rectangle" fill="#FED100" x="9.89622857" y="0" width="1.59939048" height="4.49828571" rx="0.799695238"></rect>
                    <path d="M22.4785335,6.79740952 C25.7114959,6.79740952 28.5662324,8.78595339 29.7244459,11.7304317 L29.8195358,11.9851325 L30.2348776,13.159485 L31.4654086,12.9665585 C31.7680933,12.9190766 32.0760759,12.8950857 32.3876571,12.8950857 C35.6449158,12.8950857 38.2854095,15.5355794 38.2854095,18.7928381 C38.2854095,21.9383394 35.8173501,24.5230543 32.6375619,24.6805943 C32.6030573,24.6805943 32.569097,24.6829252 32.5358301,24.6874383 L32.5199524,24.6904095 L31.8868835,24.6911695 C31.9057757,24.2033498 31.7924532,23.7045071 31.532426,23.2505263 C31.1957902,22.6627948 30.6724622,22.251986 30.0822584,22.0476511 L29.9033108,21.9925743 L29.7014755,21.9462709 C29.5657634,21.9205747 29.4279517,21.9052826 29.2893047,21.9007454 L29.0808658,21.9020497 L28.972,21.911 L28.9466069,21.8502355 C28.8140798,21.564028 28.6329168,21.3053039 28.4140907,21.0847508 C27.926996,20.5938117 27.253693,20.2915048 26.5106968,20.2915048 C25.8353048,20.2915048 25.2174127,20.5413491 24.7446603,20.9557079 L24.6072765,21.0848656 L24.4806119,21.2216861 C24.358641,21.3629156 24.2510148,21.5171158 24.1601037,21.6819782 L24.0748523,21.8503093 L24.047,21.914 L23.8989585,21.9020445 C23.6206386,21.8894354 23.3431333,21.9205481 23.0765485,21.992571 C22.4141463,22.1715316 21.8180242,22.6037681 21.4476105,23.2501302 L21.4330881,23.2758112 L21.4330881,23.2758112 L21.1119239,22.459002 L21.0221996,22.2458122 C20.8071223,21.7657705 20.5540436,21.4064909 20.3058651,21.1460108 C19.6946268,20.5044748 19.0182705,20.2915172 18.3923153,20.2915172 C17.7662767,20.2915172 17.0899056,20.5045845 16.478758,21.1459886 C16.2304984,21.4065389 15.977389,21.7658916 15.7623558,22.2458595 L15.6726551,22.4590082 L14.7909524,24.6904095 L12.6954618,24.6905905 C10.1722428,24.6905905 8.11417646,22.7028025 8.00178636,20.2074746 L7.99695238,19.992381 C7.99695238,17.4694535 9.98483485,15.4113953 12.4803517,15.2990054 L12.6954618,15.2941714 L14.6066334,15.2941714 L14.7220894,13.920195 C15.0589611,9.90852389 18.425778,6.79740952 22.4785335,6.79740952 Z" id="Combined-Shape" fill="#FFFFFF"></path>
                    <g id="Group" transform="translate(11.195733, 22.291505)" fill="#FFFFFF">
                        <path d="M21.3220742,9.9447101 L20.5654626,10.3814437 C20.3853042,10.4865657 20.1626644,10.487234 19.9818782,10.3831954 C19.801092,10.2791569 19.6898086,10.0863229 19.6901816,9.87773835 C19.6905546,9.66915377 19.8025271,9.47671909 19.9836843,9.37332785 L20.7274008,8.94399147 L19.9836843,8.51465509 C19.8006718,8.41220231 19.6869436,8.21919989 19.6859903,8.00946379 C19.6850489,7.79972769 19.797029,7.6057058 19.9791085,7.50160398 C20.161188,7.39750217 20.3851977,7.39942583 20.5654626,7.50663924 L21.3221742,7.94327284 L21.3221742,7.07950202 C21.3194254,6.86978152 21.4297352,6.67480477 21.6109143,6.569143 C21.7920933,6.46348123 22.0161115,6.46348123 22.1972905,6.569143 C22.3784696,6.67480477 22.4887794,6.86978152 22.4860306,7.07950202 L22.4860306,7.92897829 L23.2177518,7.50663924 C23.3979601,7.40037567 23.6213377,7.39901249 23.8028295,7.50306875 C23.9843214,7.60712501 24.0959978,7.80058755 24.0953391,8.00979213 C24.0946745,8.21899671 23.9817765,8.41174896 23.79963,8.51465509 L23.0559134,8.94399147 L23.79963,9.37332785 C23.9807872,9.47671909 24.0927597,9.66915377 24.0931327,9.87773835 C24.0935057,10.0863229 23.9822223,10.2791569 23.8014361,10.3831954 C23.6206499,10.487234 23.3980101,10.4865657 23.2178517,10.3814437 L22.4860306,9.95900465 L22.4860306,10.8136789 C22.4860306,11.1350966 22.2254701,11.3956571 21.9040524,11.3956571 C21.5826347,11.3956571 21.3220742,11.1350966 21.3220742,10.8136789 L21.3220742,9.9447101 L21.3220742,9.9447101 Z M14.6311241,5.05857219 L12.9213757,6.05319314 C12.5942004,6.24352061 12.1759598,6.1304637 11.9871317,5.80078933 C11.7983037,5.47111497 11.910461,5.04957562 12.2376363,4.85924815 L13.9471848,3.90601143 L12.2376363,2.89459688 C11.910461,2.70426941 11.7983037,2.28283002 11.9871317,1.9530557 C12.1760597,1.62338133 12.5942004,1.51032442 12.9213757,1.70065189 L14.6311241,2.69527284 L14.6311241,0.689337295 C14.6311241,0.3085824 14.9373074,7.10542736e-15 15.3149635,7.10542736e-15 C15.6927195,7.10542736e-15 15.9989029,0.3085824 15.9989029,0.689337295 L15.9989029,2.67108206 L17.6669672,1.70065189 C17.9941425,1.51032442 18.4123831,1.62338133 18.6012111,1.9530557 C18.7900392,2.28273006 18.6778819,2.70426941 18.3507066,2.89469684 L16.6827422,3.90601143 L18.3507066,4.85924815 C18.6778819,5.04957562 18.7900392,5.47101501 18.6012111,5.8008893 C18.4122831,6.1304637 17.9941425,6.24352061 17.6669672,6.05319314 L15.9989029,5.08276297 L15.9989029,7.00772937 C15.9989029,7.38848427 15.6927195,7.69706667 15.3149635,7.69706667 C14.9373074,7.69706667 14.6311241,7.38848427 14.6311241,7.00772937 L14.6311241,5.05847223 L14.6311241,5.05857219 Z M14.6896018,14.1949903 L13.1306959,15.0992457 C12.9874488,15.1822596 12.817012,15.2047242 12.6571474,15.161662 C12.4972827,15.1185999 12.3611895,15.0135666 12.2790205,14.8698331 C12.1067861,14.5700474 12.2090472,14.1867934 12.5073335,14.0138594 L14.0660395,13.1471896 L12.5073335,12.22784 C12.2090472,12.0548059 12.1067861,11.671552 12.2789205,11.3718662 C12.3610729,11.2280886 12.4971769,11.1230144 12.6570672,11.0799317 C12.8169575,11.0368489 12.9874277,11.0593161 13.1306959,11.1423537 L14.6896018,12.0466091 L14.6896018,10.223104 C14.6896018,9.87703589 14.9687954,9.59644282 15.3131642,9.59644282 C15.657533,9.59644282 15.9367266,9.87703589 15.9367266,10.223104 L15.9367266,12.0247174 L17.4576469,11.1424536 C17.6009062,11.0594479 17.7713522,11.0369986 17.9312183,11.0800799 C18.0910844,11.1231612 18.2271701,11.2282158 18.3093224,11.3719662 C18.4815567,11.671652 18.3792957,12.0549059 18.0810094,12.22794 L16.560189,13.1472896 L18.0810094,14.0139593 C18.3792957,14.1868934 18.4815567,14.5701474 18.3094223,14.8699331 C18.2272531,15.0136938 18.0911417,15.1187467 17.9312529,15.1618103 C17.7713641,15.2048739 17.600903,15.1823915 17.4576469,15.0993457 L15.9367266,14.2171819 L15.9367266,15.967115 C15.9367266,16.3131831 15.657533,16.5937762 15.3131642,16.5937762 C14.9687954,16.5937762 14.6896018,16.3131831 14.6896018,15.967115 L14.6896018,14.1950903 L14.6896018,14.1949903 Z" id="Shape"></path>
                        <path d="M3.0404413,9.27706453 C3.1450718,9.49632006 3.19918033,9.73625587 3.19878315,9.97919695 C3.19878315,10.8718568 2.48275383,11.595581 1.59939048,11.595581 C0.716027124,11.595581 0,10.8718568 0,9.97919695 C0,9.7318912 0.0549790476,9.4975805 0.1532416,9.28796038 L1.04890027,6.98383848 C1.35278446,6.20243627 1.84489691,6.2018365 2.14888107,6.98383848 L3.0404413,9.27706453 L3.0404413,9.27706453 Z M9.44889905,4.4301117 C9.61222704,4.76674971 9.6968304,5.13613309 9.6963072,5.51030004 C9.6963072,6.88357669 8.57743116,7.99695238 7.19725714,7.99695238 C5.81708312,7.99695238 4.69820952,6.88357669 4.69820952,5.51030004 C4.69820952,5.12974507 4.78417676,4.76918248 4.93761829,4.44670537 L6.33718491,0.901956267 C6.81180404,-0.3001856 7.58091093,-0.301085257 8.0559299,0.901956267 L9.44889905,4.4301117 L9.44889905,4.4301117 Z M9.17870202,13.4726656 C9.32237626,13.7669955 9.39684649,14.0902811 9.39642088,14.4178054 C9.39642088,15.6195474 8.41179429,16.5936762 7.19725714,16.5936762 C5.98272,16.5936762 4.99809524,15.6195474 4.99809524,14.4178054 C4.99809524,14.0849323 5.07366644,13.7693525 5.20881493,13.4871601 L6.4403456,10.3855421 C6.8580864,9.33374293 7.53492846,9.33294324 7.95276922,10.3855421 L9.17870202,13.4726656 L9.17870202,13.4726656 Z" id="Shape"></path>
                    </g>
                </g>
            </g>
        </g>
    </g>
</svg>