<?xml version="1.0" encoding="UTF-8"?>
<svg width="40px" height="40px" viewBox="0 0 40 40" version="1.1" xmlns="http://www.w3.org/2000/svg" xmlns:xlink="http://www.w3.org/1999/xlink">
    <title>57</title>
    <g id="Page-1" stroke="none" stroke-width="1" fill="none" fill-rule="evenodd">
        <g id="icons-day" transform="translate(-3265.000000, -6.000000)" fill="#FFFFFF" fill-rule="nonzero">
            <g id="icons" transform="translate(25.000000, 6.000000)">
                <g id="57" transform="translate(3241.499429, 7.499429)">
                    <path d="M14.4814811,1.77635684e-15 C17.3485996,1.77635684e-15 19.9181703,1.56384923 21.2708965,3.97139323 C18.9023155,4.98297341 17.1947732,7.23324591 16.9696329,9.90342583 L16.9696329,9.90342583 L16.5602889,9.90342583 C13.928092,9.90342583 11.7955048,12.0276163 11.7955048,14.6480177 C11.7955048,15.9036168 12.2851145,17.0451014 13.0845548,17.8936376 L4.69850941,17.893181 C2.10319848,17.893181 -2.20978791e-12,15.7901824 -2.20978791e-12,13.1949714 C-2.20978791e-12,10.672044 1.98788247,8.61398575 4.4833993,8.50159588 L4.69850941,8.4967619 L6.60968107,8.4967619 L6.72513707,7.12278552 C7.06200869,3.11111436 10.4288256,1.77635684e-15 14.4814811,1.77635684e-15 Z" id="Combined-Shape"></path>
                    <path d="M24.0812227,4.89813333 C26.4911043,4.89813333 28.609597,6.41535512 29.3985963,8.63710842 L29.3985963,8.63710842 L29.8145378,9.80846202 L31.0427697,9.61683505 C31.2579877,9.58324785 31.4771042,9.56625432 31.6990196,9.56625432 C34.0130377,9.56625432 35.8863238,11.4316434 35.8863238,13.7297676 C35.8863238,16.0276919 34.0130377,17.893181 31.6990196,17.893181 L31.6990196,17.893181 L16.5602889,17.893181 C14.7552768,17.893181 13.2949333,16.439235 13.2949333,14.6480177 C13.2949333,12.8569003 14.7549769,11.4028544 16.5602889,11.4028544 L16.5602889,11.4028544 L18.3478077,11.4028544 L18.4637635,10.0293778 C18.7072707,7.14097859 21.1446418,4.89813333 24.0812227,4.89813333 Z" id="Combined-Shape"></path>
                    <path d="M18.1930667,25.5902476 L20.6671238,24.1913807 C21.0251932,23.9896628 21.4789157,24.1138208 21.6843892,24.4697484 C21.8898627,24.825676 21.7704845,25.2806795 21.4167381,25.4898859 L18.992462,26.8898523 L21.4167381,28.2898188 C21.7692083,28.4995756 21.8876895,28.953639 21.6826449,29.3088711 C21.4776002,29.6641032 21.0251547,29.7886202 20.6672238,29.588324 L18.1930667,28.1892571 L18.1930667,31.0381714 C18.1930667,31.4522272 17.8574081,31.7878857 17.4433524,31.7878857 C17.0292966,31.7878857 16.6936381,31.4522272 16.6936381,31.0381714 L16.6936381,28.1892571 L14.3195429,29.588324 C13.9614735,29.7900419 13.507751,29.6658838 13.3022775,29.3099562 C13.0968039,28.9540286 13.2161821,28.4990252 13.5699285,28.2898188 L15.9942046,26.8898523 L13.5699285,25.4898859 C13.2174583,25.2801291 13.0989771,24.8260657 13.3040218,24.4708336 C13.5090664,24.1156015 13.9615119,23.9910845 14.3194429,24.1913807 L16.6936381,25.5902476 L16.6936381,22.8412952 C16.6936381,22.4272395 17.0292966,22.091581 17.4433524,22.091581 C17.8574081,22.091581 18.1930667,22.4272395 18.1930667,22.8412952 L18.1930667,25.5902476 Z" id="Path"></path>
                </g>
            </g>
        </g>
    </g>
</svg>