<?xml version="1.0" encoding="UTF-8"?>
<svg width="40px" height="40px" viewBox="0 0 40 40" version="1.1" xmlns="http://www.w3.org/2000/svg" xmlns:xlink="http://www.w3.org/1999/xlink">
    <title>52</title>
    <g id="Page-1" stroke="none" stroke-width="1" fill="none" fill-rule="evenodd">
        <g id="icons-day" transform="translate(-2814.000000, -6.000000)" fill-rule="nonzero">
            <g id="icons" transform="translate(25.000000, 6.000000)">
                <g id="52" transform="translate(2789.000000, 1.000000)">
                    <path d="M10.6959238,5.99771429 C12.6869566,5.99771429 14.3887559,7.23628542 15.0728545,8.98496028 C14.0421273,10.3448074 13.3788369,11.9969036 13.2278589,13.7947429 L13.2278589,13.7947429 L12.6954618,13.7947429 C11.2865018,13.7947429 9.98758693,14.2646144 8.94673993,15.0561676 C7.21832165,14.3639682 5.99771429,12.6724652 5.99771429,10.6959238 C5.99771429,8.10121265 8.10121265,5.99771429 10.6959238,5.99771429 Z" id="Combined-Shape" fill="#FED100"></path>
                    <rect id="Rectangle" fill="#FED100" x="0" y="9.89622857" width="4.49828571" height="1.59939048" rx="0.799695238"></rect>
                    <rect id="Rectangle" fill="#FED100" transform="translate(4.723172, 16.668692) rotate(-45.000000) translate(-4.723172, -16.668692) " x="2.47402916" y="15.8689972" width="4.49828571" height="1.59939048" rx="0.799695238"></rect>
                    <rect id="Rectangle" fill="#FED100" transform="translate(16.668724, 4.723140) rotate(-45.000000) translate(-16.668724, -4.723140) " x="14.4195813" y="3.92344506" width="4.49828571" height="1.59939048" rx="0.799695238"></rect>
                    <rect id="Rectangle" fill="#FED100" transform="translate(4.723170, 4.723160) rotate(45.000000) translate(-4.723170, -4.723160) " x="2.47402729" y="3.92346441" width="4.49828571" height="1.59939048" rx="0.799695238"></rect>
                    <rect id="Rectangle" fill="#FED100" x="9.89622857" y="0" width="1.59939048" height="4.49828571" rx="0.799695238"></rect>
                    <path d="M22.4785335,6.79740952 C25.8038662,6.79740952 28.7290514,8.90120777 29.8195358,11.9851325 L29.8195358,11.9851325 L30.2348776,13.159485 L31.4654086,12.9665585 C31.7680933,12.9190766 32.0760759,12.8950857 32.3876571,12.8950857 C35.6449158,12.8950857 38.2854095,15.5355794 38.2854095,18.7928381 C38.2854095,22.0500968 35.6449158,24.6905905 32.3876571,24.6905905 L32.3876571,24.6905905 L12.6954618,24.6905905 C10.1001509,24.6905905 7.99695238,22.5875919 7.99695238,19.992381 C7.99695238,17.3973699 10.1000509,15.2941714 12.6954618,15.2941714 L12.6954618,15.2941714 L14.6066334,15.2941714 L14.7220894,13.920195 C15.0589611,9.90852389 18.425778,6.79740952 22.4784335,6.79740952 Z" id="Combined-Shape" fill="#FFFFFF"></path>
                    <path d="M17.9931429,32.3876571 L20.4672,30.9887902 C20.8252694,30.7870723 21.2789919,30.9112304 21.4844654,31.267158 C21.6899389,31.6230856 21.5705607,32.078089 21.2168143,32.2872954 L18.7925382,33.6872619 L21.2168143,35.0872283 C21.5692845,35.2969851 21.6877657,35.7510485 21.4827211,36.1062806 C21.2776764,36.4615127 20.8252309,36.5860297 20.4673,36.3857335 L17.9931429,34.9866667 L17.9931429,37.835581 C17.9931429,38.2496367 17.6574843,38.5852952 17.2434286,38.5852952 C16.8293728,38.5852952 16.4937143,38.2496367 16.4937143,37.835581 L16.4937143,34.9866667 L14.119619,36.3857335 C13.7615496,36.5874514 13.3078272,36.4632934 13.1023537,36.1073658 C12.8968801,35.7514382 13.0162583,35.2964347 13.3700047,35.0872283 L15.7942808,33.6872619 L13.3700047,32.2872954 C13.0175345,32.0775386 12.8990533,31.6234752 13.104098,31.2682431 C13.3091426,30.913011 13.7615881,30.788494 14.1195191,30.9887902 L16.4937143,32.3876571 L16.4937143,29.6387048 C16.4937143,29.224649 16.8293728,28.8889905 17.2434286,28.8889905 C17.6574843,28.8889905 17.9931429,29.224649 17.9931429,29.6387048 L17.9931429,32.3876571 Z M29.6886857,32.3876571 L32.1627429,30.9887902 C32.5208123,30.7870723 32.9745347,30.9112304 33.1800083,31.267158 C33.3854818,31.6230856 33.2661036,32.078089 32.9123572,32.2872954 L30.4880811,33.6872619 L32.9123572,35.0872283 C33.2648274,35.2969851 33.3833086,35.7510485 33.1782639,36.1062806 C32.9732193,36.4615127 32.5207738,36.5860297 32.1628428,36.3857335 L29.6886857,34.9866667 L29.6886857,37.835581 C29.6886857,38.2496367 29.3530272,38.5852952 28.9389714,38.5852952 C28.5249157,38.5852952 28.1892571,38.2496367 28.1892571,37.835581 L28.1892571,34.9866667 L25.8151619,36.3857335 C25.4570925,36.5874514 25.00337,36.4632934 24.7978965,36.1073658 C24.592423,35.7514382 24.7118012,35.2964347 25.0655476,35.0872283 L27.4898237,33.6872619 L25.0655476,32.2872954 C24.7130774,32.0775386 24.5945962,31.6234752 24.7996408,31.2682431 C25.0046855,30.913011 25.457131,30.788494 25.8150619,30.9887902 L28.1892571,32.3876571 L28.1892571,29.6387048 C28.1892571,29.224649 28.5249157,28.8889905 28.9389714,28.8889905 C29.3530272,28.8889905 29.6886857,29.224649 29.6886857,29.6387048 L29.6886857,32.3876571 Z" id="Shape" fill="#FFFFFF"></path>
                </g>
            </g>
        </g>
    </g>
</svg>