<?xml version="1.0" encoding="UTF-8"?>
<svg width="40px" height="40px" viewBox="0 0 40 40" version="1.1" xmlns="http://www.w3.org/2000/svg" xmlns:xlink="http://www.w3.org/1999/xlink">
    <title>53</title>
    <g id="Page-1" stroke="none" stroke-width="1" fill="none" fill-rule="evenodd">
        <g id="icons-day" transform="translate(-2904.000000, -6.000000)" fill-rule="nonzero">
            <g id="icons" transform="translate(25.000000, 6.000000)">
                <g id="53" transform="translate(2879.000000, 1.000000)">
                    <path d="M10.6959238,5.99771429 C12.6869566,5.99771429 14.3887559,7.23628542 15.0728545,8.98496028 C14.0421273,10.3448074 13.3788369,11.9969036 13.2278589,13.7947429 L13.2278589,13.7947429 L12.6954618,13.7947429 C11.2865018,13.7947429 9.98758693,14.2646144 8.94673993,15.0561676 C7.21832165,14.3639682 5.99771429,12.6724652 5.99771429,10.6959238 C5.99771429,8.10121265 8.10121265,5.99771429 10.6959238,5.99771429 Z" id="Combined-Shape" fill="#FED100"></path>
                    <rect id="Rectangle" fill="#FED100" x="0" y="9.89622857" width="4.49828571" height="1.59939048" rx="0.799695238"></rect>
                    <path d="M3.13278785,17.1281368 L5.18261633,15.0783083 C5.49491674,14.7660079 6.00125576,14.7660079 6.31355618,15.0783083 C6.62585659,15.3906087 6.62585659,15.8969477 6.31355618,16.2092482 L4.2637277,18.2590766 C3.95142728,18.5713771 3.44508826,18.5713771 3.13278785,18.2590766 C2.82048743,17.9467762 2.82048743,17.4404372 3.13278785,17.1281368 Z" id="Rectangle" fill="#FED100"></path>
                    <path d="M15.07834,5.18258461 L17.1281685,3.13275613 C17.4404689,2.82045572 17.9468079,2.82045572 18.2591084,3.13275613 C18.5714088,3.44505655 18.5714088,3.95139557 18.2591084,4.26369598 L16.2092799,6.31352447 C15.8969795,6.62582488 15.3906404,6.62582488 15.07834,6.31352447 C14.7660396,6.00122405 14.7660396,5.49488503 15.07834,5.18258461 Z" id="Rectangle" fill="#FED100"></path>
                    <rect id="Rectangle" fill="#FED100" transform="translate(4.723170, 4.723160) rotate(45.000000) translate(-4.723170, -4.723160) " x="2.47402729" y="3.92346441" width="4.49828571" height="1.59939048" rx="0.799695238"></rect>
                    <rect id="Rectangle" fill="#FED100" x="9.89622857" y="0" width="1.59939048" height="4.49828571" rx="0.799695238"></rect>
                    <path d="M22.4785335,6.79740952 C25.8038662,6.79740952 28.7290514,8.90120777 29.8195358,11.9851325 L29.8195358,11.9851325 L30.2348776,13.159485 L31.4654086,12.9665585 C31.7680933,12.9190766 32.0760759,12.8950857 32.3876571,12.8950857 C35.6449158,12.8950857 38.2854095,15.5355794 38.2854095,18.7928381 C38.2854095,22.0500968 35.6449158,24.6905905 32.3876571,24.6905905 L32.3876571,24.6905905 L12.6954618,24.6905905 C10.1001509,24.6905905 7.99695238,22.5875919 7.99695238,19.992381 C7.99695238,17.3973699 10.1000509,15.2941714 12.6954618,15.2941714 L12.6954618,15.2941714 L14.6066334,15.2941714 L14.7220894,13.920195 C15.0589611,9.90852389 18.425778,6.79740952 22.4784335,6.79740952 Z" id="Combined-Shape" fill="#FFFFFF"></path>
                    <path d="M12.9950476,32.3876571 L15.4691048,30.9887902 C15.8271742,30.7870723 16.2808966,30.9112304 16.4863702,31.267158 C16.6918437,31.6230856 16.5724655,32.078089 16.2187191,32.2872954 L13.794443,33.6872619 L16.2187191,35.0872283 C16.5711893,35.2969851 16.6896705,35.7510485 16.4846258,36.1062806 C16.2795812,36.4615127 15.8271357,36.5860297 15.4692047,36.3857335 L12.9950476,34.9866667 L12.9950476,37.835581 C12.9950476,38.2496367 12.6593891,38.5852952 12.2453333,38.5852952 C11.8312776,38.5852952 11.495619,38.2496367 11.495619,37.835581 L11.495619,34.9866667 L9.12152381,36.3857335 C8.7634544,36.5874514 8.30973194,36.4632934 8.10425841,36.1073658 C7.89878489,35.7514382 8.01816308,35.2964347 8.37190949,35.0872283 L10.7961856,33.6872619 L8.37190949,32.2872954 C8.01943928,32.0775386 7.90095808,31.6234752 8.10600273,31.2682431 C8.31104739,30.913011 8.7634929,30.788494 9.12142385,30.9887902 L11.495619,32.3876571 L11.495619,29.6387048 C11.495619,29.224649 11.8312776,28.8889905 12.2453333,28.8889905 C12.6593891,28.8889905 12.9950476,29.224649 12.9950476,29.6387048 L12.9950476,32.3876571 Z M23.7909333,32.3876571 L26.2649905,30.9887902 C26.6230599,30.7870723 27.0767824,30.9112304 27.2822559,31.267158 C27.4877294,31.6230856 27.3683512,32.078089 27.0146048,32.2872954 L24.5903287,33.6872619 L27.0146048,35.0872283 C27.367075,35.2969851 27.4855562,35.7510485 27.2805116,36.1062806 C27.0754669,36.4615127 26.6230214,36.5860297 26.2650904,36.3857335 L23.7909333,34.9866667 L23.7909333,37.835581 C23.7909333,38.2496367 23.4552748,38.5852952 23.041219,38.5852952 C22.6271633,38.5852952 22.2915048,38.2496367 22.2915048,37.835581 L22.2915048,34.9866667 L19.9174095,36.3857335 C19.5593401,36.5874514 19.1056176,36.4632934 18.9001441,36.1073658 C18.6946706,35.7514382 18.8140488,35.2964347 19.1677952,35.0872283 L21.5920713,33.6872619 L19.1677952,32.2872954 C18.815325,32.0775386 18.6968438,31.6234752 18.9018884,31.2682431 C19.1069331,30.913011 19.5593786,30.788494 19.9173096,30.9887902 L22.2915048,32.3876571 L22.2915048,29.6387048 C22.2915048,29.224649 22.6271633,28.8889905 23.041219,28.8889905 C23.4552748,28.8889905 23.7909333,29.224649 23.7909333,29.6387048 L23.7909333,32.3876571 Z M34.586819,32.3876571 L37.0608762,30.9887902 C37.4189456,30.7870723 37.8726681,30.9112304 38.0781416,31.267158 C38.2836151,31.6230856 38.1642369,32.078089 37.8104905,32.2872954 L35.3862144,33.6872619 L37.8104905,35.0872283 C38.1629607,35.2969851 38.2814419,35.7510485 38.0763973,36.1062806 C37.8713526,36.4615127 37.4189071,36.5860297 37.0609762,36.3857335 L34.586819,34.9866667 L34.586819,37.835581 C34.586819,38.2496367 34.2511605,38.5852952 33.8371048,38.5852952 C33.423049,38.5852952 33.0873905,38.2496367 33.0873905,37.835581 L33.0873905,34.9866667 L30.7132952,36.3857335 C30.3552258,36.5874514 29.9015034,36.4632934 29.6960298,36.1073658 C29.4905563,35.7514382 29.6099345,35.2964347 29.9636809,35.0872283 L32.387957,33.6872619 L29.9636809,32.2872954 C29.6112107,32.0775386 29.4927295,31.6234752 29.6977742,31.2682431 C29.9028188,30.913011 30.3552643,30.788494 30.7131953,30.9887902 L33.0873905,32.3876571 L33.0873905,29.6387048 C33.0873905,29.224649 33.423049,28.8889905 33.8371048,28.8889905 C34.2511605,28.8889905 34.586819,29.224649 34.586819,29.6387048 L34.586819,32.3876571 Z" id="Shape" fill="#FFFFFF"></path>
                </g>
            </g>
        </g>
    </g>
</svg>