<?xml version="1.0" encoding="UTF-8"?>
<svg width="40px" height="40px" viewBox="0 0 40 40" version="1.1" xmlns="http://www.w3.org/2000/svg" xmlns:xlink="http://www.w3.org/1999/xlink">
    <title>58</title>
    <g id="Page-1" stroke="none" stroke-width="1" fill="none" fill-rule="evenodd">
        <g id="icons-day" transform="translate(-3356.000000, -6.000000)" fill="#FFFFFF" fill-rule="nonzero">
            <g id="icons" transform="translate(25.000000, 6.000000)">
                <g id="58" transform="translate(3332.499429, 7.499429)">
                    <path d="M14.4814811,1.77635684e-15 C17.3485996,1.77635684e-15 19.9181703,1.56384923 21.2708965,3.97139323 C18.9023155,4.98297341 17.1947732,7.23324591 16.9696329,9.90342583 L16.9696329,9.90342583 L16.5602889,9.90342583 C13.928092,9.90342583 11.7955048,12.0276163 11.7955048,14.6480177 C11.7955048,15.9036168 12.2851145,17.0451014 13.0845548,17.8936376 L4.69850941,17.893181 C2.10319848,17.893181 4.61142236e-12,15.7901824 4.61142236e-12,13.1949714 C4.61142236e-12,10.672044 1.98788247,8.61398575 4.4833993,8.50159588 L4.69850941,8.4967619 L6.60968107,8.4967619 L6.72513707,7.12278552 C7.06200869,3.11111436 10.4288256,1.77635684e-15 14.4814811,1.77635684e-15 Z" id="Combined-Shape"></path>
                    <path d="M24.0812227,4.89813333 C26.4911043,4.89813333 28.609597,6.41535512 29.3985963,8.63710842 L29.3985963,8.63710842 L29.8145378,9.80846202 L31.0427697,9.61683505 C31.2579877,9.58324785 31.4771042,9.56625432 31.6990196,9.56625432 C34.0130377,9.56625432 35.8863238,11.4316434 35.8863238,13.7297676 C35.8863238,16.0276919 34.0130377,17.893181 31.6990196,17.893181 L31.6990196,17.893181 L16.5602889,17.893181 C14.7552768,17.893181 13.2949333,16.439235 13.2949333,14.6480177 C13.2949333,12.8569003 14.7549769,11.4028544 16.5602889,11.4028544 L16.5602889,11.4028544 L18.3478077,11.4028544 L18.4637635,10.0293778 C18.7072707,7.14097859 21.1446418,4.89813333 24.0812227,4.89813333 Z" id="Combined-Shape"></path>
                    <path d="M12.3952762,25.5902476 L14.8693333,24.1913807 C15.2274027,23.9896628 15.6811252,24.1138208 15.8865987,24.4697484 C16.0920723,24.825676 15.9726941,25.2806795 15.6189477,25.4898859 L13.1946715,26.8898523 L15.6189477,28.2898188 C15.9714179,28.4995756 16.0898991,28.953639 15.8848544,29.3088711 C15.6798098,29.6641032 15.2273642,29.7886202 14.8694333,29.588324 L12.3952762,28.1892571 L12.3952762,31.0381714 C12.3952762,31.4522272 12.0596177,31.7878857 11.6455619,31.7878857 C11.2315061,31.7878857 10.8958476,31.4522272 10.8958476,31.0381714 L10.8958476,28.1892571 L8.52175238,29.588324 C8.16368297,29.7900419 7.70996051,29.6658838 7.50448698,29.3099562 C7.29901346,28.9540286 7.41839165,28.4990252 7.77213806,28.2898188 L10.1964142,26.8898523 L7.77213806,25.4898859 C7.41966785,25.2801291 7.30118665,24.8260657 7.5062313,24.4708336 C7.71127596,24.1156015 8.16372147,23.9910845 8.52165242,24.1913807 L10.8958476,25.5902476 L10.8958476,22.8412952 C10.8958476,22.4272395 11.2315061,22.091581 11.6455619,22.091581 C12.0596177,22.091581 12.3952762,22.4272395 12.3952762,22.8412952 L12.3952762,25.5902476 Z M24.090819,25.5902476 L26.5648762,24.1913807 C26.9229456,23.9896628 27.3766681,24.1138208 27.5821416,24.4697484 C27.7876151,24.825676 27.6682369,25.2806795 27.3144905,25.4898859 L24.8902144,26.8898523 L27.3144905,28.2898188 C27.6669607,28.4995756 27.7854419,28.953639 27.5803973,29.3088711 C27.3753526,29.6641032 26.9229071,29.7886202 26.5649762,29.588324 L24.090819,28.1892571 L24.090819,31.0381714 C24.090819,31.4522272 23.7551605,31.7878857 23.3411048,31.7878857 C22.927049,31.7878857 22.5913905,31.4522272 22.5913905,31.0381714 L22.5913905,28.1892571 L20.2172952,29.588324 C19.8592258,29.7900419 19.4055034,29.6658838 19.2000298,29.3099562 C18.9945563,28.9540286 19.1139345,28.4990252 19.4676809,28.2898188 L21.891957,26.8898523 L19.4676809,25.4898859 C19.1152107,25.2801291 18.9967295,24.8260657 19.2017742,24.4708336 C19.4068188,24.1156015 19.8592643,23.9910845 20.2171953,24.1913807 L22.5913905,25.5902476 L22.5913905,22.8412952 C22.5913905,22.4272395 22.927049,22.091581 23.3411048,22.091581 C23.7551605,22.091581 24.090819,22.4272395 24.090819,22.8412952 L24.090819,25.5902476 Z" id="Shape"></path>
                </g>
            </g>
        </g>
    </g>
</svg>