<?xml version="1.0" encoding="UTF-8"?>
<svg width="40px" height="40px" viewBox="0 0 40 40" version="1.1" xmlns="http://www.w3.org/2000/svg" xmlns:xlink="http://www.w3.org/1999/xlink">
    <title>6</title>
    <g id="Page-1" stroke="none" stroke-width="1" fill="none" fill-rule="evenodd">
        <g id="icons-day" transform="translate(-295.000000, -6.000000)" fill-rule="nonzero">
            <g id="icons" transform="translate(25.000000, 6.000000)">
                <g id="6" transform="translate(270.000000, 8.400000)">
                    <path d="M10.6959238,5.99771429 C11.200451,5.99771429 11.6864061,6.0772447 12.141936,6.22445253 L12.2640706,6.26668023 C12.2024794,6.3453971 12.142131,6.42513327 12.0830548,6.50585922 L12.2640706,6.26668023 C12.1934806,6.35689815 12.1245229,6.44845498 12.0572421,6.54130629 C12.0021286,6.61735209 11.9476901,6.69492866 11.8944206,6.77336351 C11.8837569,6.78906807 11.8736258,6.8040824 11.8635375,6.81912786 C11.8140849,6.89286593 11.7652027,6.96808013 11.7173907,7.04403582 C11.6322905,7.17922155 11.5504747,7.31694438 11.4721776,7.45690267 C11.4498015,7.4969019 11.4277763,7.53696612 11.4060396,7.57720908 C11.3846216,7.61685951 11.3633632,7.65691428 11.3423909,7.6971419 C11.3202329,7.73964506 11.2984448,7.78224013 11.2769777,7.82502409 L11.2175551,7.94563275 L11.2175551,7.94563275 L11.2038236,7.97414641 C11.1634167,8.05842089 11.124244,8.14339975 11.0863291,8.22905957 C11.0757154,8.2530422 11.0653995,8.27661774 11.0551789,8.30024414 C11.0264717,8.36659832 10.998389,8.43366871 10.9710762,8.50113321 C10.9560487,8.53825187 10.9412398,8.57552682 10.9266663,8.6129195 C10.9030351,8.67355319 10.8800386,8.73445331 10.8576678,8.79565478 C10.8467873,8.82541876 10.8359723,8.85548741 10.8253085,8.88562754 C10.7952852,8.97049017 10.7665133,9.0557563 10.7389559,9.14156671 C10.7292435,9.17180171 10.7194635,9.20280919 10.7098424,9.23388648 C10.6264035,9.50344778 10.5550048,9.77783268 10.4961351,10.0568369 C10.4844642,10.1121415 10.4732365,10.167884 10.4625104,10.2238048 C10.4470606,10.3043604 10.4326774,10.3851304 10.4193459,10.4662546 C10.4131539,10.5039271 10.4071508,10.541926 10.401379,10.5800007 C10.3925491,10.6382519 10.3842734,10.696584 10.3765424,10.7550878 L10.3644276,10.8505728 L10.3644276,10.8505728 L10.3580528,10.9042933 C10.3468627,11.000995 10.3371585,11.0981495 10.3289637,11.1957333 L10.3289637,11.1957333 L9.79656655,11.1957333 C9.70593901,11.1957333 9.61576676,11.1976774 9.5260892,11.201526 L9.79656655,11.1957333 C9.67861675,11.1957333 9.56143815,11.1990262 9.44511759,11.205525 C9.37926584,11.2092063 9.31389126,11.2138974 9.24880562,11.2195939 C9.22215343,11.2219264 9.19550898,11.2244316 9.1689142,11.2271049 C9.08653048,11.2353864 9.00464835,11.2452769 8.92327459,11.256747 C8.91720656,11.2576021 8.9109126,11.2584989 8.90462171,11.2594052 C8.81432971,11.272416 8.72489066,11.2873301 8.63612211,11.3041364 C8.61971144,11.3072424 8.60298776,11.3104796 8.58628823,11.3137838 C8.51938058,11.3270243 8.45302794,11.3413023 8.38707978,11.3566328 C8.35509065,11.3640701 8.32338311,11.3717086 8.29177172,11.3795897 C8.12582506,11.4209598 7.96245258,11.4690421 7.80203508,11.523514 C7.78297291,11.5299854 7.76356912,11.5366814 7.74420928,11.5434708 C7.67914505,11.5662916 7.6148216,11.5900719 7.55101119,11.6148785 C7.52850346,11.6236289 7.50616587,11.6324643 7.48389239,11.6414253 C7.43023752,11.6630104 7.37685992,11.6853655 7.32386795,11.7084398 C7.295309,11.7208749 7.26681004,11.7335424 7.23842542,11.7464176 C7.16888143,11.7779638 7.10010049,11.8107185 7.03203286,11.8446886 C7.00178249,11.8597852 6.97163821,11.87514 6.94163764,11.8907329 C6.89218385,11.9164337 6.84287094,11.94292 6.79396388,11.9700486 C6.76317497,11.9871314 6.73312833,12.0041332 6.70323917,12.0213774 C6.65634592,12.0484255 6.60931386,12.0763923 6.56268896,12.1049584 C6.54179133,12.1177637 6.52130899,12.1304797 6.50090677,12.1433113 C6.43175512,12.1867981 6.36327032,12.2317869 6.29574887,12.2780779 L6.27554742,12.2919862 L6.27554742,12.2919862 C6.09588545,11.7940872 5.99771429,11.2564681 5.99771429,10.6959238 C5.99771429,8.10121265 8.10121265,5.99771429 10.6959238,5.99771429 Z" id="Combined-Shape" fill="#FED100"></path>
                    <rect id="Rectangle" fill="#FED100" x="0" y="9.89622857" width="4.49828571" height="1.59939048" rx="0.799695238"></rect>
                    <rect id="Rectangle" fill="#FED100" transform="translate(4.723126, 4.723160) rotate(45.000000) translate(-4.723126, -4.723160) " x="2.473983" y="3.92346459" width="4.49828571" height="1.59939048" rx="0.799695238"></rect>
                    <rect id="Rectangle" fill="#FED100" x="9.89622857" y="0" width="1.59939048" height="4.49828571" rx="0.799695238"></rect>
                    <path d="M19.5796382,4.1984 C22.2132478,4.1984 24.5958695,5.5179828 26.014871,7.59895036 C22.3512243,7.68226742 19.3703111,10.5127181 19.0676901,14.1018258 L19.0676901,14.1018258 L18.6583461,14.1018258 C16.0261492,14.1018258 13.8935619,16.2260163 13.8935619,18.8464177 C13.8935619,20.1020168 14.3831716,21.2435014 15.1826119,22.0920376 L9.79656655,22.091581 C7.20125562,22.091581 5.09805714,19.9885824 5.09805714,17.3933714 C5.09805714,14.870444 7.08593961,12.8123857 9.58145645,12.6999959 L9.79656655,12.6951619 L11.7077382,12.6951619 L11.8231942,11.3211855 C12.1600658,7.30951436 15.5268827,4.1984 19.5796382,4.1984 Z" id="Combined-Shape" fill="#FFFFFF"></path>
                    <path d="M26.1792798,9.09653333 C28.5891614,9.09653333 30.7076541,10.6137551 31.4966534,12.8355084 L31.4966534,12.8355084 L31.9125949,14.006862 L33.1408268,13.815235 C33.3560448,13.7816478 33.5751613,13.7646543 33.7970767,13.7646543 C36.1110949,13.7646543 37.984381,15.6300434 37.984381,17.9281676 C37.984381,20.2260919 36.1110949,22.091581 33.7970767,22.091581 L33.7970767,22.091581 L18.6583461,22.091581 C16.8533339,22.091581 15.3929905,20.637635 15.3929905,18.8464177 C15.3929905,17.0553003 16.8530341,15.6012544 18.6583461,15.6012544 L18.6583461,15.6012544 L20.4458648,15.6012544 L20.5618206,14.2277778 C20.8053278,11.3393786 23.242699,9.09653333 26.1792798,9.09653333 Z" id="Combined-Shape" fill="#FFFFFF"></path>
                </g>
            </g>
        </g>
    </g>
</svg>