<?xml version="1.0" encoding="UTF-8"?>
<svg width="40px" height="40px" viewBox="0 0 40 40" version="1.1" xmlns="http://www.w3.org/2000/svg" xmlns:xlink="http://www.w3.org/1999/xlink">
    <title>61</title>
    <g id="Page-1" stroke="none" stroke-width="1" fill="none" fill-rule="evenodd">
        <g id="icons-day" transform="translate(-3534.000000, -6.000000)" fill-rule="nonzero">
            <g id="icons" transform="translate(25.000000, 6.000000)">
                <g id="61" transform="translate(3509.000000, 1.000000)">
                    <polygon id="Path" fill="#FFFFFF" points="23.0912 33.6871619 24.9957742 34.7867429 24.9957742 36.9859048 23.0912 38.0854857 21.1866258 36.9859048 21.1866258 34.7867429"></polygon>
                    <path d="M24.1405238,26.189981 L24.1408,31.2880762 C24.1408,31.8401505 23.6932553,32.2876952 23.141181,32.2876952 C22.5891066,32.2876952 22.1415619,31.8401505 22.1415619,31.2880762 L22.1415238,26.189981 L24.1405238,26.189981 Z M17.9425238,26.189981 L17.9431619,29.2888381 C17.9431619,29.8409125 17.4956172,30.2884571 16.9435429,30.2884571 C16.3914685,30.2884571 15.9439238,29.8409125 15.9439238,29.2888381 L15.9435238,26.189981 L17.9425238,26.189981 Z M30.3375238,26.189981 L30.3384381,29.2888381 C30.3384381,29.8409125 29.8908934,30.2884571 29.338819,30.2884571 C28.7867447,30.2884571 28.3392,29.8409125 28.3392,29.2888381 L28.3385238,26.189981 L30.3375238,26.189981 Z" id="Combined-Shape" fill="#FFFFFF"></path>
                    <polygon id="Path" fill="#FFFFFF" points="16.8935619 31.6879238 18.7981361 32.7875048 18.7981361 34.9866667 16.8935619 36.0862476 14.9889877 34.9866667 14.9889877 32.7875048"></polygon>
                    <polygon id="Path" fill="#FFFFFF" points="29.2888381 31.6879238 31.1934123 32.7875048 31.1934123 34.9866667 29.2888381 36.0862476 27.3842639 34.9866667 27.3842639 32.7875048"></polygon>
                    <path d="M10.6959238,5.99771429 C12.6869566,5.99771429 14.3887559,7.23628542 15.0728545,8.98496028 C14.0421273,10.3448074 13.3788369,11.9969036 13.2278589,13.7947429 L13.2278589,13.7947429 L12.6954618,13.7947429 C11.2865018,13.7947429 9.98758693,14.2646144 8.94673993,15.0561676 C7.21832165,14.3639682 5.99771429,12.6724652 5.99771429,10.6959238 C5.99771429,8.10121265 8.10121265,5.99771429 10.6959238,5.99771429 Z" id="Combined-Shape" fill="#FED100"></path>
                    <rect id="Rectangle" fill="#FED100" x="0" y="9.89622857" width="4.49828571" height="1.59939048" rx="0.799695238"></rect>
                    <rect id="Rectangle" fill="#FED100" transform="translate(4.723172, 16.668692) rotate(-45.000000) translate(-4.723172, -16.668692) " x="2.47402916" y="15.8689972" width="4.49828571" height="1.59939048" rx="0.799695238"></rect>
                    <rect id="Rectangle" fill="#FED100" transform="translate(16.668724, 4.723140) rotate(-45.000000) translate(-16.668724, -4.723140) " x="14.4195813" y="3.92344506" width="4.49828571" height="1.59939048" rx="0.799695238"></rect>
                    <rect id="Rectangle" fill="#FED100" transform="translate(4.723170, 4.723160) rotate(45.000000) translate(-4.723170, -4.723160) " x="2.47402729" y="3.92346441" width="4.49828571" height="1.59939048" rx="0.799695238"></rect>
                    <rect id="Rectangle" fill="#FED100" x="9.89622857" y="0" width="1.59939048" height="4.49828571" rx="0.799695238"></rect>
                    <path d="M22.4785335,6.79740952 C25.8038662,6.79740952 28.7290514,8.90120777 29.8195358,11.9851325 L29.8195358,11.9851325 L30.2348776,13.159485 L31.4654086,12.9665585 C31.7680933,12.9190766 32.0760759,12.8950857 32.3876571,12.8950857 C35.6449158,12.8950857 38.2854095,15.5355794 38.2854095,18.7928381 C38.2854095,22.0500968 35.6449158,24.6905905 32.3876571,24.6905905 L32.3876571,24.6905905 L12.6954618,24.6905905 C10.1001509,24.6905905 7.99695238,22.5875919 7.99695238,19.992381 C7.99695238,17.3973699 10.1000509,15.2941714 12.6954618,15.2941714 L12.6954618,15.2941714 L14.6066334,15.2941714 L14.7220894,13.920195 C15.0589611,9.90852389 18.425778,6.79740952 22.4784335,6.79740952 Z" id="Combined-Shape" fill="#FFFFFF"></path>
                </g>
            </g>
        </g>
    </g>
</svg>