<?xml version="1.0" encoding="UTF-8"?>
<svg width="40px" height="39px" viewBox="0 0 40 39" version="1.1" xmlns="http://www.w3.org/2000/svg" xmlns:xlink="http://www.w3.org/1999/xlink">
    <title>64</title>
    <g id="Page-1" stroke="none" stroke-width="1" fill="none" fill-rule="evenodd">
        <g id="icons-day" transform="translate(-3623.000000, -6.000000)" fill-rule="nonzero">
            <g id="icons" transform="translate(25.000000, 6.000000)">
                <g id="64" transform="translate(3598.000000, 3.400000)">
                    <path d="M10.6959238,5.99771429 C11.4306141,5.99771429 12.1259222,6.16635901 12.7452475,6.4670479 C11.6181455,7.86784304 10.889511,9.60130238 10.7303351,11.4967619 L10.7303351,11.4967619 L10.197938,11.4967619 C8.79686477,11.4967619 7.50460824,11.9613878 6.46671916,12.7449245 C6.16635901,12.1259222 5.99771429,11.4306141 5.99771429,10.6959238 C5.99771429,8.10121265 8.10121265,5.99771429 10.6959238,5.99771429 Z" id="Combined-Shape" fill="#FED100"></path>
                    <rect id="Rectangle" fill="#FED100" x="0" y="9.89622857" width="4.49828571" height="1.59939048" rx="0.799695238"></rect>
                    <rect id="Rectangle" fill="#FED100" transform="translate(4.723126, 4.723160) rotate(45.000000) translate(-4.723126, -4.723160) " x="2.473983" y="3.92346459" width="4.49828571" height="1.59939048" rx="0.799695238"></rect>
                    <rect id="Rectangle" fill="#FED100" x="9.89622857" y="0" width="1.59939048" height="4.49828571" rx="0.799695238"></rect>
                    <polygon id="Path" fill="#FFFFFF" points="22.5913905 31.0881524 24.4959646 32.1877333 24.4959646 34.3868952 22.5913905 35.4864762 20.6868163 34.3868952 20.6868163 32.1877333"></polygon>
                    <path d="M23.64,23.892 L23.6409905,28.6890667 C23.6409905,29.241141 23.1934458,29.6886857 22.6413714,29.6886857 C22.0892971,29.6886857 21.6417524,29.241141 21.6417524,28.6890667 L21.641,23.892 L23.64,23.892 Z M17.443,23.892 L17.4433524,26.6898286 C17.4433524,27.2419029 16.9958077,27.6894476 16.4437333,27.6894476 C15.891659,27.6894476 15.4441143,27.2419029 15.4441143,26.6898286 L15.444,23.892 L17.443,23.892 Z M29.838,23.892 L29.8386286,26.6898286 C29.8386286,27.2419029 29.3910839,27.6894476 28.8390095,27.6894476 C28.2869352,27.6894476 27.8393905,27.2419029 27.8393905,26.6898286 L27.839,23.892 L29.838,23.892 Z" id="Combined-Shape" fill="#FFFFFF"></path>
                    <polygon id="Path" fill="#FFFFFF" points="16.3937524 29.0889143 18.2983266 30.1884952 18.2983266 32.3876571 16.3937524 33.4872381 14.4891782 32.3876571 14.4891782 30.1884952"></polygon>
                    <polygon id="Path" fill="#FFFFFF" points="28.7890286 29.0889143 30.6936027 30.1884952 30.6936027 32.3876571 28.7890286 33.4872381 26.8844544 32.3876571 26.8844544 30.1884952"></polygon>
                    <path d="M19.9810097,4.49942857 C22.6158846,4.49942857 24.9995304,5.82027969 26.4182871,7.90297894 L26.1792798,7.9 C22.4417042,7.9 19.374873,10.7615095 19.0676901,14.4047211 L19.0676901,14.4047211 L18.6583461,14.4047211 C16.0261492,14.4047211 13.8935619,16.5289115 13.8935619,19.1493129 C13.8935619,20.4042947 14.3826903,21.5452741 15.1814329,22.3936809 L10.197938,22.3926095 C7.60262705,22.3926095 5.49942857,20.289611 5.49942857,17.6944 C5.49942857,15.1714726 7.48731104,13.1134143 9.98282788,13.0010245 L10.197938,12.9961905 L12.1091096,12.9961905 L12.2245656,11.6222141 C12.5614373,7.61054293 15.9282542,4.49942857 19.9810097,4.49942857 Z" id="Combined-Shape" fill="#FFFFFF"></path>
                    <path d="M26.1792798,9.39942857 C28.5891614,9.39942857 30.7076541,10.9166504 31.4966534,13.1384037 L31.4966534,13.1384037 L31.9125949,14.3097573 L33.1408268,14.1181303 C33.3560448,14.0845431 33.5751613,14.0675496 33.7970767,14.0675496 C36.1110949,14.0675496 37.984381,15.9329387 37.984381,18.2310629 C37.984381,20.5289871 36.1110949,22.3944762 33.7970767,22.3944762 L33.7970767,22.3944762 L18.6583461,22.3944762 C16.8533339,22.3944762 15.3929905,20.9405303 15.3929905,19.1493129 C15.3929905,17.3581955 16.8530341,15.9041496 18.6583461,15.9041496 L18.6583461,15.9041496 L20.4458648,15.9041496 L20.5618206,14.5306731 C20.8053278,11.6422738 23.242699,9.39942857 26.1792798,9.39942857 Z" id="Combined-Shape" fill="#FFFFFF"></path>
                </g>
            </g>
        </g>
    </g>
</svg>