<?xml version="1.0" encoding="UTF-8"?>
<svg width="40px" height="39px" viewBox="0 0 40 39" version="1.1" xmlns="http://www.w3.org/2000/svg" xmlns:xlink="http://www.w3.org/1999/xlink">
    <title>67</title>
    <g id="Page-1" stroke="none" stroke-width="1" fill="none" fill-rule="evenodd">
        <g id="icons-day" transform="translate(-3716.000000, -6.000000)" fill="#FFFFFF" fill-rule="nonzero">
            <g id="icons" transform="translate(25.000000, 6.000000)">
                <g id="67" transform="translate(3692.499429, 7.499429)">
                    <polygon id="Path" points="17.4933333 26.8897524 19.3979075 27.9893333 19.3979075 30.1884952 17.4933333 31.2880762 15.5887592 30.1884952 15.5887592 27.9893333"></polygon>
                    <path d="M18.5425714,19.3924986 L18.5429333,24.4906667 C18.5429333,25.042741 18.0953886,25.4902857 17.5433143,25.4902857 C16.9912399,25.4902857 16.5436952,25.042741 16.5436952,24.4906667 L16.5435714,19.3924986 L18.5425714,19.3924986 Z M12.3445714,19.3924986 L12.3452952,22.4914286 C12.3452952,23.0435029 11.8977505,23.4910476 11.3456762,23.4910476 C10.7936018,23.4910476 10.3460571,23.0435029 10.3460571,22.4914286 L10.3455714,19.3924986 L12.3445714,19.3924986 Z M24.7402192,19.3844986 L24.7405714,22.4914286 C24.7405714,23.0435029 24.2930267,23.4910476 23.7409524,23.4910476 C23.188878,23.4910476 22.7413333,23.0435029 22.7413333,22.4914286 L22.7405714,19.3924986 L24.3907048,19.3926095 C24.5078658,19.3926095 24.6243906,19.3898859 24.7402192,19.3844986 Z" id="Combined-Shape"></path>
                    <polygon id="Path" points="11.2956952 24.8905143 13.2002694 25.9900952 13.2002694 28.1892571 11.2956952 29.2888381 9.39112107 28.1892571 9.39112107 25.9900952"></polygon>
                    <polygon id="Path" points="23.6909714 24.8905143 25.5955456 25.9900952 25.5955456 28.1892571 23.6909714 29.2888381 21.7863973 28.1892571 21.7863973 25.9900952"></polygon>
                    <path d="M14.4814811,1.77635684e-15 C17.3485996,1.77635684e-15 19.9181703,1.56384923 21.2708965,3.97139323 C18.9023155,4.98297341 17.1947732,7.23324591 16.9696329,9.90342583 L16.9696329,9.90342583 L16.5602889,9.90342583 C13.928092,9.90342583 11.7955048,12.0276163 11.7955048,14.6480177 C11.7955048,15.9036168 12.2851145,17.0451014 13.0845548,17.8936376 L4.69850941,17.893181 C2.10319848,17.893181 4.61142236e-12,15.7901824 4.61142236e-12,13.1949714 C4.61142236e-12,10.672044 1.98788247,8.61398575 4.4833993,8.50159588 L4.69850941,8.4967619 L6.60968107,8.4967619 L6.72513707,7.12278552 C7.06200869,3.11111436 10.4288256,1.77635684e-15 14.4814811,1.77635684e-15 Z" id="Combined-Shape"></path>
                    <path d="M24.0812227,4.89813333 C26.4911043,4.89813333 28.609597,6.41535512 29.3985963,8.63710842 L29.3985963,8.63710842 L29.8145378,9.80846202 L31.0427697,9.61683505 C31.2579877,9.58324785 31.4771042,9.56625432 31.6990196,9.56625432 C34.0130377,9.56625432 35.8863238,11.4316434 35.8863238,13.7297676 C35.8863238,16.0276919 34.0130377,17.893181 31.6990196,17.893181 L31.6990196,17.893181 L16.5602889,17.893181 C14.7552768,17.893181 13.2949333,16.439235 13.2949333,14.6480177 C13.2949333,12.8569003 14.7549769,11.4028544 16.5602889,11.4028544 L16.5602889,11.4028544 L18.3478077,11.4028544 L18.4637635,10.0293778 C18.7072707,7.14097859 21.1446418,4.89813333 24.0812227,4.89813333 Z" id="Combined-Shape"></path>
                </g>
            </g>
        </g>
    </g>
</svg>