<?xml version="1.0" encoding="UTF-8"?>
<svg width="40px" height="40px" viewBox="0 0 40 40" version="1.1" xmlns="http://www.w3.org/2000/svg" xmlns:xlink="http://www.w3.org/1999/xlink">
    <title>44</title>
    <g id="Page-1" stroke="none" stroke-width="1" fill="none" fill-rule="evenodd">
        <g id="icons-day" transform="translate(-2185.000000, -6.000000)" fill-rule="nonzero">
            <g id="icons" transform="translate(25.000000, 6.000000)">
                <g id="44" transform="translate(2160.000000, 3.400000)">
                    <path d="M10.6959238,5.99771429 C11.200451,5.99771429 11.6864061,6.0772447 12.141936,6.22445253 L12.265442,6.2677088 C11.1840637,7.64977044 10.4857536,9.34604499 10.3303351,11.1967619 L10.3303351,11.1967619 L9.79793798,11.1967619 C8.48995285,11.1967619 7.27680507,11.6016988 6.27691884,12.2930147 C6.09614724,11.7955199 5.99771429,11.257215 5.99771429,10.6959238 C5.99771429,8.10121265 8.10121265,5.99771429 10.6959238,5.99771429 Z" id="Combined-Shape" fill="#FED100"></path>
                    <rect id="Rectangle" fill="#FED100" x="0" y="9.89622857" width="4.49828571" height="1.59939048" rx="0.799695238"></rect>
                    <rect id="Rectangle" fill="#FED100" transform="translate(4.723126, 4.723160) rotate(45.000000) translate(-4.723126, -4.723160) " x="2.473983" y="3.92346459" width="4.49828571" height="1.59939048" rx="0.799695238"></rect>
                    <rect id="Rectangle" fill="#FED100" x="9.89622857" y="0" width="1.59939048" height="4.49828571" rx="0.799695238"></rect>
                    <path d="M19.5810097,4.19942857 C22.2141974,4.19942857 24.5964777,5.51858873 26.0155606,7.59897917 C22.3513965,7.68210385 19.3703199,10.5126144 19.0676901,14.1018258 L19.0676901,14.1018258 L18.6583461,14.1018258 C16.0261492,14.1018258 13.8935619,16.2260163 13.8935619,18.8464177 C13.8935619,20.1025155 14.3835606,21.2444081 15.1835645,22.0930484 L9.79793798,22.0926095 C7.20262705,22.0926095 5.09942857,19.989611 5.09942857,17.3944 C5.09942857,14.8714726 7.08731104,12.8134143 9.58282788,12.7010245 L9.79793798,12.6961905 L11.7091096,12.6961905 L11.8245656,11.3222141 C12.1614373,7.31054293 15.5282542,4.19942857 19.5810097,4.19942857 Z" id="Combined-Shape" fill="#FFFFFF"></path>
                    <path d="M26.1792798,9.09653333 C28.5891614,9.09653333 30.7076541,10.6137551 31.4966534,12.8355084 L31.4966534,12.8355084 L31.9125949,14.006862 L33.1408268,13.815235 C33.3560448,13.7816478 33.5751613,13.7646543 33.7970767,13.7646543 C36.1110949,13.7646543 37.984381,15.6300434 37.984381,17.9281676 C37.984381,20.2260919 36.1110949,22.091581 33.7970767,22.091581 L33.7970767,22.091581 L18.6583461,22.091581 C16.8533339,22.091581 15.3929905,20.637635 15.3929905,18.8464177 C15.3929905,17.0553003 16.8530341,15.6012544 18.6583461,15.6012544 L18.6583461,15.6012544 L20.4458648,15.6012544 L20.5618206,14.2277778 C20.8053278,11.3393786 23.242699,9.09653333 26.1792798,9.09653333 Z" id="Combined-Shape" fill="#FFFFFF"></path>
                    <g id="Group" transform="translate(14.294552, 26.289981)" fill="#FFFFFF">
                        <path d="M5.59786943,6.19903756 C5.59786943,7.74404876 4.34474423,8.99657143 2.79893333,8.99657143 C1.25312244,8.99657143 0,7.74404876 0,6.19903756 C0,5.77100069 0.0961633524,5.36535528 0.26819779,5.00259352 L1.83560046,1.0147133 C2.36719787,-0.337771276 3.22866956,-0.338770895 3.76056686,1.0147133 L5.3206723,4.98380069 C5.50368832,5.36273768 5.59845935,5.7782196 5.59786943,6.19903756 L5.59786943,6.19903756 Z" id="Path"></path>
                        <path d="M13.3948952,3.09881905 L15.3933336,1.90757303 C15.7759878,1.68465798 16.2654013,1.81700754 16.4863171,2.20306042 C16.7072329,2.58901333 16.5761829,3.08272518 16.1934287,3.30564023 L14.1945905,4.49828571 L16.1934287,5.69103116 C16.5761829,5.91394621 16.7072329,6.4075581 16.4863171,6.79361097 C16.2654013,7.17956389 15.7759878,7.31191345 15.3933336,7.0889984 L13.3948952,5.89775238 L13.3948952,8.20567284 C13.3948952,8.64250636 13.0368317,8.99657143 12.5952,8.99657143 C12.1535683,8.99657143 11.7955048,8.64250636 11.7955048,8.20567284 L11.7955048,5.89775238 L9.69710446,7.0889984 C9.31445029,7.31191345 8.8250368,7.17956389 8.60412099,6.79351101 C8.38320518,6.4075581 8.51425524,5.91384625 8.89700937,5.6909312 L10.8958476,4.49828571 L8.89700937,3.30554027 C8.51425524,3.08262522 8.38320518,2.58901333 8.60412099,2.20296046 C8.8250368,1.81700754 9.31445029,1.68465798 9.69710446,1.90757303 L11.7955048,3.09881905 L11.7955048,0.79089859 C11.7955048,0.354065067 12.1535683,0 12.5952,0 C13.0368317,0 13.3948952,0.354065067 13.3948952,0.79089859 L13.3948952,3.09881905 Z" id="Path"></path>
                    </g>
                </g>
            </g>
        </g>
    </g>
</svg>