<?xml version="1.0" encoding="UTF-8"?>
<svg width="40px" height="40px" viewBox="0 0 40 40" version="1.1" xmlns="http://www.w3.org/2000/svg" xmlns:xlink="http://www.w3.org/1999/xlink">
    <title>9</title>
    <g id="Page-1" stroke="none" stroke-width="1" fill="none" fill-rule="evenodd">
        <g id="icons-day" transform="translate(-475.000000, -6.000000)" fill="#FFFFFF" fill-rule="nonzero">
            <g id="icons" transform="translate(25.000000, 6.000000)">
                <g id="9" transform="translate(456.000000, 11.000000)">
                    <path d="M5.69782857,1.59939048 C5.25616909,1.59939048 4.89813333,1.24135472 4.89813333,0.799695238 C4.89813333,0.358035754 5.25616909,0 5.69782857,0 L21.2918857,0 C21.7335452,0 22.091581,0.358035754 22.091581,0.799695238 C22.091581,1.24135472 21.7335452,1.59939048 21.2918857,1.59939048 L5.69782857,1.59939048 Z M5.69782857,20.992 C5.25616909,20.992 4.89813333,20.6339642 4.89813333,20.1923048 C4.89813333,19.7506453 5.25616909,19.3926095 5.69782857,19.3926095 L21.2918857,19.3926095 C21.7335452,19.3926095 22.091581,19.7506453 22.091581,20.1923048 C22.091581,20.6339642 21.7335452,20.992 21.2918857,20.992 L5.69782857,20.992 Z M5.69782857,11.2956952 C5.25616909,11.2956952 4.89813333,10.9376595 4.89813333,10.496 C4.89813333,10.0543405 5.25616909,9.69630476 5.69782857,9.69630476 L21.2918857,9.69630476 C21.7335452,9.69630476 22.091581,10.0543405 22.091581,10.496 C22.091581,10.9376595 21.7335452,11.2956952 21.2918857,11.2956952 L5.69782857,11.2956952 Z M13.2949333,16.1938286 C12.8532738,16.1938286 12.4952381,15.8357928 12.4952381,15.3941333 C12.4952381,14.9524738 12.8532738,14.5944381 13.2949333,14.5944381 L26.289981,14.5944381 C26.7316404,14.5944381 27.0896762,14.9524738 27.0896762,15.3941333 C27.0896762,15.8357928 26.7316404,16.1938286 26.289981,16.1938286 L13.2949333,16.1938286 Z M0.799695238,16.1938286 C0.358035754,16.1938286 0,15.8357928 0,15.3941333 C0,14.9524738 0.358035754,14.5944381 0.799695238,14.5944381 L8.79664762,14.5944381 C9.2383071,14.5944381 9.59634286,14.9524738 9.59634286,15.3941333 C9.59634286,15.8357928 9.2383071,16.1938286 8.79664762,16.1938286 L0.799695238,16.1938286 Z M0.799695238,6.49752381 C0.358035754,6.49752381 0,6.13948806 0,5.69782857 C0,5.25616909 0.358035754,4.89813333 0.799695238,4.89813333 L13.7947429,4.89813333 C14.2364023,4.89813333 14.5944381,5.25616909 14.5944381,5.69782857 C14.5944381,6.13948806 14.2364023,6.49752381 13.7947429,6.49752381 L0.799695238,6.49752381 Z M18.2930286,6.49752381 C17.8513691,6.49752381 17.4933333,6.13948806 17.4933333,5.69782857 C17.4933333,5.25616909 17.8513691,4.89813333 18.2930286,4.89813333 L26.289981,4.89813333 C26.7316404,4.89813333 27.0896762,5.25616909 27.0896762,5.69782857 C27.0896762,6.13948806 26.7316404,6.49752381 26.289981,6.49752381 L18.2930286,6.49752381 Z" id="Shape"></path>
                </g>
            </g>
        </g>
    </g>
</svg>