<?xml version="1.0" standalone="no"?>
<!DOCTYPE svg PUBLIC "-//W3C//DTD SVG 20010904//EN"
 "http://www.w3.org/TR/2001/REC-SVG-20010904/DTD/svg10.dtd">
<svg version="1.0" xmlns="http://www.w3.org/2000/svg"
 width="3526.000000pt" height="3511.000000pt" viewBox="0 0 3526.000000 3511.000000"
 preserveAspectRatio="xMidYMid meet">
<metadata>
Created by potrace 1.15, written by Peter Selinger 2001-2017
</metadata>
<g transform="translate(0.000000,3511.000000) scale(0.100000,-0.100000)"
fill="#ffffff" stroke="none">
<path d="M16930 35100 c-914 -41 -1730 -133 -2568 -291 -2152 -404 -4203
-1203 -6062 -2362 -2478 -1544 -4545 -3688 -5994 -6215 -1323 -2307 -2100
-4883 -2271 -7532 -48 -747 -48 -1547 0 -2290 299 -4598 2398 -8867 5882
-11966 578 -514 1265 -1044 1918 -1481 2533 -1692 5482 -2703 8515 -2918 788
-56 1646 -59 2415 -9 4679 302 9017 2435 12121 5959 2434 2764 3934 6206 4288
9845 62 626 80 1027 80 1715 0 1062 -69 1897 -240 2920 -644 3836 -2579 7371
-5489 10026 -2572 2345 -5748 3868 -9185 4403 -557 87 -1108 144 -1800 186
-223 14 -1366 21 -1610 10z m1180 -580 c1262 -39 2430 -196 3610 -487 3444
-847 6555 -2766 8875 -5473 2221 -2590 3603 -5765 3974 -9125 70 -629 91
-1000 98 -1690 6 -579 -2 -898 -33 -1350 -229 -3383 -1477 -6617 -3587 -9295
-631 -801 -1376 -1587 -2152 -2271 -1230 -1084 -2652 -2006 -4155 -2696 -2672
-1226 -5609 -1736 -8570 -1488 -1633 137 -3267 519 -4790 1120 -1964 774
-3752 1896 -5329 3343 -192 176 -848 836 -1022 1027 -1232 1357 -2198 2818
-2940 4448 -1161 2552 -1662 5349 -1463 8177 122 1740 513 3443 1162 5065
1283 3203 3540 5967 6437 7880 2459 1623 5255 2572 8190 2779 570 40 1150 53
1695 36z"/>
<path d="M17485 31013 c-2337 -40 -4647 -484 -6605 -1268 -461 -185 -1010
-440 -1162 -541 -89 -59 -214 -194 -260 -280 -20 -38 -49 -109 -65 -159 l-28
-90 -3 -8707 -2 -8706 97 -60 c402 -247 968 -423 1568 -488 331 -36 797 -21
1145 37 480 80 992 259 1308 460 l82 52 0 635 c0 548 2 633 14 629 57 -22 455
-140 661 -197 971 -265 1927 -416 2965 -470 107 -5 391 -10 630 -10 440 0 657
8 1030 36 1012 76 2043 273 3035 581 99 30 186 58 193 60 9 4 12 -126 12 -628
l0 -634 83 -53 c302 -197 827 -382 1307 -461 348 -58 814 -73 1145 -37 600 65
1166 241 1568 488 l97 60 0 8628 c0 7545 -2 8638 -15 8711 -50 289 -200 526
-411 654 -239 145 -921 456 -1394 635 -1827 692 -3840 1063 -6090 1120 -356 9
-535 10 -905 3z m1420 -502 c884 -49 1606 -127 2362 -256 1357 -231 2626 -605
3718 -1096 273 -122 638 -311 683 -353 71 -66 121 -169 140 -291 11 -67 29
-69 -168 15 -865 369 -2059 714 -3250 939 -1936 366 -4115 486 -6245 345
-2232 -147 -4458 -619 -6138 -1300 -88 -35 -161 -64 -164 -64 -10 0 7 143 23
199 12 41 28 66 68 107 44 44 89 70 272 161 801 398 1793 756 2844 1027 1201
309 2570 510 3860 566 135 6 277 12 315 14 157 7 1494 -3 1680 -13z m-350
-1131 c1229 -35 2334 -142 3436 -335 243 -42 810 -154 892 -176 l38 -10 -3
-512 c-3 -506 -3 -512 -25 -553 -34 -64 -71 -103 -127 -132 l-51 -27 -4880 0
-4880 0 -45 21 c-57 26 -104 73 -138 138 l-27 51 -3 496 -3 496 78 17 c1778
396 3797 581 5738 526z m5116 -704 c765 -206 1495 -458 2019 -695 l125 -57 3
-4046 2 -4045 -227 -110 c-1086 -528 -2477 -980 -3888 -1262 -2349 -469 -4844
-504 -7205 -100 -1620 276 -3212 766 -4443 1366 l-217 106 0 4043 0 4042 143
61 c576 244 1262 474 1997 670 140 38 267 71 283 75 l27 6 0 -453 c0 -422 1
-459 20 -533 67 -261 247 -452 510 -541 53 -17 219 -18 4985 -21 4892 -2 4931
-2 5010 18 137 34 237 91 340 195 101 100 156 192 196 325 22 72 23 92 27 553
2 262 7 477 11 477 4 0 131 -33 282 -74z m-13416 -9578 c247 -110 690 -287
990 -396 1652 -596 3520 -966 5410 -1072 736 -41 1614 -41 2350 0 2413 135
4793 705 6698 1603 l117 56 0 -2129 0 -2128 -127 -99 c-524 -406 -1189 -820
-1878 -1168 -2667 -1347 -5660 -1760 -8560 -1180 -1484 297 -2938 859 -4245
1642 -377 226 -771 494 -1067 726 l-103 80 0 2128 0 2128 118 -55 c64 -31 198
-92 297 -136z m-366 -4717 c20 -15 110 -80 201 -143 817 -566 1738 -1054 2705
-1433 116 -45 227 -88 248 -94 l37 -13 0 -579 0 -579 -57 -28 c-245 -123 -615
-235 -947 -287 -249 -39 -410 -48 -709 -42 -331 7 -528 32 -827 103 -152 37
-447 137 -580 197 l-115 53 -3 1437 c-1 790 1 1437 4 1437 3 0 23 -13 43 -29z
m15931 -1407 l0 -1435 -92 -43 c-293 -137 -671 -241 -1058 -293 -194 -26 -735
-26 -935 0 -372 49 -732 146 -1033 280 l-117 52 -2 580 -3 580 218 84 c843
324 1686 751 2432 1231 164 105 401 267 505 346 39 29 73 53 78 53 4 1 7 -645
7 -1435z"/>
<path d="M11589 17664 c-421 -76 -735 -350 -873 -765 -105 -314 -97 -653 26
-1007 206 -600 717 -1068 1287 -1181 386 -77 744 17 1009 264 186 174 298 378
358 656 27 120 27 434 0 574 -125 669 -627 1242 -1241 1420 -188 54 -402 69
-566 39z"/>
<path d="M23735 17674 c-367 -54 -684 -219 -958 -498 -370 -376 -576 -917
-529 -1391 43 -425 240 -759 562 -948 435 -256 1013 -185 1490 184 351 272
603 679 690 1115 31 154 38 385 16 527 -80 509 -384 863 -846 984 -76 20 -125
25 -245 28 -82 2 -163 1 -180 -1z"/>
<path d="M21385 14555 c-27 -7 -151 -42 -275 -78 -848 -248 -1687 -406 -2510
-472 -1299 -104 -2662 52 -4148 475 -219 63 -224 64 -280 52 -114 -24 -198
-105 -221 -214 -23 -103 26 -221 114 -277 62 -39 546 -175 995 -280 909 -211
1731 -315 2590 -328 1003 -15 1998 107 3085 379 260 65 715 193 806 227 101
38 167 125 176 231 17 183 -155 330 -332 285z"/>
<path d="M14013 8745 l-35 -35 4 -1807 c3 -1704 4 -1809 21 -1834 32 -47 47
-49 398 -49 348 0 374 3 395 47 5 10 11 470 14 1022 l5 1005 1023 -1040 c562
-571 1036 -1049 1054 -1061 25 -19 44 -23 104 -23 67 0 77 3 106 29 l33 29 3
1794 c2 1281 0 1804 -8 1831 -7 25 -22 45 -43 57 -30 19 -53 20 -367 20 -316
0 -337 -1 -367 -20 -18 -11 -34 -21 -35 -22 -2 -2 -5 -439 -8 -972 l-5 -969
-1045 1016 -1045 1017 -83 0 c-83 0 -85 -1 -119 -35z"/>
<path d="M9505 8721 c-11 -5 -29 -19 -40 -31 -20 -22 -20 -36 -20 -1816 l0
-1794 28 -27 27 -28 1013 -3 c749 -2 1019 1 1040 9 55 23 57 38 57 389 l0 322
-29 29 -29 29 -641 0 -641 0 0 1420 c0 1561 4 1462 -60 1495 -24 13 -82 15
-357 14 -180 0 -337 -4 -348 -8z"/>
<path d="M12244 8720 c-12 -4 -31 -21 -43 -36 l-21 -27 0 -1784 0 -1785 34
-34 35 -35 350 3 351 3 27 28 28 27 3 1781 c2 1579 0 1783 -13 1809 -30 58
-42 60 -402 59 -180 0 -338 -4 -349 -9z"/>
<path d="M17923 8715 c-18 -8 -42 -29 -53 -47 -20 -33 -20 -46 -20 -1793 0
-1748 0 -1760 20 -1793 37 -61 53 -63 430 -60 l338 3 27 25 c15 14 32 34 38
45 9 14 13 239 17 817 l5 797 603 -828 c379 -520 612 -832 628 -840 17 -8 147
-11 429 -11 l403 0 31 26 c44 37 57 93 34 142 -10 22 -315 429 -678 906 -363
477 -660 871 -660 876 0 5 276 358 613 784 336 426 617 787 622 802 12 31 5
78 -18 113 -32 48 -56 51 -422 51 -380 0 -381 0 -440 -66 -19 -22 -285 -355
-590 -740 l-555 -701 -5 708 c-5 696 -5 708 -26 736 -45 61 -56 63 -414 63
-256 -1 -332 -4 -357 -15z"/>
<path d="M21514 8716 c-17 -8 -40 -26 -52 -41 l-22 -28 0 -1773 0 -1774 34
-38 34 -37 343 -3 c364 -3 377 -2 421 45 l23 25 5 813 5 814 603 -829 c332
-456 610 -834 619 -842 13 -10 103 -14 424 -16 452 -3 453 -3 485 60 40 76 66
36 -662 994 -367 483 -668 886 -668 894 0 8 273 360 606 781 333 422 611 776
617 787 6 12 11 39 11 61 0 33 -7 49 -34 79 l-34 37 -359 3 c-316 2 -362 1
-395 -14 -30 -13 -150 -159 -625 -758 l-588 -741 -5 722 c-5 703 -5 721 -25
743 -42 47 -63 50 -407 50 -248 -1 -330 -4 -354 -14z"/>
<path d="M25074 8711 c-17 -10 -36 -34 -43 -52 -8 -23 -11 -509 -11 -1791 0
-1933 -4 -1800 60 -1833 24 -12 84 -15 360 -15 344 0 358 2 392 44 17 20 18
130 18 1812 l0 1790 -31 30 -30 29 -342 3 c-323 2 -344 1 -373 -17z"/>
</g>
</svg>
