<svg version="1.0"
    xmlns="http://www.w3.org/2000/svg" width="1181.000000pt" height="472.000000pt" viewBox="0 0 1181.000000 472.000000" preserveAspectRatio="xMidYMid meet">

    <g transform="translate(0.000000,472.000000) scale(0.100000,-0.100000)" fill="#FFFFFF" stroke="none">
        <path d="M480 4534 c-246 -66 -367 -340 -254 -573 94 -191 334 -274 529 -182
90 41 148 99 193 189 35 73 37 80 37 177 0 97 -2 104 -38 177 -87 176 -278
263 -467 212z"/>
        <path d="M2398 4540 c-217 -20 -491 -86 -626 -151 -74 -36 -177 -128 -223
-200 -169 -264 -84 -634 182 -792 133 -79 307 -103 444 -63 249 74 389 91 556
66 659 -96 1068 -771 845 -1395 -162 -453 -629 -750 -1093 -696 -257 30 -463
129 -644 310 -140 141 -228 297 -280 496 -30 116 -33 349 -5 460 34 140 41
209 28 298 -47 320 -358 539 -672 473 -112 -24 -211 -77 -289 -155 -105 -105
-145 -199 -192 -446 -27 -140 -38 -496 -19 -643 63 -510 297 -980 661 -1326
358 -340 802 -546 1287 -597 158 -16 444 -7 597 20 963 169 1696 945 1806
1910 17 152 7 485 -19 631 -139 771 -685 1418 -1417 1679 -286 101 -635 147
-927 121z"/>
        <path d="M6138 4485 c-199 -49 -362 -207 -413 -401 -20 -76 -20 -239 1 -317
53 -204 214 -354 432 -403 107 -24 261 -16 362 20 177 61 302 191 356 371 25
82 25 258 0 340 -77 257 -292 407 -580 404 -56 0 -127 -7 -158 -14z m297 -278
c65 -33 97 -68 132 -142 53 -115 32 -264 -51 -362 -63 -74 -196 -109 -301 -78
-78 22 -163 105 -188 184 -58 181 23 364 185 417 64 21 162 13 223 -19z"/>
        <path d="M8069 4477 c-18 -12 -39 -34 -46 -47 -20 -39 -18 -971 1 -1009 44
-85 176 -90 226 -9 19 32 20 49 20 519 0 478 0 487 -21 513 -46 58 -122 72
-180 33z"/>
        <path d="M9501 4182 c-69 -35 -71 -48 -71 -405 0 -368 1 -375 78 -409 77 -34
160 2 182 80 5 20 10 130 10 245 l0 207 47 30 c78 50 183 37 211 -25 8 -17 12
-93 12 -231 0 -223 6 -253 55 -292 61 -48 146 -32 192 37 22 33 23 40 23 301
0 345 -11 384 -122 446 -49 27 -61 29 -153 29 -107 0 -161 -17 -231 -70 -37
-28 -44 -30 -44 -12 0 18 -49 64 -83 76 -40 15 -67 14 -106 -7z"/>
        <path d="M7088 4174 c-55 -29 -58 -47 -58 -361 0 -282 1 -289 24 -339 39 -84
118 -124 246 -124 83 0 154 21 218 64 l50 33 15 -32 c40 -84 177 -85 227 -2
19 30 20 52 20 360 0 360 -2 372 -60 402 -64 33 -156 11 -185 -45 -12 -23 -15
-72 -15 -248 l0 -218 -27 -26 c-40 -37 -69 -49 -116 -51 -59 -2 -103 19 -121
58 -13 27 -16 73 -16 245 0 232 -4 250 -60 284 -35 20 -106 20 -142 0z"/>
        <path d="M8489 4151 l-39 -39 0 -284 c0 -331 4 -354 76 -417 96 -84 284 -83
412 2 l49 33 16 -28 c26 -46 74 -70 131 -65 42 4 55 10 83 41 l33 36 0 340 c0
300 -2 344 -16 366 -23 35 -65 54 -119 54 -38 0 -52 -6 -83 -34 l-37 -34 -3
-231 -3 -230 -34 -30 c-70 -62 -173 -60 -219 2 -19 26 -21 45 -26 255 -3 158
-9 234 -18 249 -18 33 -64 53 -118 53 -41 0 -51 -5 -85 -39z"/>
        <path d="M9030 2872 l-40 -40 0 -162 0 -162 -41 36 c-53 45 -116 66 -198 66
-162 -1 -282 -96 -332 -263 -18 -56 -20 -87 -17 -185 5 -136 26 -202 88 -281
104 -131 320 -159 453 -57 l43 33 17 -28 c36 -64 123 -87 184 -49 65 39 64 28
61 570 l-3 490 -32 31 c-26 27 -41 33 -87 37 -54 4 -57 3 -96 -36z m-105 -520
c64 -31 65 -35 65 -163 0 -116 -1 -119 -27 -144 -57 -52 -161 -59 -223 -15
-68 48 -90 166 -47 250 46 90 138 119 232 72z"/>
        <path d="M5931 2595 c-64 -18 -104 -42 -148 -87 -44 -46 -63 -96 -63 -170 0
-147 83 -214 313 -254 117 -20 149 -36 145 -72 -7 -61 -137 -64 -266 -6 -31
14 -73 27 -93 27 -64 3 -109 -44 -109 -113 0 -124 341 -204 546 -129 122 45
197 160 179 277 -20 132 -97 190 -310 232 -113 22 -155 40 -155 65 0 49 126
61 225 20 80 -33 125 -33 159 1 20 21 26 37 26 70 0 59 -29 89 -115 121 -89
33 -250 41 -334 18z"/>
        <path d="M6789 2587 c-119 -41 -189 -103 -243 -217 -30 -62 -31 -71 -31 -190
0 -114 3 -130 27 -183 52 -110 168 -199 296 -226 147 -31 357 11 406 81 27 38
21 95 -13 129 -36 35 -73 38 -149 9 -118 -45 -240 -10 -288 83 l-15 27 228 0
c257 0 295 6 324 53 27 42 22 150 -10 221 -84 191 -320 285 -532 213z m228
-204 c34 -16 73 -64 73 -90 0 -10 -38 -13 -155 -13 -85 0 -155 3 -155 8 0 19
43 74 72 92 41 25 117 26 165 3z"/>
        <path d="M7543 2596 c-18 -8 -42 -30 -53 -48 -19 -31 -20 -50 -20 -313 0 -165
4 -296 11 -318 13 -48 61 -102 112 -128 93 -48 262 -31 363 35 l50 34 16 -28
c49 -85 178 -90 228 -8 19 31 20 50 20 363 0 309 -1 332 -20 362 -34 56 -104
76 -165 47 -67 -31 -69 -41 -75 -297 l-5 -230 -38 -30 c-47 -39 -141 -50 -183
-22 -48 31 -54 66 -54 292 0 188 -2 211 -20 240 -10 17 -28 36 -38 42 -35 19
-96 22 -129 7z"/>
        <path d="M9501 2593 c-69 -34 -71 -45 -71 -357 0 -315 4 -339 65 -402 91 -95
304 -98 431 -5 l40 28 16 -27 c36 -63 127 -88 185 -51 63 40 62 33 63 405 1
318 0 341 -17 365 -60 82 -185 74 -227 -14 -13 -27 -16 -72 -16 -247 l0 -214
-27 -26 c-56 -54 -161 -66 -208 -25 -38 32 -44 78 -45 303 0 191 -1 203 -22
229 -23 30 -74 55 -110 55 -13 0 -38 -8 -57 -17z"/>
        <path d="M10472 2590 c-61 -37 -63 -54 -60 -421 l3 -331 37 -34 c33 -30 44
-34 92 -34 66 0 110 31 126 88 5 20 10 130 10 244 l0 207 33 25 c34 26 106 49
128 42 8 -2 27 -7 42 -10 16 -4 36 -20 47 -39 18 -29 20 -51 20 -240 0 -226 6
-256 55 -295 39 -31 121 -31 160 0 51 40 55 65 55 346 0 299 -7 339 -69 401
-101 101 -328 94 -448 -13 -13 -10 -24 -18 -25 -15 -2 2 -10 18 -19 34 -34 61
-125 83 -187 45z"/>
        <path d="M6260 1383 c-49 -25 -80 -76 -80 -130 0 -53 18 -92 62 -128 29 -24
38 -27 95 -23 67 4 100 25 129 80 31 59 8 151 -48 191 -38 28 -114 33 -158 10z"/>
        <path d="M6701 1382 c-48 -24 -73 -62 -79 -120 -5 -55 10 -92 53 -132 23 -22
36 -25 95 -25 59 0 72 3 95 25 107 100 47 270 -95 270 -19 0 -50 -8 -69 -18z"/>
        <path d="M5818 1304 c-58 -31 -58 -29 -58 -556 1 -374 4 -488 14 -506 21 -38
66 -62 119 -62 40 0 53 5 85 34 l37 34 3 497 3 497 -40 39 c-34 35 -44 39 -87
39 -27 -1 -61 -7 -76 -16z"/>
        <path d="M7122 1286 l-37 -34 0 -502 0 -502 37 -34 c31 -28 45 -34 83 -34 94
0 135 46 135 153 0 63 1 66 40 101 l40 36 28 -32 c16 -18 65 -78 110 -134 45
-55 93 -106 107 -112 14 -7 46 -12 70 -12 82 0 138 75 121 163 -4 22 -41 70
-123 161 l-117 128 97 92 c105 100 117 117 117 171 0 94 -96 153 -179 110 -16
-8 -92 -81 -170 -162 l-141 -148 0 268 c0 295 -3 313 -60 342 -16 8 -50 15
-75 15 -38 0 -52 -6 -83 -34z"/>
        <path d="M6264 1001 c-65 -40 -64 -32 -64 -399 0 -291 2 -337 16 -362 24 -39
65 -60 119 -60 42 0 52 5 86 39 l39 39 0 333 c0 317 -1 336 -20 367 -36 58
-118 78 -176 43z"/>
        <path d="M6703 1000 c-62 -37 -63 -44 -63 -411 l0 -331 39 -39 c34 -34 44 -39
86 -39 54 0 95 21 119 60 14 25 16 71 16 363 0 324 -1 335 -21 361 -44 56
-118 72 -176 36z"/>
        <path d="M8195 1002 c-120 -41 -196 -109 -249 -221 -29 -63 -31 -72 -31 -186
0 -114 2 -123 32 -187 57 -121 154 -195 297 -225 130 -27 327 7 388 67 38 38
39 96 2 139 -31 37 -71 40 -154 11 -101 -36 -189 -21 -252 42 -66 66 -67 66
200 70 200 3 242 6 268 20 43 24 58 64 52 146 -11 150 -121 280 -277 326 -73
22 -211 21 -276 -2z m187 -192 c48 -14 93 -52 107 -90 l10 -30 -159 0 -159 0
10 29 c13 38 48 70 96 86 47 17 49 17 95 5z"/>
        <path d="M8912 986 l-37 -34 -3 -347 -3 -347 39 -39 c35 -34 45 -39 86 -39 26
0 60 7 76 15 55 29 60 52 60 293 l0 220 35 30 c33 29 89 52 128 52 10 0 33 -7
53 -15 58 -24 64 -53 64 -293 0 -201 1 -210 23 -243 28 -41 60 -59 110 -59 47
0 88 21 113 57 17 25 19 52 22 280 4 281 -4 348 -46 408 -43 62 -100 88 -203
93 -104 5 -174 -13 -246 -62 l-49 -34 -13 30 c-19 42 -66 68 -124 68 -40 0
-53 -5 -85 -34z"/>
        <path d="M9912 1000 c-59 -36 -62 -55 -62 -400 0 -345 3 -364 62 -400 42 -26
104 -26 146 0 56 34 62 64 62 305 l0 215 40 29 c70 50 161 50 206 0 17 -19 20
-45 24 -253 4 -205 7 -234 24 -259 25 -36 66 -57 113 -57 50 0 82 18 111 60
23 35 23 35 20 325 -3 277 -4 292 -25 332 -27 51 -82 96 -132 112 -54 16 -178
14 -239 -4 -28 -9 -72 -31 -96 -50 l-46 -35 -15 31 c-34 65 -128 89 -193 49z"/>
        <path d="M11068 1001 c-75 -24 -116 -51 -172 -111 -190 -203 -132 -556 111
-670 54 -25 161 -50 218 -49 66 0 187 25 238 49 82 39 102 131 39 180 -31 25
-78 23 -177 -6 -103 -30 -190 -2 -243 76 l-23 35 245 5 c228 5 246 6 273 26
55 41 65 93 38 199 -30 114 -104 198 -221 252 -79 36 -237 43 -326 14z m237
-212 c29 -17 65 -66 65 -88 0 -8 -49 -11 -155 -11 -168 0 -171 1 -136 53 48
73 147 94 226 46z"/>
    </g>
</svg>
