<svg width="520" height="360" viewBox="0 0 520 360" fill="none" xmlns="http://www.w3.org/2000/svg">
<rect width="520" height="360" rx="20" fill="white"/>
<path d="M0 20C0 8.9543 8.95431 0 20 0H500C511.046 0 520 8.95431 520 20V230L0 140V20Z" fill="url(#paint0_linear_1892:2600)" fill-opacity="0.2"/>
<rect x="148" y="75" width="250" height="145" fill="#2E73C3" stroke="#333333" stroke-width="10"/>
<rect x="173" y="50" width="30" height="20" fill="#666666"/>
<rect x="343" y="50" width="30" height="20" fill="#666666"/>
<rect x="122" y="30" width="398" height="20" fill="#555555"/>
<rect x="235.5" y="86" width="75" height="9" rx="4.5" fill="white"/>
<rect x="159" y="86" width="30" height="9" rx="4.5" fill="white"/>
<rect x="159" y="116" width="15" height="12" rx="6" fill="white"/>
<rect x="159" y="138.5" width="15" height="12" rx="6" fill="white"/>
<rect x="159" y="161" width="15" height="12" rx="6" fill="white"/>
<rect x="159" y="183.5" width="15" height="12" rx="6" fill="white"/>
<rect x="186" y="116" width="75" height="12" rx="6" fill="white"/>
<rect x="186" y="138.5" width="60" height="12" rx="6" fill="white"/>
<rect x="186" y="161" width="90" height="12" rx="6" fill="white"/>
<rect x="186" y="183.5" width="75" height="12" rx="6" fill="white"/>
<rect x="358.5" y="116" width="30" height="12" rx="6" fill="white"/>
<rect x="358.5" y="138.5" width="30" height="12" rx="6" fill="white"/>
<rect x="358.5" y="161" width="30" height="12" rx="6" fill="white"/>
<rect x="358.5" y="183.5" width="30" height="12" rx="6" fill="white"/>
<rect x="357" y="86" width="30" height="9" rx="4.5" fill="white"/>
<rect x="157.5" y="110" width="231" height="1.5" fill="white" fill-opacity="0.5"/>
<rect opacity="0.5" x="157.5" y="132.5" width="231" height="1.5" fill="white"/>
<rect opacity="0.5" x="157.5" y="155" width="231" height="1.5" fill="white"/>
<rect opacity="0.5" x="157.5" y="177.5" width="231" height="1.5" fill="white"/>
<rect opacity="0.5" x="157.5" y="200" width="231" height="1.5" fill="white"/>
<rect x="69" y="195" width="166" height="96" fill="#2E73C3" stroke="#333333" stroke-width="6" stroke-linejoin="round"/>
<path d="M52 294H252C252 299.523 247.523 304 242 304H62C56.4772 304 52 299.523 52 294Z" fill="#C4C4C4"/>
<rect x="127" y="202" width="50" height="6" rx="3" fill="white"/>
<rect x="76" y="202" width="20" height="6" rx="3" fill="white"/>
<rect x="76" y="222" width="10" height="8" rx="4" fill="white"/>
<rect x="76" y="237" width="10" height="8" rx="4" fill="white"/>
<rect x="76" y="252" width="10" height="8" rx="4" fill="white"/>
<rect x="76" y="267" width="10" height="8" rx="4" fill="white"/>
<rect x="94" y="222" width="50" height="8" rx="4" fill="white"/>
<rect x="94" y="237" width="40" height="8" rx="4" fill="white"/>
<rect x="94" y="252" width="60" height="8" rx="4" fill="white"/>
<rect x="94" y="267" width="50" height="8" rx="4" fill="white"/>
<rect x="209" y="222" width="20" height="8" rx="4" fill="white"/>
<rect x="209" y="237" width="20" height="8" rx="4" fill="white"/>
<rect x="209" y="252" width="20" height="8" rx="4" fill="white"/>
<rect x="209" y="267" width="20" height="8" rx="4" fill="white"/>
<rect x="208" y="202" width="20" height="6" rx="3" fill="white"/>
<rect opacity="0.5" x="75" y="218" width="154" height="1" fill="white"/>
<rect opacity="0.5" x="75" y="233" width="154" height="1" fill="white"/>
<rect opacity="0.5" x="75" y="248" width="154" height="1" fill="white"/>
<rect opacity="0.5" x="75" y="263" width="154" height="1" fill="white"/>
<rect opacity="0.5" x="75" y="278" width="154" height="1" fill="white"/>
<rect x="339" y="144" width="90" height="190" rx="12" fill="white" stroke="#333333" stroke-width="4"/>
<path d="M361 146H407V148C407 150.761 404.761 153 402 153H366C363.239 153 361 150.761 361 148V146Z" fill="#333333"/>
<rect x="341" y="160" width="86" height="156" fill="#2E73C3"/>
<rect x="370.875" y="165.1" width="26.25" height="5" rx="2.5" fill="white"/>
<rect x="344.098" y="165.1" width="10.5" height="5" rx="2.5" fill="white"/>
<rect x="413.402" y="165.1" width="10.5" height="5" rx="2.5" fill="white"/>
<rect x="343.57" y="175.5" width="80.85" height="0.525" fill="white" fill-opacity="0.5"/>
<rect x="344.098" y="179.6" width="8.25" height="8" rx="4" fill="white"/>
<rect x="344.098" y="195.35" width="8.25" height="8" rx="4" fill="white"/>
<rect x="354.555" y="179.6" width="26.25" height="8" rx="4" fill="white"/>
<rect x="354.555" y="195.35" width="31.5" height="8" rx="4" fill="white"/>
<rect x="412.93" y="179.6" width="10.5" height="8" rx="4" fill="white"/>
<rect x="412.93" y="195.35" width="10.5" height="8" rx="4" fill="white"/>
<rect opacity="0.5" x="343.57" y="191.25" width="80.85" height="0.525" fill="white"/>
<rect opacity="0.5" x="343.57" y="207" width="80.85" height="0.525" fill="white"/>
<rect x="344.098" y="211.6" width="8.25" height="8" rx="4" fill="white"/>
<rect x="344.098" y="227.35" width="8.25" height="8" rx="4" fill="white"/>
<rect x="354.555" y="211.6" width="26.25" height="8" rx="4" fill="white"/>
<rect x="354.555" y="227.35" width="31.5" height="8" rx="4" fill="white"/>
<rect x="412.93" y="211.6" width="10.5" height="8" rx="4" fill="white"/>
<rect x="412.93" y="227.35" width="10.5" height="8" rx="4" fill="white"/>
<rect opacity="0.5" x="343.57" y="223.25" width="80.85" height="0.525" fill="white"/>
<rect opacity="0.5" x="343.57" y="239" width="80.85" height="0.525" fill="white"/>
<rect x="344.098" y="242" width="5.25" height="4.2" rx="2.1" fill="white"/>
<rect x="344.098" y="249.875" width="5.25" height="4.2" rx="2.1" fill="white"/>
<rect x="344.098" y="257.75" width="5.25" height="4.2" rx="2.1" fill="white"/>
<rect x="344.098" y="265.625" width="5.25" height="4.2" rx="2.1" fill="white"/>
<rect x="353.555" y="242" width="26.25" height="4.2" rx="2.1" fill="white"/>
<rect x="353.555" y="249.875" width="21" height="4.2" rx="2.1" fill="white"/>
<rect x="353.555" y="257.75" width="31.5" height="4.2" rx="2.1" fill="white"/>
<rect x="353.555" y="265.625" width="26.25" height="4.2" rx="2.1" fill="white"/>
<rect x="413.93" y="242" width="10.5" height="4.2" rx="2.1" fill="white"/>
<rect x="413.93" y="249.875" width="10.5" height="4.2" rx="2.1" fill="white"/>
<rect x="413.93" y="257.75" width="10.5" height="4.2" rx="2.1" fill="white"/>
<rect x="413.93" y="265.625" width="10.5" height="4.2" rx="2.1" fill="white"/>
<rect opacity="0.5" x="343.57" y="247.775" width="80.85" height="0.525" fill="white"/>
<rect opacity="0.5" x="343.57" y="255.65" width="80.85" height="0.525" fill="white"/>
<rect opacity="0.5" x="343.57" y="263.525" width="80.85" height="0.525" fill="white"/>
<rect opacity="0.5" x="343.57" y="271.4" width="80.85" height="0.525" fill="white"/>
<rect x="344.098" y="274" width="5.25" height="4.2" rx="2.1" fill="white"/>
<rect x="344.098" y="281.875" width="5.25" height="4.2" rx="2.1" fill="white"/>
<rect x="344.098" y="289.75" width="5.25" height="4.2" rx="2.1" fill="white"/>
<rect x="344.098" y="297.625" width="5.25" height="4.2" rx="2.1" fill="white"/>
<rect x="353.555" y="274" width="26.25" height="4.2" rx="2.1" fill="white"/>
<rect x="353.555" y="281.875" width="21" height="4.2" rx="2.1" fill="white"/>
<rect x="353.555" y="289.75" width="31.5" height="4.2" rx="2.1" fill="white"/>
<rect x="353.555" y="297.625" width="26.25" height="4.2" rx="2.1" fill="white"/>
<rect x="413.93" y="274" width="10.5" height="4.2" rx="2.1" fill="white"/>
<rect x="413.93" y="281.875" width="10.5" height="4.2" rx="2.1" fill="white"/>
<rect x="413.93" y="289.75" width="10.5" height="4.2" rx="2.1" fill="white"/>
<rect x="413.93" y="297.625" width="10.5" height="4.2" rx="2.1" fill="white"/>
<rect opacity="0.5" x="343.57" y="279.775" width="80.85" height="0.525" fill="white"/>
<rect opacity="0.5" x="343.57" y="287.65" width="80.85" height="0.525" fill="white"/>
<rect opacity="0.5" x="343.57" y="295.525" width="80.85" height="0.525" fill="white"/>
<rect opacity="0.5" x="343.57" y="303.4" width="80.85" height="0.525" fill="white"/>
<defs>
<linearGradient id="paint0_linear_1892:2600" x1="260" y1="0" x2="260" y2="275" gradientUnits="userSpaceOnUse">
<stop stop-color="#007AC9"/>
<stop offset="1" stop-color="#007AC9" stop-opacity="0"/>
</linearGradient>
</defs>
</svg>
