<svg width="24" height="24" viewBox="0 0 24 24" xmlns="http://www.w3.org/2000/svg">
<path fill-rule="evenodd" clip-rule="evenodd" d="M10 1C8.89543 1 8 1.89543 8 3V4H3C2.44772 4 2 4.44772 2 5C2 5.55228 2.44772 6 3 6H4V20C4 21.6569 5.34315 23 7 23H17C18.6569 23 20 21.6569 20 20V6H21C21.5523 6 22 5.55228 22 5C22 4.44772 21.5523 4 21 4H16V3C16 1.89543 15.1046 1 14 1H10ZM14 4H10V3H14V4ZM10 9C9.44772 9 9 9.44772 9 10V18C9 18.5523 9.44772 19 10 19C10.5523 19 11 18.5523 11 18V10C11 9.44772 10.5523 9 10 9ZM13 10C13 9.44772 13.4477 9 14 9C14.5523 9 15 9.44772 15 10V18C15 18.5523 14.5523 19 14 19C13.4477 19 13 18.5523 13 18V10Z"/>
</svg>
