<svg width="160" height="90" viewBox="0 0 160 90" fill="none" xmlns="http://www.w3.org/2000/svg">
<rect width="160" height="90" fill="#666666"/>
<rect x="30" y="6" width="42" height="6" rx="3" fill="#CCCCCC"/>
<rect x="79.5" y="3" width="1" height="84" rx="0.5" fill="#CCCCCC"/>
<rect x="88" y="6" width="42" height="6" rx="3" fill="#CCCCCC"/>
<rect x="138" y="6" width="16" height="6" rx="3" fill="#CCCCCC"/>
<rect x="6" y="6" width="16" height="6" rx="3" fill="#CCCCCC"/>
<rect x="6" y="18" width="72" height="15" fill="#CCCCCC"/>
<rect x="6" y="35" width="72" height="15" fill="#CCCCCC"/>
<rect x="6" y="52" width="72" height="15" fill="#CCCCCC"/>
<rect x="6" y="69" width="72" height="15" fill="#CCCCCC"/>
<rect x="82" y="18" width="72" height="15" fill="#CCCCCC"/>
<rect x="82" y="35" width="72" height="15" fill="#CCCCCC"/>
<rect x="82" y="52" width="72" height="15" fill="#CCCCCC"/>
<rect x="82" y="69" width="72" height="15" fill="#CCCCCC"/>
</svg>
