<svg width="90" height="160" viewBox="0 0 90 160" fill="none" xmlns="http://www.w3.org/2000/svg">
    <rect width="90" height="160" fill="#666666"/>
    <rect x="29" y="6" width="32" height="6" rx="3" fill="#CCCCCC"/>
    <rect x="68" y="6" width="16" height="6" rx="3" fill="#CCCCCC"/>
    <rect x="6" y="6" width="16" height="6" rx="3" fill="#CCCCCC"/>
    <rect x="6" y="18" width="78" height="6.5" fill="#CCCCCC"/>
    <rect x="6" y="26.5" width="78" height="6.5" fill="#CCCCCC"/>
    <rect x="6" y="35" width="78" height="6.5" fill="#CCCCCC"/>
    <rect x="6" y="43.5" width="78" height="6.5" fill="#CCCCCC"/>
    <rect x="6" y="52" width="78" height="6.5" fill="#CCCCCC"/>
    <rect x="6" y="60.5" width="78" height="6.5" fill="#CCCCCC"/>
    <rect x="6" y="69" width="78" height="6.5" fill="#CCCCCC"/>
    <rect x="6" y="77.5" width="78" height="6.5" fill="#CCCCCC"/>
    <rect x="6" y="86" width="78" height="6.5" fill="#CCCCCC"/>
    <rect x="6" y="94.5" width="78" height="6.5" fill="#CCCCCC"/>
    <rect x="6" y="103" width="78" height="6.5" fill="#CCCCCC"/>
    <rect x="6" y="111.5" width="78" height="6.5" fill="#CCCCCC"/>
    <rect x="6" y="120" width="78" height="6.5" fill="#CCCCCC"/>
    <rect x="6" y="128.5" width="78" height="6.5" fill="#CCCCCC"/>
    <rect x="6" y="137" width="78" height="6.5" fill="#CCCCCC"/>
    <rect x="6" y="145.5" width="78" height="6.5" fill="#CCCCCC"/>
</svg>
