<svg width="90" height="160" viewBox="0 0 90 160" fill="none" xmlns="http://www.w3.org/2000/svg">
    <rect width="90" height="160" fill="#666666"/>
    <rect x="6" y="18" width="78" height="9.3" fill="#CCCCCC"/>
    <rect x="6" y="63.2" width="78" height="9.3" fill="#CCCCCC"/>
    <rect x="29" y="6" width="32" height="6" rx="3" fill="#CCCCCC"/>
    <rect x="68" y="6" width="16" height="6" rx="3" fill="#CCCCCC"/>
    <rect x="6" y="6" width="16" height="6" rx="3" fill="#CCCCCC"/>
    <rect x="6" y="29.3" width="78" height="9.3" fill="#CCCCCC"/>
    <rect x="6" y="74.5" width="78" height="9.3" fill="#CCCCCC"/>
    <rect x="6" y="86" width="78" height="3.65" fill="#CCCCCC"/>
    <rect x="6" y="91.65" width="78" height="3.65" fill="#CCCCCC"/>
    <rect x="6" y="97.3" width="78" height="3.65" fill="#CCCCCC"/>
    <rect x="6" y="102.95" width="78" height="3.65" fill="#CCCCCC"/>
    <rect x="6" y="108.6" width="78" height="3.65" fill="#CCCCCC"/>
    <rect x="6" y="114.25" width="78" height="3.65" fill="#CCCCCC"/>
    <rect x="6" y="119.9" width="78" height="3.65" fill="#CCCCCC"/>
    <rect x="6" y="125.55" width="78" height="3.65" fill="#CCCCCC"/>
    <rect x="6" y="131.2" width="78" height="3.65" fill="#CCCCCC"/>
    <rect x="6" y="136.85" width="78" height="3.65" fill="#CCCCCC"/>
    <rect x="6" y="142.5" width="78" height="3.65" fill="#CCCCCC"/>
    <rect x="6" y="148.15" width="78" height="3.65" fill="#CCCCCC"/>
    <rect x="6" y="40.6" width="78" height="9.3" fill="#CCCCCC"/>
    <rect x="6" y="51.9" width="78" height="9.3" fill="#CCCCCC"/>
</svg>
