<svg width="24" height="24" viewBox="0 0 24 24" fill="none" xmlns="http://www.w3.org/2000/svg">
    <path d="M21.6005 24H2.40034C1.07444 24 0 22.9256 0 21.6005V2.40034C0 1.07444 1.07444 0 2.40034 0H21.6005C22.9264 0 24.0008 1.07444 24.0008 2.40034V21.6005C24 22.9256 22.9256 24 21.6005 24Z" fill="#CA4000"/>
    <path d="M16.5357 2.4012H7.46434C5.54915 2.4012 3.99634 3.95401 3.99634 5.8692V15.7263C3.99634 17.6414 5.54915 19.1943 7.46434 19.1943H8.60651L6.74128 21.6014H8.78347L10.6487 19.1943H13.3505L15.2157 21.6014H17.2579L15.3927 19.1943H16.5348C18.45 19.1943 20.0028 17.6414 20.0028 15.7263V5.8692C20.0045 3.95401 18.4517 2.4012 16.5357 2.4012ZM6.3518 16.8041C5.78791 16.8041 5.33071 16.3469 5.33071 15.783C5.33071 15.2191 5.78791 14.7619 6.3518 14.7619C6.91569 14.7619 7.3729 15.2191 7.3729 15.783C7.3729 16.3469 6.91569 16.8041 6.3518 16.8041ZM17.6491 16.8041C17.0852 16.8041 16.628 16.3469 16.628 15.783C16.628 15.2191 17.0852 14.7619 17.6491 14.7619C18.2129 14.7619 18.6702 15.2191 18.6702 15.783C18.6702 16.3469 18.2129 16.8041 17.6491 16.8041ZM18.6702 12.9805C18.6702 13.2218 18.5084 13.4334 18.2756 13.4961C17.3459 13.7459 14.8796 13.9482 12.0009 13.9482C9.12214 13.9482 6.65491 13.7459 5.72611 13.4961C5.49327 13.4334 5.33155 13.2226 5.33155 12.9805V5.75151C5.33155 5.45687 5.57032 5.2181 5.86496 5.2181H18.1376C18.4322 5.2181 18.671 5.45687 18.671 5.75151V12.9805H18.6702Z" fill="white"/>
</svg>
