<svg width="120" height="120" viewBox="0 0 120 120" fill="none" xmlns="http://www.w3.org/2000/svg">
<path fill-rule="evenodd" clip-rule="evenodd" d="M14.0868 87.2403C13.344 88.6167 12.9727 90.1459 12.9727 91.8281C13.0255 93.4671 13.4749 95.1589 14.3208 96.9036C15.1667 98.5425 16.3695 99.8246 17.9291 100.75C19.4888 101.675 21.1938 102.138 23.0442 102.138H96.7965C99.5986 102.138 102.004 101.12 104.013 99.0844C106.022 97.049 107.027 94.6302 107.027 91.8281C107.027 89.6605 106.472 87.8365 105.361 86.3562L68.8817 22.834C67.8772 21.3008 66.5951 20.0848 65.0355 19.1861C63.4758 18.2873 61.7708 17.8379 59.9204 17.8379C58.07 17.8379 56.3517 18.2873 54.7656 19.1861C53.1796 20.0848 51.9636 21.3008 51.1177 22.834L14.0868 87.2403ZM55.9949 90.5196C54.911 89.4887 54.3691 88.2066 54.3691 86.6734V85.8804C54.3691 84.3472 54.911 83.0651 55.9949 82.0341C57.0787 81.0032 58.3872 80.4877 59.9204 80.4877C61.5593 80.4877 62.8943 81.0032 63.9252 82.0341C64.9562 83.0651 65.4716 84.3472 65.4716 85.8804V86.6734C65.4716 88.2066 64.9562 89.4887 63.9252 90.5196C62.8943 91.5506 61.5593 92.0661 59.9204 92.0661C58.3872 92.0661 57.0787 91.5506 55.9949 90.5196ZM55.0432 37.7828C54.4881 38.4436 54.2634 39.2499 54.3691 40.2015L57.1448 72.0816C57.2505 72.8217 57.5545 73.4562 58.0567 73.9848C58.559 74.5135 59.1802 74.7779 59.9204 74.7779C60.6606 74.7779 61.3082 74.54 61.8633 74.0642C62.4185 73.5883 62.7489 72.9275 62.8546 72.0816L65.6302 40.2015V39.8843C65.6302 39.0384 65.3527 38.3114 64.7976 37.7034C64.2424 37.0954 63.5419 36.7915 62.696 36.7915H57.1448C56.2988 36.7915 55.5983 37.1219 55.0432 37.7828Z" fill="white"/>
</svg>
