<svg width="28" height="28" viewBox="0 0 28 28" xmlns="http://www.w3.org/2000/svg">
<path d="M0 3.5C0 1.567 1.567 0 3.5 0H24.5C26.433 0 28 1.567 28 3.5V24.5C28 26.433 26.433 28 24.5 28H3.5C1.567 28 0 26.433 0 24.5V3.5Z"  />
<path d="M20.545 24.85V23.38H19.25V24.85H8.82002V23.38H7.49002V24.85H5.88002C5.49502 24.85 5.18002 25.165 5.18002 25.515C5.18002 25.9 5.49502 26.215 5.88002 26.215H22.19C22.575 26.215 22.855 25.9 22.855 25.515C22.855 25.165 22.575 24.85 22.19 24.85H20.545ZM23.135 6.405C22.505 5.075 22.015 4.025 21.49 3.57C20.72 2.87 17.395 2.065 14 2.065C10.71 2.065 7.31502 2.87 6.58002 3.57C6.05502 4.025 5.53002 5.075 4.90002 6.405C4.37502 7.56 3.95502 8.645 3.95502 9.275V19.39C3.95502 20.195 4.23502 20.545 5.32002 21.385C6.12502 22.015 6.47502 22.295 7.70002 22.295H10.01V23.8H18.095V22.295H20.37C21.595 22.295 21.945 22.015 22.715 21.385C23.8 20.51 24.045 20.195 24.045 19.39V9.275C24.045 8.645 23.625 7.56 23.135 6.405ZM19.32 4.795V5.39C19.32 5.845 18.97 6.23 18.515 6.23H9.55502C9.10002 6.23 8.71502 5.845 8.71502 5.39V4.795H19.32ZM9.55502 20.405C9.06502 20.405 8.71502 20.055 8.71502 19.565C8.71502 19.075 9.06502 18.69 9.55502 18.69C10.045 18.69 10.465 19.075 10.465 19.565C10.465 20.055 10.045 20.405 9.55502 20.405ZM18.515 20.3C18.025 20.3 17.64 19.95 17.64 19.46C17.64 18.97 18.025 18.585 18.515 18.585C19.005 18.585 19.39 18.97 19.39 19.46C19.39 19.95 19.005 20.3 18.515 20.3ZM19.81 15.925C19.705 16.52 19.11 16.975 18.515 16.975H9.55502C8.96002 16.975 8.36502 16.52 8.26002 15.925L6.61502 8.96C6.51002 8.365 6.89502 7.91 7.49002 7.91H20.545C21.14 7.91 21.56 8.365 21.42 8.96L19.81 15.925Z" fill="white"/>
</svg>
