<svg width="28" height="28" viewBox="0 0 28 28" xmlns="http://www.w3.org/2000/svg">
<path d="M0 3.5C0 1.567 1.567 0 3.5 0H24.5C26.433 0 28 1.567 28 3.5V24.5C28 26.433 26.433 28 24.5 28H3.5C1.567 28 0 26.433 0 24.5V3.5Z" />
<path fill-rule="evenodd" clip-rule="evenodd" d="M20.0571 10.8623V10.2664C20.0571 10.2312 20.1265 10.1962 20.1959 10.1962V24.5H24.5V3.5H18.148L14.1562 17.8389L14.0868 18.8205H13.9827L13.8785 17.8389L9.88679 3.5H3.5V24.5H7.87359V10.1962C7.90827 10.1962 7.97762 10.2312 7.97762 10.2664V10.8623L11.8653 24.5H16.1348L20.0571 10.8623Z" fill="white"/>
</svg>
