<svg width="28" height="28" viewBox="0 0 28 28" xmlns="http://www.w3.org/2000/svg">
<path d="M0 3.5C0 1.567 1.567 0 3.5 0H24.5C26.433 0 28 1.567 28 3.5V24.5C28 26.433 26.433 28 24.5 28H3.5C1.567 28 0 26.433 0 24.5V3.5Z" />
<path d="M22.19 3.53501C19.39 3.18501 16.835 3.01001 14.035 3.01001C11.13 3.01001 8.61001 3.15001 5.84501 3.53501C5.00501 3.64001 4.51501 4.13001 4.51501 4.86501V21.245C4.51501 21.77 4.90001 22.12 5.25001 22.225L6.30001 22.4V24.605C6.30001 24.85 6.51001 25.025 6.79001 25.025H8.47001C8.68001 25.025 8.89001 24.85 8.89001 24.605V22.645C10.255 22.82 12.11 22.89 13.965 22.89C15.855 22.89 17.78 22.82 19.11 22.645V24.605C19.11 24.85 19.355 25.025 19.565 25.025H21.245C21.525 25.025 21.735 24.85 21.735 24.605V22.4L22.785 22.225C23.17 22.12 23.52 21.805 23.52 21.245V4.86501C23.52 4.13001 23.03 3.64001 22.19 3.53501ZM22.015 16.205C22.015 16.66 21.84 16.905 21.28 16.975C19.285 17.325 16.66 17.675 14.105 17.675C11.41 17.675 8.85501 17.36 6.82501 16.905C6.26501 16.8 6.05501 16.59 6.05501 16.135V5.91501C6.05501 5.46001 6.26501 5.14501 6.82501 5.14501L21.28 5.21501C21.84 5.21501 22.015 5.53001 22.015 5.98501V16.205ZM7.56001 20.72C7.03502 20.685 6.61501 20.265 6.61501 19.775C6.65001 19.32 7.07001 18.9 7.56001 18.9C8.05001 18.9 8.47001 19.32 8.47001 19.775C8.47001 20.3 8.05001 20.72 7.56001 20.72ZM20.335 20.72C19.845 20.685 19.425 20.265 19.425 19.775C19.46 19.32 19.88 18.9 20.335 18.9C20.825 18.9 21.245 19.32 21.245 19.775C21.245 20.3 20.825 20.72 20.335 20.72Z" fill="white"/>
</svg>
