<svg width="32" height="32" viewBox="0 0 32 32" fill="none" xmlns="http://www.w3.org/2000/svg">
<path d="M11.5556 8.22218H8.22223V10.4444H11.5556V8.22218Z" fill="#007AC9"/>
<path d="M16.0001 8.22218H12.6667V10.4444H16.0001V8.22218Z" fill="#007AC9"/>
<path d="M20.4445 8.22218H17.1112V10.4444H20.4445V8.22218Z" fill="#007AC9"/>
<path fill-rule="evenodd" clip-rule="evenodd" d="M24.8889 10.4444H21.5555V8.22218H24.3333C24.6667 8.22218 24.8889 8.44441 24.8889 8.77774V10.4444Z" fill="#007AC9"/>
<path d="M24.8889 11.5555H8.22223V12.1111H24.8889V11.5555Z" fill="#007AC9"/>
<path fill-rule="evenodd" clip-rule="evenodd" d="M27.6667 3.77778H5.88891C5.66669 3.11111 5.11113 2.66667 4.33335 2.66667C3.44446 2.66667 2.66669 3.44445 2.66669 4.33333V29.3333H6.00002V17.1111H27.6667C28.5556 17.1111 29.3334 16.3333 29.3334 15.4444V5.44445C29.3334 4.55556 28.5556 3.77778 27.6667 3.77778ZM26 13.2222C26 13.5556 25.7778 13.7778 25.4445 13.7778H23.7778C23.7778 14.4444 23.3334 14.8889 22.6667 14.8889C22 14.8889 21.5556 14.4444 21.5556 13.7778H11.5556C11.5556 14.4444 11.1111 14.8889 10.4445 14.8889C9.7778 14.8889 9.33335 14.4444 9.33335 13.7778H7.66669C7.33335 13.7778 7.11113 13.5556 7.11113 13.2222V7.66667C7.11113 7.33333 7.33335 7.11111 7.66669 7.11111H24.8889C25.5556 7.11111 26 7.55556 26 8.22222V13.2222Z" fill="#007AC9"/>
</svg>
