<svg width="32" height="32" viewBox="0 0 32 32" fill="none" xmlns="http://www.w3.org/2000/svg">
<rect x="14.5" y="22" width="3" height="8" rx="1.5" fill="#333333"/>
<circle cx="16" cy="13" r="11" fill="#007E79"/>
<g clip-path="url(#clip0_335_573)">
<path d="M9.99979 5H21.9996C23.1037 5 23.9994 5.89635 23.9994 6.99986V19.0001C23.9994 20.1042 23.1031 21 21.9996 21H9.99979C8.89576 21 8 20.1036 8 19.0001V6.99986C8 5.89635 8.89632 5 9.99979 5Z" fill="#007E79"/>
<path d="M19.9236 14.9592L19.0922 9.15437C19.0369 8.74176 18.7874 8.38389 18.4284 8.21456C17.6648 7.85331 16.8751 7.71727 16.4179 7.66196V6.95808H17.8888C18.1067 6.95808 18.2834 6.78141 18.2834 6.56353C18.2834 6.34565 18.1067 6.16898 17.8888 6.16898H14.1342C13.9164 6.16898 13.7397 6.34565 13.7397 6.56353C13.7397 6.78141 13.9164 6.95808 14.1342 6.95808H15.6074V7.66196C15.148 7.71727 14.3583 7.85331 13.5946 8.21456C13.2357 8.38446 12.9879 8.74232 12.9326 9.15437L12.1011 14.9586C12.0391 15.395 12.0814 15.8409 12.2202 16.2569C12.3026 16.5036 12.4567 17.0014 12.5504 17.2447C12.6825 17.5879 12.9817 17.8295 13.3214 17.9175C13.9395 18.0778 14.8618 18.2167 16.0115 18.2167C17.1613 18.2167 18.0836 18.0778 18.7016 17.9175C19.042 17.8295 19.3406 17.5879 19.4726 17.2447C19.5663 17.002 19.7204 16.5041 19.8028 16.2569C19.9417 15.8409 19.9857 15.395 19.9236 14.9586V14.9592ZM19.1763 15.7726L18.9663 16.4183C18.9127 16.582 18.8275 16.6227 18.6988 16.6616C18.407 16.7497 17.1731 16.9596 16.0115 16.9681C14.8494 16.9596 13.6183 16.7497 13.3265 16.6616C13.1984 16.6227 13.1132 16.582 13.0595 16.4183L12.8496 15.7726C12.8016 15.627 12.9224 15.5237 13.0849 15.5677C13.5884 15.7043 14.1478 15.8183 14.6134 15.9098C14.7545 15.9374 14.8855 16.0249 14.947 16.1508C15.0193 16.2987 15.1638 16.4003 15.3184 16.4099C15.5301 16.4234 15.7773 16.4313 16.0115 16.4313C16.2458 16.4313 16.4924 16.4234 16.7041 16.4099C16.8588 16.4003 17.0032 16.2981 17.0755 16.1508C17.1376 16.0249 17.2685 15.9374 17.4091 15.9098C17.8742 15.8183 18.4363 15.7043 18.9393 15.5677C19.1024 15.5237 19.2232 15.627 19.1752 15.7726H19.1763ZM18.8557 14.6448C18.1857 14.8593 17.1206 15.0924 16.0121 15.0924C14.9036 15.0924 13.839 14.8599 13.1696 14.6448C13.0212 14.5974 12.9292 14.4495 12.9512 14.2948L13.5388 10.1901C13.5579 10.0569 13.6584 9.94969 13.7905 9.92259C14.3679 9.80293 15.1547 9.69173 16.0121 9.69173C16.8695 9.69173 17.658 9.80293 18.2354 9.92259C18.3675 9.94969 18.468 10.0569 18.4871 10.1901L19.0747 14.2948C19.0967 14.4495 19.0047 14.5968 18.8563 14.6448H18.8557ZM18.2845 18.6067C18.0057 18.6637 17.693 18.7089 17.3746 18.7433C17.3746 18.7433 17.9797 19.4636 18.1383 19.6532C18.3432 19.8976 18.5097 19.9761 18.7445 19.9761C19.0104 19.9761 19.2469 19.7796 18.9669 19.4302C18.8298 19.2587 18.2845 18.6067 18.2845 18.6067ZM13.7408 18.6067C14.0197 18.6637 14.3323 18.7089 14.6507 18.7433C14.6507 18.7433 14.0456 19.4636 13.887 19.6532C13.6821 19.8976 13.5156 19.9761 13.2808 19.9761C13.015 19.9761 12.7785 19.7796 13.0584 19.4302C13.1956 19.2587 13.7408 18.6067 13.7408 18.6067Z" fill="white"/>
</g>
<defs>
<clipPath id="clip0_335_573">
<rect width="16" height="16" fill="white" transform="translate(8 5)"/>
</clipPath>
</defs>
</svg>
