<svg width="24" height="24" viewBox="0 0 24 24" fill="none" xmlns="http://www.w3.org/2000/svg">
    <path d="M21.6005 24H2.40034C1.07444 24 0 22.9256 0 21.6005V2.40034C0 1.07444 1.07444 0 2.40034 0H21.6005C22.9264 0 24.0008 1.07444 24.0008 2.40034V21.6005C24 22.9256 22.9256 24 21.6005 24Z" fill="#8E5EA0"/>
    <path d="M18.9783 14.8381V7.06556C18.9783 5.39591 17.6245 2.4012 15.9549 2.4012H8.04686C6.3772 2.4012 5.02336 5.39591 5.02336 7.06556V14.8381C5.02336 16.5077 6.3772 18.682 8.04686 18.682H8.22127L7.47704 19.571H6.18501L5.36457 20.4465H6.74212L5.77521 21.6014H7.55578L8.52269 20.4465H15.4773L16.4442 21.6014H18.2248L17.2579 20.4465H18.6354L17.815 19.571H16.5247L15.7804 18.682H15.9549C17.6245 18.6829 18.9783 16.5086 18.9783 14.8381ZM16.9251 15.7779C16.4332 15.7779 16.0344 15.3791 16.0344 14.888C16.0344 14.3961 16.4332 13.9982 16.9251 13.9982C17.4171 13.9982 17.815 14.397 17.815 14.888C17.815 15.38 17.4162 15.7779 16.9251 15.7779ZM9.41509 4.26051H14.5849V5.13598H9.41509V4.26051ZM7.07571 15.7779C6.58379 15.7779 6.18585 15.3791 6.18585 14.888C6.18585 14.3961 6.58464 13.9982 7.07571 13.9982C7.56764 13.9982 7.96558 14.397 7.96558 14.888C7.96558 15.38 7.56764 15.7779 7.07571 15.7779ZM6.52961 12.0737C6.3264 12.0186 6.18501 11.8349 6.18501 11.6241V6.96311C6.18501 6.70657 6.39329 6.49829 6.64983 6.49829H17.3493C17.6059 6.49829 17.8142 6.70657 17.8142 6.96311V11.6249C17.8142 11.8358 17.6736 12.0195 17.4696 12.0745C16.6593 12.2921 14.5096 12.4691 11.9992 12.4691C9.48875 12.4691 7.33988 12.2913 6.52961 12.0737ZM14.7441 19.5719H9.25592L10.0001 18.6829H13.999L14.7441 19.5719Z" fill="white"/>
</svg>
