<svg width="30" height="30" viewBox="0 0 30 30" fill="none" xmlns="http://www.w3.org/2000/svg">
<g clip-path="url(#clip0_2_243)">
<path d="M3.7496 0H26.2493C28.3194 0 29.9989 1.68066 29.9989 3.74974V26.2503C29.9989 28.3204 28.3183 30 26.2493 30H3.7496C1.67954 30 0 28.3193 0 26.2503V3.74974C0 1.68066 1.6806 0 3.7496 0Z" fill="#007E79"/>
<path d="M22.3569 18.6735L20.798 7.78946C20.6943 7.0158 20.2265 6.34481 19.5535 6.0273C18.1216 5.34996 16.641 5.0949 15.7837 4.99118V3.67142H18.5417C18.9502 3.67142 19.2815 3.34015 19.2815 2.93163C19.2815 2.52311 18.9502 2.19184 18.5417 2.19184H11.5018C11.0933 2.19184 10.762 2.52311 10.762 2.93163C10.762 3.34015 11.0933 3.67142 11.5018 3.67142H14.264V4.99118C13.4025 5.0949 11.922 5.34996 10.4901 6.0273C9.81697 6.34587 9.35237 7.01686 9.24866 7.78946L7.68976 18.6725C7.57335 19.4906 7.65272 20.3267 7.91307 21.1067C8.06758 21.5692 8.3565 22.5026 8.53218 22.9588C8.77982 23.6023 9.34073 24.0552 9.97783 24.2204C11.1367 24.5209 12.866 24.7813 15.0218 24.7813C17.1775 24.7813 18.9068 24.5209 20.0657 24.2204C20.7038 24.0552 21.2637 23.6023 21.5113 22.9588C21.687 22.5037 21.9759 21.5702 22.1304 21.1067C22.3908 20.3267 22.4733 19.4906 22.3569 18.6725V18.6735ZM20.9557 20.1986L20.562 21.4094C20.4615 21.7163 20.3017 21.7925 20.0604 21.8655C19.5132 22.0306 17.1998 22.4243 15.0218 22.4402C12.8427 22.4243 10.5345 22.0306 9.98736 21.8655C9.74712 21.7925 9.58732 21.7163 9.48678 21.4094L9.09308 20.1986C9.00313 19.9256 9.22961 19.7319 9.5344 19.8144C10.4784 20.0706 11.5272 20.2843 12.4003 20.4558C12.6649 20.5077 12.9104 20.6717 13.0258 20.9077C13.1612 21.185 13.4322 21.3755 13.7221 21.3935C14.119 21.4189 14.5826 21.4337 15.0218 21.4337C15.461 21.4337 15.9234 21.4189 16.3203 21.3935C16.6103 21.3755 16.8812 21.1839 17.0167 20.9077C17.1331 20.6717 17.3786 20.5077 17.6421 20.4558C18.5142 20.2843 19.5683 20.0706 20.5112 19.8144C20.8171 19.7319 21.0436 19.9256 20.9536 20.1986H20.9557ZM20.3546 18.084C19.0984 18.4862 17.1013 18.9233 15.0228 18.9233C12.9443 18.9233 10.9483 18.4873 9.69315 18.084C9.41481 17.9951 9.24231 17.7178 9.28358 17.4279L10.3853 9.73153C10.4213 9.48176 10.6096 9.28067 10.8573 9.22987C11.9399 9.0055 13.4152 8.79701 15.0228 8.79701C16.6304 8.79701 18.1089 9.0055 19.1915 9.22987C19.4392 9.28067 19.6275 9.48176 19.6635 9.73153L20.7652 17.4279C20.8065 17.7178 20.634 17.9941 20.3557 18.084H20.3546ZM19.2836 25.5126C18.7608 25.6195 18.1745 25.7042 17.5776 25.7687C17.5776 25.7687 18.7121 27.1192 19.0095 27.4748C19.3936 27.933 19.7058 28.0802 20.1461 28.0802C20.6446 28.0802 21.088 27.7118 20.5631 27.0567C20.3059 26.735 19.2836 25.5126 19.2836 25.5126ZM10.7642 25.5126C11.287 25.6195 11.8733 25.7042 12.4702 25.7687C12.4702 25.7687 11.3357 27.1192 11.0383 27.4748C10.6541 27.933 10.3419 28.0802 9.90164 28.0802C9.40317 28.0802 8.95974 27.7118 9.48466 27.0567C9.74183 26.735 10.7642 25.5126 10.7642 25.5126Z" fill="white"/>
</g>
<defs>
<clipPath id="clip0_2_243">
<rect width="30" height="30" fill="white"/>
</clipPath>
</defs>
</svg>
