<?xml version="1.0" encoding="UTF-8"?>
<svg width="60px" height="60px" viewBox="0 0 60 60" version="1.1" xmlns="http://www.w3.org/2000/svg" xmlns:xlink="http://www.w3.org/1999/xlink">
    <!-- Generator: sketchtool 53.2 (72643) - https://sketchapp.com -->
    <title>9BED51A3-BF60-4C23-B5A1-C4A8AC8DAD33</title>
    <desc>Created with sketchtool.</desc>
    <g id="Nysse-etusivu" stroke="none" stroke-width="1" fill="none" fill-rule="evenodd">
        <g id="nysse-etusivu-1440-1.0" transform="translate(-135.000000, -25.000000)" fill-rule="nonzero">
            <g id="Navi">
                <g id="n-logo-sin" transform="translate(135.000000, 25.000000)">
                    <circle id="Oval" fill="#FFFFFF" cx="30" cy="30" r="30"></circle>
                    <path d="M45.3933333,42.1033333 L45.3933333,42.1566667 C45.370578,43.7396955 44.2115531,45.0765096 42.6477343,45.3234284 C41.0839155,45.5703471 39.5693924,44.6556721 39.06,43.1566667 C37.98,39.8833333 34.0866667,36.1133333 28.3933333,32.8233333 C25.8009216,31.3419687 23.3612834,29.6079833 21.11,27.6466667 L21.11,42.14 C21.1479947,43.3265357 20.5366746,44.4395678 19.5149698,45.0440757 C18.493265,45.6485836 17.2234017,45.6485836 16.2016969,45.0440757 C15.1799921,44.4395678 14.568672,43.3265357 14.6066667,42.14 L14.6066667,17.8766667 C14.6071959,16.2850386 15.7592106,14.92747 17.3295388,14.6679526 C18.8998671,14.4084352 20.4274101,15.3231716 20.94,16.83 C22.04,20.12 25.94,23.8933333 31.6233333,27.1833333 C34.2090554,28.6474776 36.6422209,30.3659914 38.8866667,32.3133333 L38.8866667,17.86 C38.848672,16.6734643 39.4599921,15.5604322 40.4816969,14.9559243 C41.5034017,14.3514164 42.773265,14.3514164 43.7949698,14.9559243 C44.8166746,15.5604322 45.4279947,16.6734643 45.39,17.86 L45.39,42.1033333 L45.3933333,42.1033333 Z" id="Path" fill="#1A4A8F"></path>
                    <path d="M17.86,14.6066667 C19.2592251,14.6067722 20.5013217,15.5024245 20.9433333,16.83 C22.0433333,20.12 25.9433333,23.8933333 31.6266667,27.1833333 C40.8266667,32.5166667 44.1033333,37.7 45.23,41.1233333 C45.6345436,42.2375635 45.4010323,43.4836406 44.6204987,44.3757907 C43.8399651,45.2679408 42.6359616,45.6649436 41.47786,45.4120304 C40.3197584,45.1591173 39.390877,44.2963224 39.0533333,43.16 C37.9733333,39.8866667 34.08,36.1166667 28.3866667,32.8266667 C24.2433333,30.43 16.97,25.44 14.7866667,18.9 C14.4538779,17.9076443 14.6193856,16.8157489 15.2313079,15.966591 C15.8432303,15.1174331 16.8266647,14.6149542 17.8733333,14.6166667 L17.86,14.6066667 Z" id="Path" fill="#1C57CF"></path>
                </g>
            </g>
        </g>
    </g>
</svg>